<svg width="16" height="17" viewBox="0 0 16 17" fill="none" xmlns="http://www.w3.org/2000/svg">
<path d="M10.3885 8.86064C10.9522 8.86064 11.5032 8.69349 11.9719 8.38033C12.4406 8.06717 12.8059 7.62206 13.0216 7.10129C13.2373 6.58052 13.2937 6.00748 13.1838 5.45463C13.0738 4.90179 12.8024 4.39396 12.4038 3.99539C12.0052 3.59681 11.4974 3.32537 10.9445 3.2154C10.3917 3.10543 9.81865 3.16187 9.29788 3.37758C8.77711 3.59329 8.332 3.95858 8.01884 4.42726C7.70568 4.89594 7.53853 5.44696 7.53853 6.01064C7.53853 6.76651 7.83879 7.49142 8.37327 8.02589C8.90775 8.56037 9.63266 8.86064 10.3885 8.86064ZM10.3885 4.06064C10.7742 4.06064 11.1512 4.175 11.4719 4.38927C11.7926 4.60354 12.0425 4.90809 12.1901 5.26441C12.3377 5.62072 12.3763 6.0128 12.3011 6.39106C12.2258 6.76933 12.0401 7.11679 11.7674 7.3895C11.4947 7.66221 11.1472 7.84793 10.769 7.92317C10.3907 7.99841 9.99861 7.9598 9.64229 7.81221C9.28598 7.66461 8.98143 7.41468 8.76716 7.094C8.55289 6.77333 8.43853 6.39631 8.43853 6.01064C8.43853 5.49347 8.64397 4.99748 9.00967 4.63178C9.37536 4.26608 9.87135 4.06064 10.3885 4.06064ZM1.07053 8.72864C0.986255 8.64426 0.938922 8.52989 0.938922 8.41064C0.938922 8.29139 0.986255 8.17701 1.07053 8.09264L4.67053 4.49264C4.75583 4.41315 4.86866 4.36988 4.98524 4.37193C5.10182 4.37399 5.21305 4.42122 5.2955 4.50367C5.37795 4.58611 5.42517 4.69734 5.42723 4.81393C5.42929 4.93051 5.38601 5.04333 5.30653 5.12864L1.70653 8.72864C1.62215 8.81291 1.50778 8.86024 1.38853 8.86024C1.26927 8.86024 1.1549 8.81291 1.07053 8.72864ZM5.27052 8.09264C5.35583 8.01315 5.46866 7.96988 5.58524 7.97194C5.70182 7.97399 5.81305 8.02122 5.8955 8.10367C5.97795 8.18611 6.02517 8.29735 6.02723 8.41393C6.02929 8.53051 5.98601 8.64333 5.90653 8.72864L4.10653 10.5286C4.02122 10.6081 3.90839 10.6514 3.79181 10.6493C3.67523 10.6473 3.564 10.6001 3.48155 10.5176C3.39911 10.4352 3.35188 10.3239 3.34982 10.2074C3.34776 10.0908 3.39104 9.97794 3.47052 9.89264L5.27052 8.09264ZM0.470525 12.8926L1.67053 11.6926C1.75583 11.6132 1.86866 11.5699 1.98524 11.5719C2.10182 11.574 2.21305 11.6212 2.2955 11.7037C2.37795 11.7861 2.42517 11.8973 2.42723 12.0139C2.42929 12.1305 2.38601 12.2433 2.30653 12.3286L1.10653 13.5286C1.02122 13.6081 0.908393 13.6514 0.791812 13.6493C0.675232 13.6473 0.564 13.6001 0.481553 13.5176C0.399105 13.4352 0.351878 13.3239 0.349821 13.2074C0.347764 13.0908 0.391037 12.9779 0.470525 12.8926ZM8.30653 11.1286L2.90653 16.5286C2.82122 16.6081 2.70839 16.6514 2.59181 16.6493C2.47523 16.6473 2.364 16.6001 2.28155 16.5176C2.19911 16.4352 2.15188 16.3239 2.14982 16.2074C2.14776 16.0908 2.19104 15.9779 2.27052 15.8926L7.67053 10.4926C7.71172 10.4484 7.7614 10.413 7.8166 10.3884C7.8718 10.3638 7.93139 10.3506 7.99181 10.3495C8.05223 10.3484 8.11225 10.3595 8.16828 10.3822C8.22432 10.4048 8.27522 10.4385 8.31795 10.4812C8.36068 10.5239 8.39437 10.5748 8.417 10.6309C8.43963 10.6869 8.45075 10.7469 8.44968 10.8074C8.44862 10.8678 8.43539 10.9274 8.41079 10.9826C8.3862 11.0378 8.35074 11.0874 8.30653 11.1286ZM6.67603 2.93564C6.63419 2.89385 6.601 2.84422 6.57835 2.78959C6.5557 2.73496 6.54405 2.6764 6.54405 2.61726C6.54405 2.55813 6.5557 2.49957 6.57835 2.44494C6.601 2.39031 6.63419 2.34068 6.67603 2.29889C7.66064 1.31427 8.99607 0.761121 10.3885 0.761121C11.781 0.761121 13.1164 1.31427 14.101 2.29889C15.0856 3.28351 15.6388 4.61893 15.6388 6.01139C15.6388 7.40385 15.0856 8.73927 14.101 9.72389L7.89478 15.9294C7.85358 15.9736 7.8039 16.0091 7.7487 16.0337C7.6935 16.0583 7.63391 16.0715 7.57349 16.0725C7.51307 16.0736 7.45305 16.0625 7.39702 16.0399C7.34098 16.0172 7.29008 15.9835 7.24735 15.9408C7.20462 15.8981 7.17093 15.8472 7.1483 15.7911C7.12567 15.7351 7.11455 15.6751 7.11562 15.6147C7.11669 15.5543 7.12991 15.4947 7.15451 15.4395C7.1791 15.3843 7.21456 15.3346 7.25878 15.2934L13.4635 9.08564C13.8837 8.68552 14.2195 8.20539 14.4513 7.67353C14.6831 7.14167 14.8061 6.56881 14.8132 5.98868C14.8203 5.40854 14.7112 4.83285 14.4925 4.2955C14.2737 3.75814 13.9497 3.26997 13.5394 2.85972C13.1292 2.44948 12.641 2.12544 12.1037 1.90669C11.5663 1.68794 10.9906 1.57889 10.4105 1.58596C9.83036 1.59304 9.2575 1.71609 8.72563 1.94788C8.19377 2.17967 7.71365 2.51551 7.31353 2.93564C7.27172 2.97759 7.22204 3.01088 7.16735 3.03359C7.11265 3.0563 7.054 3.06799 6.99478 3.06799C6.93555 3.06799 6.87691 3.0563 6.82221 3.03359C6.76751 3.01088 6.71783 2.97759 6.67603 2.93564Z" fill="currentColor"/>
</svg>
