<svg width="32" height="19" viewBox="0 0 32 19" fill="none" xmlns="http://www.w3.org/2000/svg">
<g clip-path="url(#clip0_2295_25742)">
<path d="M30.72 0H1.28C0.573075 0 0 0.567106 0 1.26667V17.7333C0 18.4329 0.573075 19 1.28 19H30.72C31.4269 19 32 18.4329 32 17.7333V1.26667C32 0.567106 31.4269 0 30.72 0Z" fill="white"/>
<path fill-rule="evenodd" clip-rule="evenodd" d="M6.95678 6.55957C5.03185 6.55957 3.42859 7.27434 3.42859 9.43014C3.42859 11.1385 4.50667 12.2143 7.00627 12.2143C9.94827 12.2143 10.1368 10.5175 10.1368 10.5175H8.71149C8.71149 10.5175 8.4056 11.431 6.91966 11.431C5.70847 11.431 4.83773 10.7155 4.83773 9.7119H10.2857V9.0824C10.2857 8.08958 9.56601 6.55957 6.95678 6.55957ZM6.90686 7.36406C8.05918 7.36406 8.84502 7.98207 8.84502 8.90852H4.8693C4.8693 7.92497 5.89491 7.36406 6.90686 7.36406Z" fill="#E53238"/>
<path fill-rule="evenodd" clip-rule="evenodd" d="M10.3102 4.29785V11.0929C10.3102 11.4787 10.2856 12.0205 10.2856 12.0205H11.3743C11.3743 12.0205 11.4135 11.6316 11.4135 11.276C11.4135 11.276 11.9512 12.2145 13.4138 12.2145C14.954 12.2145 15.9999 11.0217 15.9999 9.31296C15.9999 7.72335 15.0391 6.4447 13.4162 6.4447C11.8965 6.4447 11.4245 7.36018 11.4245 7.36018V4.29785H10.3102ZM13.1351 7.28528C14.181 7.28528 14.8464 8.15121 14.8464 9.31296C14.8464 10.5591 14.0779 11.3739 13.1426 11.3739C12.0267 11.3739 11.4245 10.4017 11.4245 9.32393C11.4245 8.31993 11.9648 7.2849 13.1354 7.2849L13.1351 7.28528Z" fill="#0064D2"/>
<path fill-rule="evenodd" clip-rule="evenodd" d="M19.0736 6.55957C16.5512 6.55957 16.3895 7.93971 16.3895 8.1602H17.645C17.645 8.1602 17.7108 7.35454 18.987 7.35454C19.8162 7.35454 20.4588 7.73396 20.4588 8.46293V8.72251H18.987C17.0328 8.72251 16 9.29403 16 10.4529C16 11.5938 16.9544 12.2143 18.2445 12.2143C20.0024 12.2143 20.5685 11.2438 20.5685 11.2438C20.5685 11.6299 20.5982 12.0104 20.5982 12.0104H21.7143C21.7143 12.0104 21.6712 11.5385 21.6712 11.2372V8.62922C21.6712 6.91945 20.2908 6.55957 19.0736 6.55957ZM20.4588 9.50126V9.84749C20.4588 10.2988 20.1801 11.4208 18.5392 11.4208C17.6405 11.4208 17.2555 10.9728 17.2555 10.4529C17.2555 9.50753 18.5522 9.50126 20.4588 9.50126Z" fill="#F5AF02"/>
<path fill-rule="evenodd" clip-rule="evenodd" d="M21.7144 6.55957H23.1513L25.2131 11.0066L27.2699 6.55957H28.5715L24.8244 14.4762H23.4597L24.5409 12.2693L21.7144 6.55957Z" fill="#86B817"/>
</g>
<defs>
<clipPath id="clip0_2295_25742">
<rect width="32" height="19" fill="white"/>
</clipPath>
</defs>
</svg>
