<svg width="32" height="19" viewBox="0 0 32 19" fill="none" xmlns="http://www.w3.org/2000/svg">
<path fill-rule="evenodd" clip-rule="evenodd" d="M4.63075 6C2.10427 6 0 6.88481 0 9.55347C0 11.6682 1.41498 13 4.6957 13C8.55708 13 8.80458 10.8995 8.80458 10.8995H6.9338C6.9338 10.8995 6.53232 12.0303 4.58203 12.0303C2.99235 12.0303 1.8495 11.1446 1.8495 9.90225H9V9.12299C9 7.89399 8.05537 6 4.63075 6ZM4.56523 6.99587C6.07764 6.99587 7.10906 7.7609 7.10906 8.90776H1.89094C1.89094 7.69023 3.23704 6.99587 4.56523 6.99587Z" fill="#E53238"/>
<path fill-rule="evenodd" clip-rule="evenodd" d="M9.03013 3V11.5832C9.03013 12.0706 9 12.7549 9 12.7549H10.3336C10.3336 12.7549 10.3817 12.2636 10.3817 11.8144C10.3817 11.8144 11.0403 13 12.832 13C14.7188 13 16 11.4933 16 9.33488C16 7.32695 14.8229 5.71181 12.835 5.71181C10.9733 5.71181 10.3951 6.86821 10.3951 6.86821V3H9.03013ZM12.4906 6.77359C13.7718 6.77359 14.5869 7.8674 14.5869 9.33488C14.5869 10.9089 13.6455 11.9382 12.4998 11.9382C11.1328 11.9382 10.3951 10.7101 10.3951 9.34874C10.3951 8.08052 11.057 6.77312 12.491 6.77312L12.4906 6.77359Z" fill="#0064D2"/>
<path fill-rule="evenodd" clip-rule="evenodd" d="M19.7652 6C16.6752 6 16.4771 7.70846 16.4771 7.98142H18.0151C18.0151 7.98142 18.0957 6.98409 19.6591 6.98409C20.6749 6.98409 21.462 7.45377 21.462 8.35616V8.67749H19.6591C17.2652 8.67749 16 9.38498 16 10.8196C16 12.2318 17.1692 13 18.7495 13C20.903 13 21.5964 11.7986 21.5964 11.7986C21.5964 12.2765 21.6328 12.7476 21.6328 12.7476H23C23 12.7476 22.9472 12.1633 22.9472 11.7904V8.56201C22.9472 6.44549 21.2563 6 19.7652 6ZM21.462 9.6415V10.0701C21.462 10.6288 21.1206 12.0177 19.1105 12.0177C18.0096 12.0177 17.538 11.4632 17.538 10.8196C17.538 9.64926 19.1264 9.6415 21.462 9.6415Z" fill="#F5AF02"/>
<path fill-rule="evenodd" clip-rule="evenodd" d="M23 6H24.8859L27.592 11.6173L30.2917 6H32L27.082 16H25.2908L26.7099 13.2123L23 6Z" fill="#86B817"/>
</svg>
