<svg width="150" height="150" viewBox="0 0 150 150" fill="none" xmlns="http://www.w3.org/2000/svg">
<path d="M58.9039 15.0843L28.1171 9.46167C27.0104 9.25955 25.9494 9.99286 25.7473 11.0996L20.4524 40.092C20.2502 41.1987 20.9835 42.2597 22.0902 42.4618L52.877 48.0845C53.9837 48.2866 55.0447 47.5533 55.2468 46.4466L60.5418 17.4542C60.7439 16.3475 60.0106 15.2865 58.9039 15.0843Z" fill="#E0E0E0"/>
<path d="M45.417 34.7989C45.3373 34.798 45.2579 34.7889 45.18 34.7719L44.505 34.6639L42 34.2439L33.618 32.7619H33.549V32.6929C33.567 32.2369 33.585 31.7569 33.606 31.2709C33.78 27.1069 33.939 23.3899 34.041 20.9629L34.083 21.0139L31.857 20.5909L31.257 20.4709C31.188 20.4581 31.1199 20.4411 31.053 20.4199C31.1225 20.4201 31.1918 20.4271 31.26 20.4409L31.86 20.5339L34.095 20.9149H34.14V20.9599C34.05 23.3899 33.915 27.1069 33.762 31.2709C33.744 31.7569 33.723 32.2369 33.705 32.6929L33.642 32.6119L42.012 34.1449L44.502 34.6189L45.174 34.7539C45.2562 34.761 45.3376 34.7761 45.417 34.7989Z" fill="#FAFAFA"/>
<path d="M33.738 30.183C33.7579 30.1804 33.7781 30.1804 33.798 30.183L33.972 30.21L34.647 30.318L37.173 30.75L45.873 32.286L45.789 32.337C46.308 30.921 46.872 29.388 47.457 27.801C47.757 26.988 48.057 26.187 48.333 25.422L48.396 25.527L38.154 23.655L35.121 23.1L34.308 22.941L34.095 22.893L34.026 22.875C34.026 22.875 34.05 22.875 34.098 22.875L34.311 22.905L35.133 23.037L38.169 23.562L48.42 25.38L48.513 25.398L48.48 25.485L47.604 27.867L45.93 32.4L45.906 32.46H45.843L37.143 30.867L34.626 30.39L33.954 30.255L33.783 30.219C33.756 30.192 33.738 30.186 33.738 30.183Z" fill="#FAFAFA"/>
<path d="M36 36.411C36 36.411 36 36.306 36 36.111C35.9707 35.8523 35.858 35.6101 35.679 35.421C35.5346 35.2716 35.3517 35.165 35.1505 35.113C34.9494 35.0609 34.7377 35.0655 34.539 35.1261C34.3402 35.1867 34.1621 35.301 34.0242 35.4565C33.8863 35.6119 33.794 35.8024 33.7575 36.007C33.721 36.2116 33.7418 36.4222 33.8174 36.6158C33.8931 36.8093 34.0207 36.9782 34.1863 37.1037C34.3519 37.2293 34.5489 37.3067 34.7556 37.3274C34.9624 37.3481 35.1709 37.3113 35.358 37.221C35.5911 37.1062 35.7806 36.9188 35.898 36.687C35.982 36.519 36.003 36.414 36.015 36.417C36.024 36.5207 36.0032 36.6248 35.955 36.717C35.8497 36.9753 35.6563 37.1879 35.409 37.317C35.2249 37.4173 35.0186 37.4699 34.809 37.4699C34.5994 37.4699 34.3931 37.4173 34.209 37.317C33.9822 37.1867 33.8011 36.9895 33.6907 36.7523C33.5803 36.5151 33.5459 36.2496 33.5922 35.9921C33.6385 35.7346 33.7633 35.4977 33.9494 35.3138C34.1355 35.13 34.374 35.0082 34.632 34.965C34.841 34.9316 35.0551 34.9514 35.2544 35.0227C35.4537 35.0941 35.6317 35.2146 35.772 35.373C35.9583 35.584 36.0645 35.8537 36.072 36.135C36.0721 36.2317 36.0473 36.3267 36 36.411Z" fill="#FAFAFA"/>
<path d="M43.587 37.7789C43.587 37.7789 43.587 37.6709 43.587 37.4789C43.5577 37.2202 43.445 36.978 43.266 36.7889C43.1351 36.6529 42.9728 36.5511 42.7934 36.4926C42.614 36.434 42.4229 36.4204 42.237 36.4529C42.0108 36.4933 41.8024 36.6018 41.6398 36.7641C41.4772 36.9263 41.3682 37.1345 41.3273 37.3605C41.2865 37.5866 41.3158 37.8197 41.4114 38.0286C41.507 38.2374 41.6642 38.4121 41.862 38.5289C42.0247 38.6252 42.2088 38.6797 42.3978 38.6876C42.5868 38.6954 42.7747 38.6564 42.945 38.5739C43.178 38.4591 43.3675 38.2717 43.485 38.0399C43.569 37.8749 43.59 37.7699 43.602 37.7729C43.6108 37.8766 43.59 37.9807 43.542 38.0729C43.4351 38.3303 43.2421 38.5424 42.996 38.6729C42.8101 38.7697 42.6032 38.8187 42.3937 38.8156C42.1842 38.8124 41.9788 38.7572 41.796 38.6549C41.5687 38.5253 41.3871 38.3283 41.2764 38.0912C41.1656 37.8541 41.131 37.5885 41.1774 37.331C41.2238 37.0734 41.3488 36.8366 41.5353 36.653C41.7219 36.4694 41.9607 36.3482 42.219 36.3059C42.4277 36.2713 42.6419 36.2902 42.8413 36.3611C43.0407 36.4319 43.2189 36.5523 43.359 36.7109C43.5452 36.9219 43.6514 37.1916 43.659 37.4729C43.6626 37.5795 43.6377 37.6852 43.587 37.7789Z" fill="#FAFAFA"/>
<path d="M51.3389 24.7487C51.2196 25.4141 50.9056 26.0291 50.4367 26.5159C49.9678 27.0028 49.365 27.3396 48.7046 27.4838C48.0442 27.6281 47.3559 27.5732 46.7267 27.3261C46.0975 27.0791 45.5557 26.6509 45.1699 26.0959C44.7841 25.5409 44.5715 24.8839 44.5592 24.2081C44.5468 23.5322 44.7351 22.8679 45.1004 22.2991C45.4657 21.7304 45.9914 21.2827 46.6111 21.0128C47.2308 20.7428 47.9167 20.6628 48.5819 20.7827C49.4729 20.9442 50.2634 21.4524 50.7803 22.1958C51.2971 22.9393 51.498 23.8574 51.3389 24.7487Z" fill="#FAFAFA"/>
<path d="M47.7599 26.0097C47.7599 26.0097 47.7749 26.0397 47.7599 26.0937H47.7059C47.7586 25.5206 47.8478 24.9515 47.9729 24.3897C48.1649 23.4147 48.3659 22.6317 48.4199 22.6407C48.4739 22.6497 48.3599 23.4507 48.1649 24.4407C48.068 25.0012 47.9367 25.5553 47.7719 26.0997H47.7179C47.7359 26.0307 47.7509 26.0097 47.7599 26.0097Z" fill="#E0E0E0"/>
<path d="M49.848 24.7085C49.848 24.7625 49.041 24.6485 48.069 24.4565C47.097 24.2645 46.317 24.0635 46.326 24.0095C46.335 23.9555 47.133 24.0695 48.108 24.2645C49.083 24.4595 49.86 24.6575 49.848 24.7085Z" fill="#E0E0E0"/>
<path d="M121.884 40.2414L122.124 40.2144L122.835 40.1664C122.991 40.1664 123.165 40.1334 123.357 40.1394L123.99 40.1634C124.218 40.1634 124.464 40.1634 124.728 40.1994L125.559 40.3194C128.92 40.8501 131.954 42.6364 134.049 45.3174L134.541 45.9594C134.691 46.1874 134.841 46.4244 134.982 46.6614C135.282 47.1434 135.551 47.6445 135.786 48.1614C136.28 49.2702 136.621 50.4409 136.8 51.6414C136.902 52.2707 136.961 52.9061 136.977 53.5434C136.977 53.8674 136.956 54.1944 136.947 54.5244L136.926 55.0194C136.908 55.1844 136.878 55.3494 136.857 55.5144C136.688 56.8819 136.304 58.2142 135.72 59.4624C134.473 62.1679 132.378 64.3933 129.753 65.8014C126.921 67.2948 123.66 67.7643 120.522 67.1304C120.315 67.0884 120.111 67.0404 119.922 66.9894L120.009 66.9744L113.67 70.9194L113.451 71.0604L113.508 70.8054C113.997 68.6154 114.471 66.4914 114.93 64.4544L114.966 64.5624C112.28 62.5037 110.461 59.515 109.866 56.1834C109.77 55.6805 109.712 55.171 109.692 54.6594C109.677 54.4044 109.665 54.1554 109.65 53.9064C109.635 53.6574 109.668 53.4084 109.674 53.1654C109.75 51.3165 110.206 49.5029 111.012 47.8374C112.263 45.2364 114.31 43.1012 116.856 41.7414C117.703 41.2981 118.592 40.9423 119.511 40.6794L120.513 40.4274L121.26 40.3194L121.716 40.2564C121.768 40.248 121.82 40.243 121.872 40.2414L121.719 40.2744L121.266 40.3554L120.525 40.4814L119.532 40.7484C118.622 41.0206 117.742 41.3834 116.904 41.8314C114.396 43.2018 112.384 45.3274 111.153 47.9064C110.365 49.5544 109.923 51.3462 109.854 53.1714C109.854 53.4144 109.818 53.6574 109.833 53.9034C109.848 54.1494 109.86 54.3954 109.875 54.6444C109.897 55.148 109.957 55.6494 110.052 56.1444C110.243 57.176 110.551 58.1825 110.97 59.1444C111.886 61.204 113.299 63.0038 115.083 64.3824L115.137 64.4244L115.122 64.4874C114.67 66.5274 114.199 68.6444 113.709 70.8384L113.544 70.7244L119.868 66.7764L119.91 66.7494H119.955C120.156 66.8004 120.354 66.8484 120.555 66.8904C123.643 67.5116 126.851 67.0508 129.639 65.5854C132.225 64.2017 134.29 62.0133 135.522 59.3514C136.104 58.1356 136.489 56.8356 136.665 55.4994C136.689 55.3344 136.719 55.1724 136.734 55.0104L136.758 54.5214C136.758 54.1974 136.803 53.8764 136.788 53.5554C136.776 52.9264 136.721 52.2989 136.623 51.6774C136.447 50.4951 136.113 49.3418 135.63 48.2484C135.399 47.7324 135.135 47.2314 134.841 46.7484C134.697 46.5144 134.559 46.2804 134.409 46.0554L133.926 45.4194C132.76 43.9105 131.285 42.6687 129.6 41.7774C128.329 41.108 126.96 40.6442 125.544 40.4034L124.716 40.2774C124.455 40.2444 124.209 40.2444 123.984 40.2294L123.354 40.1964C123.162 40.1964 122.988 40.1964 122.832 40.1964L122.124 40.2234C121.968 40.2444 121.884 40.2414 121.884 40.2414Z" fill="#E0E0E0"/>
<path d="M119.295 47.6602L117.675 59.9632H129.702L127.95 47.6602H119.295Z" fill="#E0E0E0"/>
<path d="M126.972 49.4492C126.976 49.5703 126.951 49.6906 126.9 49.8002C126.801 50.1193 126.657 50.4225 126.471 50.7002C126.195 51.1141 125.828 51.459 125.397 51.7082C124.862 52.004 124.259 52.156 123.648 52.1492C123.037 52.167 122.432 52.0275 121.89 51.7442C121.453 51.502 121.086 51.1505 120.825 50.7242C120.651 50.4457 120.52 50.1422 120.438 49.8242C120.395 49.7104 120.38 49.5881 120.393 49.4672C120.534 49.8821 120.723 50.2788 120.957 50.6492C121.219 51.0376 121.572 51.3559 121.986 51.5762C122.501 51.8312 123.071 51.9558 123.645 51.9392C124.221 51.9461 124.789 51.8089 125.298 51.5402C125.708 51.3134 126.065 51.0002 126.342 50.6222C126.593 50.2548 126.804 49.8616 126.972 49.4492Z" fill="white"/>
<path d="M144.516 138.146C144.516 138.188 113.262 138.224 74.715 138.224C36.168 138.224 4.90503 138.188 4.90503 138.146C4.90503 138.104 36.153 138.068 74.715 138.068C113.277 138.068 144.516 138.101 144.516 138.146Z" fill="#263238"/>
<path d="M96.6271 138.147H56.8261C52.0261 138.126 48.1051 134.037 48.1261 129.243L48.5491 29.316C48.5534 28.1755 48.7825 27.047 49.2232 25.9951C49.6639 24.9432 50.3076 23.9885 51.1176 23.1855C51.9275 22.3825 52.8878 21.7471 53.9435 21.3154C54.9992 20.8838 56.1296 20.6645 57.2701 20.67L97.1311 20.856C98.2708 20.8611 99.3984 21.0907 100.449 21.5316C101.5 21.9725 102.454 22.6161 103.257 23.4256C104.059 24.2351 104.694 25.1948 105.125 26.2497C105.557 27.3047 105.776 28.4343 105.771 29.574L105.348 129.501C105.344 130.642 105.115 131.77 104.674 132.822C104.233 133.874 103.589 134.829 102.78 135.632C101.97 136.435 101.009 137.07 99.9537 137.502C98.898 137.933 97.7676 138.153 96.6271 138.147Z" fill="#263238"/>
<path d="M97.074 24.2992L89.346 24.2632C88.837 24.2727 88.3526 24.4836 87.9989 24.8497C87.6451 25.2158 87.451 25.7072 87.459 26.2162V27.6172C87.4638 27.8694 87.4188 28.12 87.3267 28.3548C87.2346 28.5895 87.0972 28.8039 86.9222 28.9855C86.7473 29.1671 86.5382 29.3125 86.3071 29.4134C86.0759 29.5142 85.8272 29.5685 85.575 29.5732L70.5 29.5042C69.9913 29.4909 69.5086 29.2761 69.1582 28.9071C68.8077 28.538 68.6181 28.045 68.631 27.5362V26.1322C68.6439 25.6232 68.4544 25.1298 68.104 24.7603C67.7537 24.3908 67.271 24.1754 66.762 24.1612H64.044L57.3 24.1192C56.5013 24.1153 55.7097 24.2688 54.9704 24.5709C54.2311 24.8731 53.5586 25.3181 52.9913 25.8803C52.424 26.4426 51.9732 27.1111 51.6644 27.8477C51.3557 28.5843 51.1952 29.3745 51.192 30.1732L50.772 127.709C50.7656 129.322 51.3997 130.871 52.5349 132.016C53.6701 133.161 55.2135 133.809 56.826 133.817L96.603 134C98.2161 134.007 99.766 133.374 100.912 132.238C102.058 131.103 102.706 129.559 102.714 127.946L103.125 30.4102C103.129 29.6115 102.976 28.8198 102.674 28.0804C102.373 27.3409 101.928 26.6682 101.366 26.1006C100.804 25.5331 100.136 25.0819 99.3993 24.7728C98.6629 24.4637 97.8727 24.3028 97.074 24.2992Z" fill="#FAFAFA"/>
<path d="M62.4991 34.2681C61.5101 34.3454 60.5178 34.3714 59.5261 34.3461C58.5344 34.3714 57.5421 34.3453 56.5531 34.2681C57.542 34.1891 58.5344 34.163 59.5261 34.1901C60.5178 34.1629 61.5102 34.189 62.4991 34.2681Z" fill="#263238"/>
<path d="M62.4991 33.144C61.5102 33.2232 60.5178 33.2492 59.5261 33.222C58.5344 33.2491 57.542 33.2231 56.5531 33.144C57.5421 33.0668 58.5344 33.0408 59.5261 33.066C60.5178 33.0407 61.5101 33.0667 62.4991 33.144Z" fill="#263238"/>
<path d="M62.4991 32.0229C61.5101 32.1002 60.5178 32.1263 59.5261 32.1009C58.5344 32.1262 57.5421 32.1002 56.5531 32.0229C57.5421 31.9457 58.5344 31.9197 59.5261 31.9449C60.5178 31.9196 61.5101 31.9456 62.4991 32.0229Z" fill="#263238"/>
<path d="M96.6661 118.109H57.2341C56.7006 118.109 56.2681 118.542 56.2681 119.075V126.605C56.2681 127.139 56.7006 127.571 57.2341 127.571H96.6661C97.1996 127.571 97.6321 127.139 97.6321 126.605V119.075C97.6321 118.542 97.1996 118.109 96.6661 118.109Z" fill="#00A19B"/>
<path d="M72.1089 123.002H71.5684L71.5654 122.775H72.0562C72.1372 122.775 72.208 122.762 72.2686 122.734C72.3291 122.707 72.376 122.668 72.4092 122.617C72.4434 122.565 72.4604 122.504 72.4604 122.433C72.4604 122.354 72.4453 122.291 72.415 122.242C72.3857 122.192 72.3403 122.156 72.2788 122.134C72.2183 122.11 72.1411 122.099 72.0474 122.099H71.6313V124H71.3486V121.867H72.0474C72.1567 121.867 72.2544 121.878 72.3403 121.901C72.4263 121.922 72.499 121.957 72.5586 122.003C72.6191 122.049 72.665 122.108 72.6963 122.179C72.7275 122.25 72.7432 122.336 72.7432 122.436C72.7432 122.523 72.7207 122.603 72.6758 122.674C72.6309 122.745 72.5684 122.802 72.4883 122.847C72.4092 122.892 72.3164 122.921 72.21 122.934L72.1089 123.002ZM72.0957 124H71.457L71.6167 123.77H72.0957C72.1855 123.77 72.2617 123.754 72.3242 123.723C72.3877 123.692 72.436 123.648 72.4692 123.591C72.5024 123.534 72.519 123.466 72.519 123.388C72.519 123.309 72.5049 123.24 72.4766 123.183C72.4482 123.125 72.4038 123.081 72.3433 123.049C72.2827 123.018 72.2046 123.002 72.1089 123.002H71.7061L71.709 122.775H72.2598L72.3198 122.857C72.4224 122.866 72.5093 122.896 72.5806 122.945C72.6519 122.994 72.7061 123.057 72.7432 123.133C72.7812 123.209 72.8003 123.293 72.8003 123.385C72.8003 123.518 72.771 123.63 72.7124 123.722C72.6548 123.812 72.5732 123.882 72.4678 123.93C72.3623 123.977 72.2383 124 72.0957 124ZM74.1465 123.634V122.415H74.4189V124H74.1597L74.1465 123.634ZM74.1978 123.3L74.3105 123.297C74.3105 123.402 74.2993 123.5 74.2769 123.59C74.2554 123.679 74.2202 123.756 74.1714 123.821C74.1226 123.887 74.0586 123.938 73.9795 123.975C73.9004 124.011 73.8042 124.029 73.6909 124.029C73.6138 124.029 73.543 124.018 73.4785 123.996C73.415 123.973 73.3604 123.938 73.3145 123.892C73.2686 123.845 73.2329 123.784 73.2075 123.708C73.1831 123.633 73.1709 123.543 73.1709 123.438V122.415H73.4419V123.44C73.4419 123.512 73.4497 123.571 73.4653 123.618C73.4819 123.664 73.5039 123.7 73.5312 123.728C73.5596 123.754 73.5908 123.772 73.625 123.783C73.6602 123.794 73.6963 123.799 73.7334 123.799C73.8486 123.799 73.9399 123.777 74.0073 123.733C74.0747 123.688 74.123 123.628 74.1523 123.553C74.1826 123.477 74.1978 123.393 74.1978 123.3ZM75.2773 123.836L75.7183 122.415H76.0083L75.3726 124.245C75.3579 124.284 75.3384 124.326 75.314 124.371C75.2905 124.417 75.2603 124.46 75.2231 124.501C75.186 124.542 75.1411 124.575 75.0884 124.601C75.0366 124.627 74.9746 124.64 74.9023 124.64C74.8809 124.64 74.8535 124.637 74.8203 124.631C74.7871 124.625 74.7637 124.621 74.75 124.617L74.7485 124.397C74.7563 124.398 74.7686 124.399 74.7852 124.4C74.8027 124.402 74.8149 124.403 74.8218 124.403C74.8833 124.403 74.9355 124.395 74.9785 124.378C75.0215 124.362 75.0576 124.335 75.0869 124.297C75.1172 124.26 75.1431 124.209 75.1646 124.144L75.2773 123.836ZM74.9536 122.415L75.3652 123.646L75.4355 123.931L75.2407 124.031L74.6577 122.415H74.9536ZM78.6787 121.867V124H78.3945L77.3208 122.355V124H77.0381V121.867H77.3208L78.3989 123.517V121.867H78.6787ZM79.0669 123.225V123.191C79.0669 123.077 79.0835 122.971 79.1167 122.874C79.1499 122.775 79.1978 122.689 79.2603 122.617C79.3228 122.544 79.3984 122.487 79.4873 122.447C79.5762 122.406 79.6758 122.386 79.7861 122.386C79.8975 122.386 79.9976 122.406 80.0864 122.447C80.1763 122.487 80.2524 122.544 80.3149 122.617C80.3784 122.689 80.4268 122.775 80.46 122.874C80.4932 122.971 80.5098 123.077 80.5098 123.191V123.225C80.5098 123.339 80.4932 123.445 80.46 123.543C80.4268 123.641 80.3784 123.726 80.3149 123.799C80.2524 123.872 80.1768 123.928 80.0879 123.969C80 124.009 79.9004 124.029 79.7891 124.029C79.6777 124.029 79.5776 124.009 79.4888 123.969C79.3999 123.928 79.3237 123.872 79.2603 123.799C79.1978 123.726 79.1499 123.641 79.1167 123.543C79.0835 123.445 79.0669 123.339 79.0669 123.225ZM79.3379 123.191V123.225C79.3379 123.304 79.3472 123.379 79.3657 123.449C79.3843 123.519 79.4121 123.58 79.4492 123.634C79.4873 123.688 79.5347 123.73 79.5913 123.761C79.6479 123.792 79.7139 123.807 79.7891 123.807C79.8633 123.807 79.9282 123.792 79.9839 123.761C80.0405 123.73 80.0874 123.688 80.1245 123.634C80.1616 123.58 80.1895 123.519 80.208 123.449C80.2275 123.379 80.2373 123.304 80.2373 123.225V123.191C80.2373 123.113 80.2275 123.04 80.208 122.97C80.1895 122.9 80.1611 122.838 80.123 122.784C80.0859 122.729 80.0391 122.687 79.9824 122.655C79.9268 122.624 79.8613 122.608 79.7861 122.608C79.7119 122.608 79.6465 122.624 79.5898 122.655C79.5342 122.687 79.4873 122.729 79.4492 122.784C79.4121 122.838 79.3843 122.9 79.3657 122.97C79.3472 123.04 79.3379 123.113 79.3379 123.191ZM81.251 123.719L81.6582 122.415H81.8369L81.8018 122.674L81.3872 124H81.2129L81.251 123.719ZM80.9771 122.415L81.3242 123.733L81.3491 124H81.166L80.7061 122.415H80.9771ZM82.2266 123.723L82.5576 122.415H82.8271L82.3672 124H82.1855L82.2266 123.723ZM81.8765 122.415L82.2749 123.697L82.3203 124H82.1475L81.7212 122.671L81.686 122.415H81.8765Z" fill="white"/>
<path d="M59.5681 100.115L60.0751 101.147L61.2151 101.312L60.3901 102.116L60.5851 103.25L59.5681 102.713L58.5481 103.25L58.7431 102.116L57.9181 101.312L59.0581 101.147L59.5681 100.115Z" fill="#00A19B"/>
<path d="M63.774 100.115L64.284 101.147L65.421 101.312L64.599 102.116L64.791 103.25L63.774 102.713L62.754 103.25L62.949 102.116L62.124 101.312L63.264 101.147L63.774 100.115Z" fill="#00A19B"/>
<path d="M67.9801 100.115L68.4901 101.147L69.6301 101.312L68.8051 102.116L69.0001 103.25L67.9801 102.713L66.9601 103.25L67.1551 102.116L66.3301 101.312L67.4701 101.147L67.9801 100.115Z" fill="#00A19B"/>
<path d="M72.1861 100.115L72.6961 101.147L73.8361 101.312L73.0111 102.116L73.2061 103.25L72.1861 102.713L71.1661 103.25L71.3611 102.116L70.5391 101.312L71.6761 101.147L72.1861 100.115Z" fill="#00A19B"/>
<path d="M76.392 100.115L76.902 101.147L78.042 101.312L77.217 102.116L77.412 103.25L76.392 102.713L75.375 103.25L75.57 102.116L74.745 101.312L75.885 101.147L76.392 100.115Z" fill="#E0E0E0"/>
<path d="M82.5631 102.507V102.741H81.2221V102.558L81.9841 101.826C82.1791 101.634 82.2181 101.526 82.2181 101.4C82.2181 101.208 82.0831 101.1 81.8191 101.1C81.73 101.094 81.6409 101.11 81.5587 101.145C81.4765 101.18 81.4034 101.233 81.3451 101.301L81.1621 101.145C81.2474 101.05 81.3528 100.975 81.4707 100.926C81.5885 100.878 81.7157 100.856 81.8431 100.863C82.2331 100.863 82.4851 101.061 82.4851 101.382C82.4828 101.495 82.4546 101.607 82.4026 101.709C82.3506 101.81 82.2763 101.898 82.1851 101.967L81.6151 102.516L82.5631 102.507Z" fill="black"/>
<path d="M84.0571 102.192C84.0571 102.492 83.8261 102.762 83.3521 102.762C83.1044 102.769 82.8622 102.688 82.6681 102.534L82.7911 102.324C82.9471 102.458 83.1468 102.529 83.3521 102.525C83.6311 102.525 83.7931 102.396 83.7931 102.192C83.7931 101.988 83.6491 101.868 83.3311 101.868H83.1811V101.682L83.6491 101.106H82.7491V100.875H83.9791V101.055L83.4931 101.655C83.8681 101.7 84.0571 101.904 84.0571 102.192Z" fill="black"/>
<path d="M86.4211 102.74L86.0191 102.167H85.4401V102.737H85.1731V100.871H85.9021C86.3851 100.871 86.6791 101.117 86.6791 101.522C86.6857 101.653 86.6491 101.783 86.5749 101.891C86.5006 102 86.3928 102.081 86.2681 102.122L86.7121 102.749L86.4211 102.74ZM86.4211 101.525C86.4211 101.258 86.2441 101.105 85.9021 101.105H85.4401V101.945H85.8931C86.2351 101.945 86.4001 101.789 86.4001 101.525H86.4211Z" fill="black"/>
<path d="M88.344 102.12H87.198C87.2145 102.24 87.2765 102.35 87.3713 102.427C87.4662 102.503 87.5866 102.54 87.708 102.531C87.7845 102.535 87.8608 102.521 87.9314 102.492C88.002 102.462 88.0651 102.417 88.116 102.36L88.257 102.525C88.1529 102.631 88.0204 102.704 87.8754 102.736C87.7305 102.768 87.5793 102.757 87.4403 102.705C87.3013 102.653 87.1803 102.562 87.0921 102.443C87.0038 102.323 86.9521 102.181 86.943 102.033C86.9393 101.938 86.955 101.844 86.9891 101.756C87.0232 101.667 87.075 101.587 87.1414 101.52C87.2077 101.452 87.2871 101.399 87.3748 101.364C87.4625 101.328 87.5565 101.311 87.651 101.313C87.7462 101.31 87.8408 101.327 87.9289 101.363C88.0169 101.399 88.0964 101.453 88.1623 101.522C88.2282 101.591 88.2789 101.673 88.3112 101.762C88.3436 101.852 88.3568 101.947 88.35 102.042C88.3494 102.068 88.3474 102.094 88.344 102.12ZM87.198 101.934H88.098C88.0806 101.827 88.0257 101.73 87.9433 101.66C87.8608 101.59 87.7562 101.552 87.648 101.552C87.5399 101.552 87.4352 101.59 87.3528 101.66C87.2704 101.73 87.2155 101.827 87.198 101.934Z" fill="black"/>
<path d="M89.9251 101.328L89.3071 102.741H89.0461L88.4281 101.328H88.6951L89.1811 102.459L89.6761 101.328H89.9251Z" fill="black"/>
<path d="M90.1201 100.891C90.1201 100.868 90.1246 100.846 90.1335 100.825C90.1423 100.804 90.1552 100.785 90.1714 100.77C90.1877 100.754 90.2069 100.742 90.228 100.734C90.2491 100.726 90.2716 100.722 90.2941 100.723C90.316 100.722 90.3379 100.726 90.3584 100.733C90.3789 100.741 90.3977 100.753 90.4136 100.768C90.4295 100.783 90.4423 100.801 90.4511 100.821C90.46 100.841 90.4647 100.863 90.4651 100.885C90.4596 100.927 90.439 100.965 90.4073 100.993C90.3756 101.021 90.3348 101.036 90.2926 101.036C90.2504 101.036 90.2097 101.021 90.1779 100.993C90.1462 100.965 90.1256 100.927 90.1201 100.885V100.891ZM90.1651 101.329H90.4201V102.742H90.1651V101.329Z" fill="black"/>
<path d="M92.178 102.12H91.032C91.0492 102.241 91.1118 102.351 91.2071 102.427C91.3024 102.503 91.4233 102.54 91.545 102.531C91.6214 102.534 91.6975 102.52 91.768 102.491C91.8385 102.461 91.9017 102.416 91.953 102.36L92.094 102.525C91.9901 102.632 91.8573 102.706 91.7118 102.738C91.5664 102.771 91.4146 102.761 91.275 102.708C91.1354 102.656 91.014 102.565 90.9255 102.445C90.8371 102.325 90.7855 102.182 90.777 102.033C90.7733 101.938 90.789 101.844 90.8231 101.756C90.8572 101.667 90.909 101.587 90.9754 101.52C91.0417 101.452 91.1211 101.399 91.2088 101.364C91.2964 101.328 91.3904 101.311 91.485 101.313C91.5801 101.31 91.6748 101.327 91.7628 101.363C91.8509 101.399 91.9304 101.453 91.9963 101.522C92.0621 101.591 92.1129 101.673 92.1452 101.762C92.1775 101.852 92.1908 101.947 92.184 102.042C92.1834 102.068 92.1814 102.094 92.178 102.12ZM91.032 101.934H91.932C91.9145 101.827 91.8597 101.73 91.7772 101.66C91.6948 101.59 91.5902 101.552 91.482 101.552C91.3739 101.552 91.2692 101.59 91.1868 101.66C91.1044 101.73 91.0495 101.827 91.032 101.934Z" fill="black"/>
<path d="M94.647 101.328L94.122 102.741H93.876L93.468 101.667L93.054 102.741H92.811L92.286 101.328H92.529L92.937 102.453L93.363 101.328H93.579L93.999 102.456L94.419 101.328H94.647Z" fill="black"/>
<path d="M94.7101 102.599L94.8151 102.395C94.9622 102.492 95.1343 102.543 95.3101 102.542C95.5471 102.542 95.6461 102.47 95.6461 102.35C95.6461 102.035 94.7461 102.308 94.7461 101.75C94.7461 101.495 94.9711 101.324 95.3461 101.324C95.5264 101.321 95.7044 101.366 95.8621 101.453L95.7511 101.654C95.6284 101.579 95.4869 101.541 95.3431 101.543C95.1211 101.543 95.0101 101.627 95.0101 101.738C95.0101 102.071 95.9101 101.801 95.9101 102.338C95.9101 102.596 95.6731 102.758 95.3101 102.758C95.0984 102.769 94.8886 102.714 94.7101 102.599Z" fill="black"/>
<path d="M59.571 110.73V111.3H59.271V110.73C58.8349 110.725 58.4129 110.575 58.071 110.304L58.251 109.92C58.5369 110.158 58.8931 110.296 59.265 110.313V109.176C58.725 109.041 58.155 108.876 58.155 108.201C58.155 107.715 58.503 107.301 59.265 107.229V106.668H59.565V107.226C59.9191 107.233 60.2645 107.337 60.564 107.526L60.402 107.919C60.1499 107.76 59.8623 107.666 59.565 107.646V108.789C60.117 108.927 60.705 109.089 60.705 109.761C60.711 110.244 60.348 110.667 59.571 110.73ZM59.271 108.708V107.646C58.833 107.7 58.641 107.922 58.641 108.183C58.641 108.444 58.905 108.615 59.259 108.708H59.271ZM60.243 109.788C60.243 109.488 59.943 109.35 59.583 109.254V110.31C60.03 110.265 60.231 110.055 60.231 109.8L60.243 109.788Z" fill="black"/>
<path d="M65.46 109.851H64.8V110.7H64.326V109.854H62.415V109.5L64.173 107.25H64.704L63.018 109.422H64.341V108.675H64.8V109.422H65.454L65.46 109.851Z" fill="black"/>
<path d="M65.754 108.979C65.754 107.86 66.354 107.221 67.161 107.221C67.968 107.221 68.559 107.86 68.559 108.979C68.559 110.098 67.959 110.737 67.161 110.737C66.363 110.737 65.754 110.101 65.754 108.979ZM68.07 108.979C68.07 108.1 67.695 107.659 67.17 107.659C66.645 107.659 66.255 108.1 66.255 108.979C66.255 109.858 66.63 110.299 67.17 110.299C67.71 110.299 68.07 109.858 68.07 108.979Z" fill="black"/>
<path d="M68.961 110.4C68.9602 110.355 68.9683 110.311 68.9849 110.27C69.0016 110.229 69.0263 110.192 69.0578 110.161C69.0892 110.13 69.1266 110.106 69.1677 110.089C69.2088 110.073 69.2528 110.065 69.297 110.067C69.3404 110.066 69.3835 110.074 69.4236 110.091C69.4637 110.108 69.5 110.133 69.5303 110.164C69.5606 110.195 69.5842 110.232 69.5998 110.272C69.6154 110.313 69.6226 110.356 69.621 110.4C69.6226 110.443 69.6154 110.487 69.5999 110.528C69.5844 110.569 69.5608 110.606 69.5306 110.637C69.5004 110.669 69.4642 110.694 69.424 110.712C69.3839 110.729 69.3407 110.738 69.297 110.739C69.2525 110.739 69.2084 110.73 69.1672 110.713C69.1261 110.697 69.0888 110.672 69.0574 110.64C69.0261 110.608 69.0014 110.571 68.9849 110.53C68.9683 110.488 68.9602 110.444 68.961 110.4Z" fill="black"/>
<path d="M72.846 109.726C72.846 110.35 72.318 110.737 71.478 110.737C70.638 110.737 70.116 110.35 70.116 109.726C70.1123 109.541 70.1688 109.36 70.2771 109.21C70.3853 109.06 70.5394 108.949 70.716 108.895C70.5703 108.834 70.4463 108.731 70.3605 108.599C70.2748 108.467 70.2314 108.311 70.236 108.154C70.236 107.578 70.731 107.221 71.475 107.221C72.219 107.221 72.72 107.578 72.72 108.154C72.7238 108.312 72.6793 108.468 72.5925 108.6C72.5057 108.732 72.3806 108.835 72.234 108.895C72.4124 108.948 72.5685 109.058 72.6789 109.208C72.7893 109.358 72.848 109.54 72.846 109.726ZM72.357 109.711C72.357 109.333 72.021 109.096 71.478 109.096C70.935 109.096 70.608 109.333 70.608 109.711C70.608 110.089 70.932 110.341 71.478 110.341C72.024 110.341 72.357 110.101 72.357 109.711ZM70.725 108.172C70.725 108.511 71.004 108.724 71.478 108.724C71.952 108.724 72.243 108.511 72.243 108.172C72.243 107.833 71.943 107.617 71.478 107.617C71.013 107.617 70.725 107.83 70.725 108.172Z" fill="black"/>
<path d="M73.2991 108.979C73.2991 107.86 73.8991 107.221 74.7031 107.221C75.5071 107.221 76.1041 107.86 76.1041 108.979C76.1041 110.098 75.5041 110.737 74.7031 110.737C73.9021 110.737 73.2991 110.101 73.2991 108.979ZM75.6121 108.979C75.6121 108.1 75.2401 107.659 74.7121 107.659C74.1841 107.659 73.8121 108.1 73.8121 108.979C73.8121 109.858 74.1841 110.299 74.7121 110.299C75.2401 110.299 75.6001 109.858 75.6001 108.979H75.6121Z" fill="black"/>
<path d="M91.2876 55.7974L62.5566 55.8425C61.4316 55.8443 60.5211 56.7577 60.5229 57.8827L60.5653 84.9217C60.5671 86.0467 61.4805 86.9572 62.6055 86.9555L91.3365 86.9103C92.4615 86.9086 93.3721 85.9951 93.3703 84.8701L93.3278 57.8312C93.326 56.7062 92.4126 55.7956 91.2876 55.7974Z" fill="#00A19B"/>
<path opacity="0.4" d="M74.5053 67.3568L70.2049 69.566C70.0365 69.6525 70.0109 69.9385 70.1477 70.2049L73.436 76.6057C73.5728 76.872 73.8203 77.0177 73.9886 76.9312L78.289 74.722C78.4574 74.6355 78.483 74.3495 78.3462 74.0832L75.0579 67.6824C74.9211 67.4161 74.6737 67.2703 74.5053 67.3568Z" fill="#E0E0E0"/>
<path opacity="0.4" d="M77.3147 65.169L71.3315 66.8241C71.0973 66.8889 70.9904 67.2418 71.0929 67.6123L73.5563 76.5178C73.6588 76.8884 73.9318 77.1362 74.1661 77.0714L80.1492 75.4164C80.3835 75.3516 80.4904 74.9987 80.3879 74.6281L77.9245 65.7226C77.822 65.3521 77.549 65.1042 77.3147 65.169Z" fill="#E0E0E0"/>
<path d="M82.3037 64.2003L74.8435 64.2121C74.5514 64.2125 74.3152 64.5874 74.3159 65.0494L74.3333 76.1535C74.3341 76.6155 74.5715 76.9896 74.8636 76.9892L82.3238 76.9774C82.6159 76.977 82.8521 76.6021 82.8514 76.1401L82.8339 65.036C82.8332 64.574 82.5958 64.1999 82.3037 64.2003Z" fill="#E0E0E0"/>
<path d="M93.5431 110.374H93.5101H93.4861C93.4668 110.367 93.4493 110.356 93.4351 110.341L92.3641 109.246C92.1954 109.079 92.0753 108.87 92.0167 108.64C91.958 108.41 91.963 108.168 92.0311 107.941C92.0761 107.802 92.1551 107.677 92.261 107.576C92.3668 107.476 92.4961 107.403 92.6371 107.365C92.7781 107.327 92.9263 107.325 93.0683 107.359C93.2103 107.393 93.3415 107.462 93.4501 107.56C93.4845 107.596 93.5156 107.635 93.5431 107.677C93.5716 107.633 93.6048 107.591 93.6421 107.554C93.7224 107.479 93.8169 107.421 93.9199 107.384C94.023 107.346 94.1325 107.33 94.2421 107.335C94.4246 107.329 94.6038 107.385 94.7504 107.494C94.897 107.603 95.0023 107.758 95.0491 107.935C95.1178 108.162 95.1231 108.404 95.0644 108.634C95.0057 108.864 94.8853 109.073 94.7161 109.24L93.6451 110.335C93.617 110.36 93.5807 110.374 93.5431 110.374ZM92.8561 107.623C92.7356 107.615 92.6164 107.651 92.5201 107.724C92.4237 107.796 92.3567 107.901 92.3311 108.019C92.278 108.195 92.2743 108.382 92.3203 108.56C92.3664 108.737 92.4604 108.899 92.5921 109.027L93.5551 110.011L94.5181 109.027C94.6494 108.899 94.7434 108.737 94.7899 108.56C94.8364 108.382 94.8337 108.195 94.7821 108.019C94.7559 107.901 94.6887 107.797 94.5925 107.724C94.4963 107.652 94.3774 107.616 94.2571 107.623C94.1858 107.617 94.114 107.626 94.0464 107.649C93.9787 107.672 93.9166 107.709 93.8641 107.758C93.7614 107.882 93.7052 108.038 93.7051 108.199C93.7077 108.224 93.7025 108.249 93.6901 108.271C93.6753 108.301 93.6508 108.326 93.6205 108.341C93.5901 108.355 93.5556 108.359 93.5227 108.352C93.4897 108.345 93.4602 108.327 93.4388 108.3C93.4175 108.274 93.4056 108.242 93.4051 108.208V108.19C93.4052 108.033 93.3487 107.88 93.2461 107.761C93.1944 107.712 93.133 107.674 93.0658 107.65C92.9986 107.627 92.9271 107.617 92.8561 107.623Z" fill="#00A19B"/>
<path d="M88.2691 47.3788C88.2691 47.4208 83.1991 47.4568 76.9501 47.4568C70.7011 47.4568 65.6311 47.4208 65.6311 47.3788C65.6311 47.3368 70.6981 47.3008 76.9501 47.3008C83.2021 47.3008 88.2691 47.3338 88.2691 47.3788Z" fill="#263238"/>
<path d="M85.188 44.2402H68.322V45.2002H85.188V44.2402Z" fill="#00A19B"/>
<path d="M92.2591 95.2479C92.2591 95.2899 85.4041 95.3259 76.9591 95.3259C68.5141 95.3259 61.6591 95.2899 61.6591 95.2479C61.6591 95.2059 68.5141 95.1699 76.9591 95.1699C85.4041 95.1699 92.2591 95.2029 92.2591 95.2479Z" fill="#263238"/>
<path d="M87.951 92.6034C87.951 92.6484 83.025 92.6814 76.95 92.6814C70.875 92.6814 65.946 92.6484 65.946 92.6034C65.946 92.5584 70.872 92.5254 76.95 92.5254C83.028 92.5254 87.951 92.5614 87.951 92.6034Z" fill="#263238"/>
<path d="M97.749 34.3704C97.3752 34.4198 96.998 34.4399 96.621 34.4304C95.919 34.4304 94.941 34.4574 93.84 34.4574H93.765V34.3794C93.744 34.2324 93.723 34.0794 93.702 33.9204C93.513 32.5674 93.357 31.3614 93.267 30.5784L93.321 30.6264C92.9851 30.6342 92.649 30.6151 92.316 30.5694C92.6492 30.5258 92.9852 30.5078 93.321 30.5154H93.369V30.5664C93.498 31.3434 93.669 32.5464 93.867 33.8994C93.888 34.0554 93.909 34.1994 93.93 34.3584L93.843 34.2834C94.944 34.2834 95.922 34.2834 96.624 34.3104C97 34.3048 97.3758 34.3249 97.749 34.3704Z" fill="#263238"/>
<path d="M93.7291 33.5605C93.8278 33.5402 93.9284 33.5311 94.0291 33.5335L94.8661 33.5065C95.5801 33.5065 96.5851 33.4825 97.7491 33.4765L97.6681 33.5455C97.7521 33.0595 97.8421 32.5345 97.9381 31.9915C97.9891 31.7125 98.0371 31.4365 98.0821 31.1755L98.1691 31.2775C96.8161 31.2775 95.6251 31.2775 94.7701 31.2475L93.7621 31.2235C93.6393 31.2263 93.5165 31.2153 93.3961 31.1905C93.5165 31.1661 93.6394 31.156 93.7621 31.1605L94.7701 31.1335C95.6251 31.1335 96.8161 31.1065 98.1691 31.1035H98.2741L98.2561 31.2055C98.2081 31.4695 98.1601 31.7425 98.1121 32.0215C98.0161 32.5645 97.9201 33.0895 97.8331 33.5755V33.6475H97.7611C96.5971 33.6475 95.5921 33.6325 94.8781 33.6175L94.0411 33.5935C93.936 33.5982 93.8309 33.5871 93.7291 33.5605Z" fill="#263238"/>
<path d="M94.8181 35.4329C94.7911 35.4329 94.7881 35.2799 94.6261 35.1719C94.582 35.1437 94.5318 35.1262 94.4797 35.121C94.4276 35.1158 94.3749 35.123 94.3261 35.1419C94.2612 35.1582 94.2037 35.1956 94.1625 35.2484C94.1214 35.3011 94.099 35.366 94.099 35.4329C94.099 35.4998 94.1214 35.5647 94.1625 35.6175C94.2037 35.6702 94.2612 35.7077 94.3261 35.7239C94.3749 35.7429 94.4276 35.75 94.4797 35.7448C94.5318 35.7396 94.582 35.7222 94.6261 35.6939C94.7881 35.5859 94.7911 35.4269 94.8181 35.4329C94.8451 35.4389 94.8451 35.4689 94.8391 35.5379C94.8279 35.6376 94.7784 35.729 94.7011 35.7929C94.6421 35.8435 94.571 35.8779 94.4947 35.8926C94.4184 35.9073 94.3397 35.9019 94.2661 35.8769C94.1683 35.849 94.0823 35.7899 94.021 35.7088C93.9598 35.6276 93.9266 35.5286 93.9266 35.4269C93.9266 35.3252 93.9598 35.2263 94.021 35.1451C94.0823 35.0639 94.1683 35.0049 94.2661 34.9769C94.3397 34.9519 94.4184 34.9465 94.4947 34.9612C94.571 34.976 94.6421 35.0103 94.7011 35.0609C94.7784 35.1248 94.8279 35.2162 94.8391 35.3159C94.8451 35.3999 94.8301 35.4329 94.8181 35.4329Z" fill="#263238"/>
<path d="M97.3351 35.4329C97.3051 35.4329 97.3051 35.2799 97.1431 35.1719C97.0988 35.1439 97.0487 35.1266 96.9966 35.1214C96.9445 35.1162 96.8919 35.1232 96.8431 35.1419C96.7782 35.1582 96.7206 35.1956 96.6795 35.2484C96.6383 35.3011 96.616 35.366 96.616 35.4329C96.616 35.4998 96.6383 35.5647 96.6795 35.6175C96.7206 35.6702 96.7782 35.7077 96.8431 35.7239C96.8919 35.7426 96.9445 35.7497 96.9966 35.7445C97.0487 35.7392 97.0988 35.7219 97.1431 35.6939C97.3051 35.5859 97.3051 35.4269 97.3351 35.4329C97.3651 35.4389 97.3621 35.4689 97.3561 35.5379C97.3448 35.6376 97.2954 35.729 97.2181 35.7929C97.1591 35.8435 97.088 35.8779 97.0117 35.8926C96.9354 35.9073 96.8566 35.9019 96.7831 35.8769C96.6853 35.849 96.5992 35.7899 96.538 35.7088C96.4767 35.6276 96.4436 35.5286 96.4436 35.4269C96.4436 35.3252 96.4767 35.2263 96.538 35.1451C96.5992 35.0639 96.6853 35.0049 96.7831 34.9769C96.8566 34.9519 96.9354 34.9465 97.0117 34.9612C97.088 34.976 97.1591 35.0103 97.2181 35.0609C97.2954 35.1248 97.3448 35.2162 97.3561 35.3159C97.3621 35.3999 97.3441 35.4329 97.3351 35.4329Z" fill="#263238"/>
<path d="M99.9361 30.9502C99.9361 31.2796 99.8384 31.6016 99.6553 31.8755C99.4722 32.1494 99.212 32.3628 98.9076 32.4887C98.6031 32.6146 98.2682 32.6474 97.9451 32.5829C97.6221 32.5185 97.3254 32.3596 97.0927 32.1264C96.86 31.8933 96.7016 31.5963 96.6377 31.2731C96.5738 30.95 96.6072 30.6151 96.7337 30.3109C96.8602 30.0067 97.074 29.7469 97.3482 29.5643C97.6224 29.3817 97.9446 29.2846 98.2741 29.2852C98.4926 29.2852 98.709 29.3282 98.9108 29.412C99.1126 29.4957 99.296 29.6184 99.4504 29.773C99.6047 29.9277 99.7271 30.1112 99.8104 30.3132C99.8938 30.5152 99.9365 30.7316 99.9361 30.9502Z" fill="#00A19B"/>
<path d="M98.4271 30.2793V31.6233H98.2381V30.4473H97.9381V30.2793H98.4271Z" fill="white"/>
</svg>
