<svg width="116" height="116" viewBox="0 0 116 116" fill="none" xmlns="http://www.w3.org/2000/svg">
<path d="M44.1477 12.0833C31.262 12.3733 23.7365 13.6058 18.5939 18.7291C14.0892 23.2144 12.586 29.5219 12.0834 39.6333M71.8524 12.0833C84.738 12.3733 92.2635 13.6058 97.4062 18.7291C101.911 23.2144 103.414 29.5219 103.917 39.6333M71.8524 103.917C84.738 103.627 92.2635 102.394 97.4062 97.2708C101.911 92.7854 103.414 86.4779 103.917 76.3666M44.1477 103.917C31.262 103.627 23.7365 102.394 18.5939 97.2708C14.0892 92.7854 12.586 86.4779 12.0834 76.3666M36.25 82.1666C47.5214 70.3636 68.3579 69.8078 79.75 82.1666M70.0592 45.9166C70.0592 52.5866 64.6459 57.9999 57.9614 57.9999C56.3729 58.0025 54.7996 57.6918 53.3313 57.0857C51.8631 56.4796 50.5288 55.5899 49.4047 54.4676C48.2806 53.3453 47.3888 52.0124 46.7803 50.5451C46.1719 49.0779 45.8587 47.505 45.8587 45.9166C45.8587 39.2466 51.272 33.8333 57.9614 33.8333C59.5494 33.8313 61.1222 34.1425 62.5899 34.7489C64.0576 35.3553 65.3914 36.245 66.515 37.3672C67.6385 38.4895 68.5299 39.8222 69.138 41.2891C69.7462 42.7561 70.0592 44.3286 70.0592 45.9166Z" stroke="#4A4A4A" stroke-width="3" stroke-linecap="round" stroke-linejoin="round"/>
</svg>
