<svg width="33" height="25" viewBox="0 0 33 25" fill="none" xmlns="http://www.w3.org/2000/svg">
<path fill-rule="evenodd" clip-rule="evenodd" d="M13.376 17.9697H19.7546V6.45508H13.376V17.9697Z" fill="#EB611C"/>
<path fill-rule="evenodd" clip-rule="evenodd" d="M13.7805 12.2152C13.7805 9.87924 14.8685 7.79924 16.5645 6.46058C15.3218 5.47924 13.7591 4.89258 12.0578 4.89258C8.03646 4.89258 4.77246 8.16724 4.77246 12.2152C4.77246 16.2632 8.03646 19.5379 12.0631 19.5379C13.7645 19.5379 15.3271 18.9512 16.5698 17.9699C14.8685 16.6312 13.7805 14.5512 13.7805 12.2152Z" fill="#E41221"/>
<path fill-rule="evenodd" clip-rule="evenodd" d="M28.1334 16.7486V16.4659H28.0588L27.9734 16.6632L27.8881 16.4659H27.8134V16.7486H27.8668V16.5352L27.9468 16.7219H28.0001L28.0801 16.5352V16.7486H28.1334ZM27.6641 16.7486V16.5139H27.7601V16.4659H27.5201V16.5139H27.6161V16.7486H27.6641ZM28.3628 12.2152C28.3628 16.2579 25.0988 19.5379 21.0721 19.5379C19.3708 19.5379 17.8081 18.9512 16.5654 17.9699C18.2614 16.6312 19.3494 14.5512 19.3494 12.2152C19.3494 9.87924 18.2614 7.79924 16.5654 6.46058C17.8028 5.47924 19.3708 4.89258 21.0721 4.89258C25.0988 4.89258 28.3628 8.16724 28.3628 12.2152Z" fill="#F59E1E"/>
</svg>
