<svg width="202" height="209" viewBox="0 0 202 209" fill="none" xmlns="http://www.w3.org/2000/svg">
<g clip-path="url(#clip0_293_4637)">
<path d="M9.39739 13.7111L15.7039 13.576L18.9052 13.5229C19.9771 13.5229 21.049 13.5229 22.1257 13.5229H22.3372V13.74L22.3661 19.1386V19.3798H22.1257L15.776 19.3219C13.6514 19.3219 11.5316 19.2689 9.41181 19.2399H9.27722V19.1097C9.27722 18.193 9.32048 17.286 9.33971 16.3838L9.39739 13.7111ZM9.39739 13.7111L9.46469 16.4417C9.46469 17.3391 9.51756 18.2268 9.52717 19.1097L9.39739 18.9794C11.5172 18.9794 13.637 18.9022 15.7616 18.9022L22.1257 18.8684L21.8854 19.1097L21.9094 13.7111L22.1257 13.9282C21.073 13.9282 20.03 13.9282 18.9773 13.8993L15.8144 13.8462L9.39739 13.7111Z" fill="#EBEBEB"/>
<path d="M16.4969 6.90373L22.8034 6.76865L26.0047 6.71558C27.0766 6.71558 28.1533 6.71558 29.2252 6.71558H29.4367V6.93268L29.4656 12.3312V12.5725H29.2348L22.8611 12.5049C20.7365 12.5049 18.6167 12.4518 16.4969 12.4229H16.3623V12.2926C16.3623 11.376 16.4056 10.469 16.4248 9.56683L16.4969 6.90373ZM16.4969 6.90373L16.5642 9.63437C16.5642 10.5317 16.6171 11.4194 16.6267 12.3023L16.4969 12.172C18.6167 12.172 20.7365 12.0948 22.8611 12.0948L29.2348 12.0611L28.9945 12.3023V6.90373L29.2108 7.12083C28.1629 7.12083 27.1151 7.12083 26.0624 7.09188L22.8995 7.03881L16.4969 6.90373Z" fill="#EBEBEB"/>
<path d="M28.8408 76.265L35.1473 76.1299L38.3486 76.0768C39.4205 76.0527 40.4972 76.0768 41.5691 76.0479H41.7806V76.265L41.8094 81.6635V81.9047H41.5691L35.2049 81.871C33.0803 81.871 30.9606 81.8179 28.8408 81.7938H28.7062V81.6635C28.7062 80.7469 28.7494 79.835 28.7687 78.9329L28.8408 76.265ZM28.8408 76.265L28.9081 78.9908C28.9081 79.8881 28.9609 80.7806 28.9705 81.6635L28.8408 81.5284C30.9606 81.5284 33.0803 81.4512 35.2049 81.4512L41.5691 81.4223L41.3288 81.6635V76.265L41.5451 76.4772C40.4924 76.4772 39.4493 76.4772 38.3966 76.4772L35.2338 76.4242L28.8408 76.265Z" fill="#EBEBEB"/>
<path d="M35.9644 69.4576L42.2709 69.3225L45.4722 69.2694C46.5441 69.2694 47.6208 69.2694 48.6928 69.2405H48.9043V69.4576L48.9331 74.8561V75.0974H48.6928L42.3286 75.0636C40.204 75.0636 38.0842 75.0105 35.9644 74.9864H35.8298V74.8561C35.8298 73.9395 35.8731 73.0277 35.8971 72.1255L35.9644 69.4576ZM35.9644 69.4576L36.0317 72.1834C36.0317 73.0807 36.0846 73.9733 36.0942 74.8561L35.9644 74.7403C38.0842 74.7162 40.204 74.668 42.3286 74.6632L48.6928 74.6342L48.4524 74.8754V69.4769L48.6687 69.6891C47.6208 69.6891 46.573 69.6891 45.5203 69.665L42.3574 69.612L35.9644 69.4576Z" fill="#EBEBEB"/>
<path d="M2.3169 6.90373L8.6282 6.76865L11.8055 6.71558C12.8726 6.71558 13.9493 6.71558 15.0212 6.71558H15.2375V6.93268L15.2615 12.3312V12.5725H15.0164L8.65704 12.5049C6.53725 12.5049 4.41746 12.4518 2.29287 12.4229H2.16309V12.2926C2.16309 11.376 2.20635 10.469 2.22557 9.56683L2.3169 6.90373ZM2.3169 6.90373L2.389 9.63437C2.389 10.5317 2.44188 11.4194 2.45149 12.3023L2.3169 12.172C4.4415 12.172 6.56128 12.0948 8.68107 12.0948L15.0452 12.0611L14.8049 12.3023L14.8145 6.90373L15.026 7.12083C13.9781 7.12083 12.9351 7.12083 11.8824 7.09188L8.71952 7.03881L2.3169 6.90373Z" fill="#EBEBEB"/>
<path d="M191.353 124.148L185.046 124.283L181.845 124.341C180.773 124.341 179.701 124.341 178.625 124.365H178.413V124.148L178.384 118.754V118.508H178.625L184.989 118.537C187.113 118.537 189.233 118.59 191.353 118.614H191.488V118.744C191.488 119.656 191.444 120.568 191.425 121.47L191.353 124.148ZM191.353 124.148L191.286 121.422C191.286 120.524 191.233 119.637 191.223 118.754L191.353 118.884C189.233 118.908 187.113 118.961 184.989 118.961L178.625 118.99L178.865 118.754L178.841 124.148L178.625 123.935C179.677 123.935 180.72 123.935 181.773 123.935L184.936 123.993L191.353 124.148Z" fill="#EBEBEB"/>
<path d="M198.457 130.955L192.146 131.09L188.945 131.148C187.873 131.148 186.801 131.148 185.729 131.172H185.513V130.955L185.489 125.556V125.315H185.734L192.098 125.344C194.218 125.344 196.338 125.397 198.462 125.421H198.592V125.547C198.592 126.463 198.549 127.375 198.529 128.277L198.457 130.955ZM198.457 130.955L198.385 128.229C198.385 127.332 198.332 126.444 198.323 125.556L198.457 125.691C196.333 125.715 194.213 125.769 192.093 125.769L185.729 125.798L185.969 125.556L185.936 130.955L185.724 130.743C186.772 130.743 187.815 130.743 188.868 130.767L192.031 130.825L198.457 130.955Z" fill="#EBEBEB"/>
<path d="M22.2314 130.955L15.9249 131.09L12.7236 131.148C11.6517 131.148 10.5749 131.148 9.50303 131.172H9.29153V130.955L9.2627 125.556V125.315H9.52707L15.8912 125.344C18.0158 125.344 20.1356 125.397 22.2554 125.421H22.39V125.547C22.39 126.463 22.3467 127.375 22.3227 128.277L22.2314 130.955ZM22.2314 130.955L22.1641 128.229C22.1641 127.332 22.1112 126.444 22.1016 125.556L22.2314 125.691C20.1116 125.715 17.9918 125.769 15.8672 125.769L9.52707 125.798L9.76741 125.556L9.74337 130.955L9.52707 130.743C10.5749 130.743 11.6228 130.743 12.6755 130.767L15.8384 130.825L22.2314 130.955Z" fill="#EBEBEB"/>
<path d="M178.572 6.90373L184.883 6.76865L188.084 6.71558C189.151 6.71558 190.228 6.71558 191.3 6.71558H191.516V6.93268L191.54 12.3312V12.5725H191.3L184.936 12.5049C182.816 12.5049 180.691 12.4518 178.572 12.4229H178.442V12.2926C178.442 11.376 178.48 10.469 178.504 9.56683L178.572 6.90373ZM178.572 6.90373L178.639 9.63437C178.663 10.5317 178.697 11.4194 178.701 12.3023L178.572 12.172C180.691 12.172 182.816 12.0948 184.936 12.0948L191.3 12.0611L191.06 12.3023L191.089 6.90373L191.3 7.12083C190.252 7.12083 189.204 7.12083 188.156 7.09188L184.974 7.03881L178.572 6.90373Z" fill="#EBEBEB"/>
<path d="M196.833 90.0725H132.835V0.37146H196.833V90.0725ZM134.734 88.1668H194.934V2.27712H134.734V88.1668Z" fill="#EBEBEB"/>
<path d="M165.786 2.77405H163.887V89.1172H165.786V2.77405Z" fill="#EBEBEB"/>
<path d="M198.558 4.2262H131.115V6.87964H198.558V4.2262Z" fill="#EBEBEB"/>
<path d="M198.558 7.21252H131.115V9.86597H198.558V7.21252Z" fill="#EBEBEB"/>
<path d="M198.558 10.1989H131.115V12.8523H198.558V10.1989Z" fill="#EBEBEB"/>
<path d="M198.558 13.1804H131.115V15.8339H198.558V13.1804Z" fill="#EBEBEB"/>
<path d="M198.558 16.1667H131.115V18.8202H198.558V16.1667Z" fill="#EBEBEB"/>
<path d="M198.558 19.1531H131.115V21.8065H198.558V19.1531Z" fill="#EBEBEB"/>
<path d="M198.558 22.1394H131.115V24.7929H198.558V22.1394Z" fill="#EBEBEB"/>
<path d="M198.558 25.1257H131.115V27.7792H198.558V25.1257Z" fill="#EBEBEB"/>
<path d="M198.558 28.1121H131.115V30.7655H198.558V28.1121Z" fill="#EBEBEB"/>
<path d="M192.915 3.68591H192.439V55.3317H192.915V3.68591Z" fill="#263238"/>
<path d="M193.521 57.5509H191.838L192.261 55.1194H193.098L193.521 57.5509Z" fill="#263238"/>
<path d="M194.626 3.68591H194.15V68.3577H194.626V3.68591Z" fill="#263238"/>
<path d="M195.232 70.1475H193.545L193.968 67.7159H194.809L195.232 70.1475Z" fill="#263238"/>
<path d="M201.505 0H128.168V5.55294H201.505V0Z" fill="#DBDBDB"/>
<path d="M54.2493 31.8414H0.5V35.0449H54.2493V31.8414Z" fill="#EBEBEB"/>
<path d="M7.77263 35.0448H4.58093V45.6393H7.77263V35.0448Z" fill="#EBEBEB"/>
<path d="M7.77263 35.0448H4.58093V38.3206H7.77263V35.0448Z" fill="#DBDBDB"/>
<path d="M50.1684 35.0448H46.9767V45.6393H50.1684V35.0448Z" fill="#EBEBEB"/>
<path d="M50.1684 35.0448H46.9767V38.3206H50.1684V35.0448Z" fill="#DBDBDB"/>
<path d="M12.6179 31.8414L12.6179 11.4243H7.4939L7.4939 31.8414H12.6179Z" fill="#C7C7C7"/>
<path d="M12.6179 12.5821V10.3387H7.4939V12.5821H12.6179Z" fill="#DBDBDB"/>
<path d="M12.6179 16.2874V15.4528H7.4939V16.2874H12.6179Z" fill="#DBDBDB"/>
<path d="M13.2572 29.1638V26.9204H7.49869V29.1638H13.2572Z" fill="#DBDBDB"/>
<path d="M16.1941 31.8413V8.02783H12.613L12.613 31.8413H16.1941Z" fill="#DBDBDB"/>
<path d="M15.4635 19.4281V10.2665H13.3149V19.4281H15.4635Z" fill="#EBEBEB"/>
<path d="M41.6615 29.2926L24.7882 12.5511L22.2707 15.1072L39.144 31.8486L41.6615 29.2926Z" fill="#C7C7C7"/>
<path d="M37.2091 25.8655L30.7175 19.4247L29.207 20.9583L35.6986 27.3992L37.2091 25.8655Z" fill="#DBDBDB"/>
<path d="M22.2747 31.8461V13.7593H16.1941V31.8461H22.2747Z" fill="#A6A6A6"/>
<path d="M22.2747 29.926V28.2423H16.1941V29.926H22.2747Z" fill="#C7C7C7"/>
<path d="M22.2747 27.1376V26.4814H16.1941V27.1376H22.2747Z" fill="#C7C7C7"/>
<path d="M7.49866 31.851L7.49866 14.8496H3.29754L3.29754 31.851H7.49866Z" fill="#A6A6A6"/>
<path d="M7.49866 30.0419V28.4595H3.29754V30.0419H7.49866Z" fill="#C7C7C7"/>
<path d="M7.4939 19.9298V18.3474H3.29278V19.9298H7.4939Z" fill="#C7C7C7"/>
<path d="M7.4939 21.6328V21.0201H3.29277V21.6328H7.4939Z" fill="#C7C7C7"/>
<path d="M197.145 196.601C197.145 203.447 153.817 209 100.375 209C46.9335 209 3.60522 203.447 3.60522 196.601C3.60522 189.755 46.9335 184.202 100.375 184.202C153.817 184.202 197.145 189.755 197.145 196.601Z" fill="#EBEBEB"/>
<path d="M0.5 168.108L25.4712 167.992L50.4376 167.949L100.375 167.867L150.313 167.949L175.284 167.992L200.25 168.108L175.284 168.229L150.313 168.272L100.375 168.349L50.4376 168.272L25.4712 168.229L0.5 168.108Z" fill="#263238"/>
<path d="M160.566 181.004V12.8571C160.566 9.42264 157.792 6.63843 154.37 6.63843L46.3855 6.63843C42.9636 6.63843 40.1896 9.42264 40.1896 12.8571L40.1896 181.004C40.1896 184.438 42.9636 187.222 46.3855 187.222H154.37C157.792 187.222 160.566 184.438 160.566 181.004Z" fill="#263238"/>
<path d="M155.485 19.2784H45.4049V174.693H155.485V19.2784Z" fill="white"/>
<path d="M113.474 14.3093V13.6387C113.474 13.3056 113.205 13.0356 112.873 13.0356L87.8776 13.0356C87.5457 13.0356 87.2767 13.3056 87.2767 13.6387V14.3093C87.2767 14.6424 87.5457 14.9124 87.8776 14.9124L112.873 14.9124C113.205 14.9124 113.474 14.6424 113.474 14.3093Z" fill="#37474F"/>
<path d="M100.375 184.202C102.247 184.202 103.764 182.679 103.764 180.801C103.764 178.923 102.247 177.4 100.375 177.4C98.5037 177.4 96.9865 178.923 96.9865 180.801C96.9865 182.679 98.5037 184.202 100.375 184.202Z" fill="#37474F"/>
<path d="M138.527 145.631H62.368V146.707H138.527V145.631Z" fill="#EBEBEB"/>
<path d="M138.527 148.964H62.368V150.04H138.527V148.964Z" fill="#EBEBEB"/>
<path d="M80.8886 160.553C82.8318 160.553 84.4071 158.972 84.4071 157.021C84.4071 155.071 82.8318 153.49 80.8886 153.49C78.9453 153.49 77.37 155.071 77.37 157.021C77.37 158.972 78.9453 160.553 80.8886 160.553Z" fill="#33B4AF"/>
<path d="M80.9413 159.077L78.8456 156.949L79.5522 156.249L80.7779 157.494L83.3207 153.49L84.1571 154.025L80.9413 159.077Z" fill="white"/>
<path d="M89.6945 156.988C89.6968 156.734 89.7423 156.483 89.8291 156.245C89.9182 156.002 90.0537 155.779 90.2281 155.588C90.4135 155.378 90.6425 155.211 90.899 155.098C91.1556 154.986 91.4335 154.931 91.7134 154.937C92.0506 154.931 92.3831 155.018 92.6747 155.188C92.9359 155.34 93.1478 155.565 93.2852 155.835L92.6844 156.274C92.6364 156.165 92.5697 156.065 92.4873 155.979C92.4147 155.905 92.3322 155.842 92.2421 155.791C92.1537 155.746 92.0601 155.712 91.9633 155.69C91.87 155.671 91.775 155.661 91.6797 155.661C91.4993 155.656 91.3206 155.698 91.1606 155.781C91.0158 155.857 90.8895 155.965 90.7905 156.095C90.6914 156.227 90.6166 156.376 90.5694 156.534C90.4605 156.863 90.4605 157.218 90.5694 157.547C90.6229 157.709 90.706 157.86 90.8145 157.991C90.9206 158.117 91.0494 158.222 91.1943 158.3C91.3431 158.376 91.5078 158.416 91.6749 158.416C91.7722 158.414 91.869 158.401 91.9633 158.377C92.0627 158.356 92.1583 158.32 92.2469 158.271C92.3384 158.218 92.4224 158.153 92.4969 158.078C92.5757 157.993 92.6391 157.895 92.6844 157.788L93.3333 158.165C93.2688 158.319 93.174 158.458 93.0545 158.575C92.9339 158.693 92.7961 158.792 92.6459 158.869C92.34 159.034 91.9981 159.12 91.6509 159.12C91.3728 159.122 91.098 159.059 90.8482 158.937C90.611 158.818 90.3988 158.654 90.2233 158.454C90.0484 158.255 89.91 158.026 89.8147 157.779C89.7234 157.525 89.6826 157.257 89.6945 156.988Z" fill="#33B4AF"/>
<path d="M95.6069 159.101C95.3244 159.105 95.0448 159.044 94.7897 158.922C94.3121 158.69 93.942 158.283 93.7563 157.784C93.6609 157.539 93.612 157.279 93.6121 157.017C93.6119 156.747 93.6642 156.48 93.7659 156.23C93.8636 155.985 94.0053 155.759 94.1841 155.564C94.3647 155.364 94.5816 155.201 94.8234 155.082C95.0757 154.968 95.3495 154.911 95.6261 154.913C95.9061 154.908 96.1831 154.971 96.4336 155.096C96.6735 155.214 96.8876 155.378 97.0633 155.579C97.2478 155.782 97.3929 156.017 97.4911 156.274C97.5857 156.517 97.6346 156.775 97.6353 157.036C97.6355 157.306 97.5832 157.573 97.4815 157.822C97.3873 158.067 97.2469 158.292 97.0681 158.483C96.8881 158.674 96.6726 158.829 96.4336 158.937C96.1741 159.054 95.8913 159.11 95.6069 159.101ZM94.4196 157.017C94.4201 157.192 94.4477 157.366 94.5013 157.533C94.5519 157.692 94.63 157.84 94.732 157.972C94.8363 158.098 94.9636 158.203 95.107 158.281C95.2638 158.358 95.437 158.396 95.6117 158.392C95.7899 158.395 95.9663 158.355 96.126 158.276C96.2706 158.197 96.3981 158.091 96.5009 157.962C96.6021 157.828 96.6801 157.678 96.7317 157.518C96.7792 157.362 96.8051 157.199 96.8086 157.036C96.8091 156.86 96.7799 156.686 96.722 156.52C96.6708 156.36 96.591 156.211 96.4865 156.081C96.3869 155.951 96.2585 155.847 96.1116 155.777C95.9623 155.702 95.7976 155.664 95.6309 155.666C95.4542 155.662 95.2794 155.702 95.1214 155.782C94.9734 155.855 94.8448 155.962 94.7465 156.095C94.6444 156.227 94.5663 156.375 94.5157 156.534C94.4595 156.689 94.4271 156.852 94.4196 157.017Z" fill="#33B4AF"/>
<path d="M99.0148 156.438V159.072H98.2217V154.961H98.8369L100.971 157.658V154.966H101.769V159.072H101.12L99.0148 156.438Z" fill="#33B4AF"/>
<path d="M102.62 159.072V154.961H105.374V155.661H103.418V156.722H105.042V157.369H103.418V159.072H102.62Z" fill="#33B4AF"/>
<path d="M105.932 159.072V154.961H106.73V159.072H105.932Z" fill="#33B4AF"/>
<path d="M107.585 159.072V154.961H109.397C109.579 154.96 109.758 154.999 109.921 155.077C110.076 155.157 110.216 155.263 110.335 155.391C110.448 155.521 110.539 155.67 110.604 155.83C110.666 155.983 110.699 156.147 110.7 156.312C110.704 156.569 110.636 156.821 110.503 157.041C110.38 157.255 110.191 157.425 109.965 157.523L110.897 159.072H109.989L109.152 157.692H108.369V159.072H107.585ZM108.383 156.992H109.383C109.454 156.994 109.524 156.976 109.585 156.939C109.649 156.905 109.705 156.857 109.748 156.799C109.798 156.736 109.836 156.664 109.859 156.587C109.888 156.503 109.903 156.415 109.902 156.327C109.902 156.236 109.885 156.146 109.854 156.061C109.826 155.983 109.784 155.911 109.729 155.849C109.679 155.792 109.619 155.744 109.551 155.709C109.487 155.677 109.416 155.66 109.345 155.661H108.383V156.992Z" fill="#33B4AF"/>
<path d="M114.757 159.072V156.351L113.704 158.377H113.272L112.214 156.351V159.072H111.431V154.961H112.286L113.498 157.301L114.719 154.961H115.569V159.072H114.757Z" fill="#33B4AF"/>
<path d="M119.251 158.372V159.072H116.406V154.961H119.198V155.661H117.199V156.626H118.925V157.277H117.199V158.348L119.251 158.372Z" fill="#33B4AF"/>
<path d="M119.876 159.072V154.961H121.362C121.663 154.954 121.963 155.01 122.241 155.125C122.482 155.223 122.699 155.373 122.876 155.564C123.046 155.753 123.175 155.974 123.255 156.216C123.431 156.75 123.431 157.327 123.255 157.861C123.167 158.102 123.029 158.322 122.849 158.505C122.669 158.689 122.452 158.831 122.212 158.922C121.946 159.026 121.662 159.077 121.376 159.072H119.876ZM122.578 157.012C122.581 156.827 122.554 156.642 122.496 156.467C122.449 156.308 122.368 156.162 122.26 156.037C122.156 155.916 122.027 155.821 121.881 155.757C121.715 155.692 121.539 155.659 121.362 155.661H120.669V158.372H121.362C121.542 158.374 121.72 158.338 121.885 158.266C122.032 158.201 122.161 158.104 122.265 157.981C122.37 157.854 122.448 157.706 122.496 157.547C122.553 157.375 122.581 157.194 122.578 157.012Z" fill="#33B4AF"/>
<path d="M138.527 40.6218H62.368V41.6977H138.527V40.6218Z" fill="#EBEBEB"/>
<path d="M138.527 43.9603H62.368V45.0362H138.527V43.9603Z" fill="#EBEBEB"/>
<path d="M130.485 138.134H70.2655V87.0042L100.37 67.8125L130.485 87.0042V138.134Z" fill="#00A19B"/>
<path opacity="0.2" d="M130.485 138.134H70.2655V87.0042L100.37 67.8125L130.485 87.0042V138.134Z" fill="black"/>
<path d="M127.086 65.381H73.6591V134.221H127.086V65.381Z" fill="#EBEBEB"/>
<path d="M97.1209 106.567L84.8877 94.1395L88.9975 90.0676L96.1452 97.3236L110.993 73.9636L115.863 77.085L97.1209 106.567Z" fill="#66C7C3"/>
<path d="M130.485 99.8275V138.134H70.2655V99.8275C72.8515 101.275 75.3943 102.838 77.9563 104.343C80.5183 105.848 83.0563 107.412 85.5895 108.975C88.4111 110.697 91.2326 112.453 94.0446 114.219L94.1359 114.166C94.1071 114.166 94.0879 114.214 94.0638 114.229C96.166 115.531 98.2698 116.842 100.375 118.16C102.471 116.834 104.581 115.497 106.686 114.19C106.662 114.19 106.643 114.146 106.614 114.127C106.643 114.147 106.673 114.163 106.706 114.175C109.516 112.416 112.334 110.666 115.161 108.926C117.696 107.373 120.237 105.832 122.784 104.305C125.37 102.814 127.899 101.275 130.485 99.8275Z" fill="#33B4AF"/>
<g opacity="0.2">
<path d="M130.485 99.8275C128.053 101.54 125.577 103.205 123.126 104.874C120.674 106.543 118.179 108.174 115.689 109.809C113.094 111.517 110.493 113.209 107.888 114.885L107.653 115.049L100.716 119.487L100.37 119.695L100.034 119.487L93.1073 115.039L92.8621 114.885C90.2505 113.206 87.6468 111.511 85.0511 109.8C82.5708 108.174 80.0954 106.524 77.6247 104.874C75.154 103.224 72.6977 101.516 70.2655 99.8275C72.8515 101.275 75.3943 102.838 77.9563 104.343C80.5183 105.848 83.0563 107.412 85.5895 108.975C88.4111 110.697 91.2326 112.453 94.0446 114.219C96.1596 115.528 98.2698 116.842 100.375 118.16C102.471 116.834 104.581 115.497 106.686 114.19C109.497 112.431 112.315 110.681 115.142 108.941C117.676 107.387 120.217 105.847 122.765 104.319C125.37 102.814 127.899 101.275 130.485 99.8275Z" fill="black"/>
<path d="M94.1263 114.142C94.0975 114.142 94.0782 114.19 94.0542 114.204L93.0928 115.015C91.5835 116.293 90.0357 117.519 88.4639 118.71C86.5412 120.158 84.5849 121.605 82.6141 122.985C80.6433 124.365 78.6437 125.716 76.6056 127.023C74.5675 128.33 72.5199 129.609 70.3953 130.781C72.2218 129.175 74.1205 127.674 76.0384 126.217C77.9563 124.76 79.9271 123.323 81.8883 121.938C83.8494 120.553 85.8683 119.198 87.9015 117.89C89.5214 116.848 91.1701 115.821 92.8477 114.861C93.237 114.634 93.6264 114.417 94.0254 114.195L94.1263 114.142Z" fill="black"/>
<path d="M130.341 130.781C128.216 129.609 126.154 128.33 124.13 127.023C122.107 125.716 120.083 124.355 118.112 122.985C116.141 121.615 114.18 120.177 112.262 118.71C110.7 117.519 109.152 116.298 107.653 115.025L106.691 114.204C106.667 114.204 106.648 114.161 106.619 114.142C106.647 114.162 106.678 114.178 106.71 114.19C107.109 114.417 107.499 114.634 107.888 114.861C109.566 115.825 111.205 116.848 112.834 117.89C114.868 119.198 116.858 120.558 118.838 121.938C120.818 123.318 122.77 124.746 124.688 126.217C126.606 127.689 128.514 129.175 130.341 130.781Z" fill="black"/>
</g>
<path d="M74.6108 62.1003C74.2904 59.4485 74.2904 56.7676 74.6108 54.1158C74.9313 56.7676 74.9313 59.4485 74.6108 62.1003Z" fill="#263238"/>
<path d="M71.2269 63.3691C70.1733 62.5533 69.1761 61.6667 68.2419 60.7156C67.2931 59.7808 66.4098 58.7814 65.5981 57.7245C67.6933 59.3725 69.5831 61.2677 71.2269 63.3691Z" fill="#263238"/>
<path d="M69.7319 66.6642C68.4123 66.8359 67.0825 66.9165 65.7519 66.9054C64.423 66.9203 63.0946 66.8414 61.7767 66.6691C63.0945 66.495 64.4229 66.4144 65.7519 66.4278C67.0824 66.4152 68.4122 66.4942 69.7319 66.6642Z" fill="#263238"/>
<path d="M70.9961 70.0558C69.3524 72.1571 67.4643 74.0537 65.3722 75.7053C67.0122 73.5993 68.9006 71.7007 70.9961 70.051V70.0558Z" fill="#263238"/>
<path d="M125.779 62.1003C125.612 60.7755 125.533 59.441 125.543 58.1057C125.534 56.7717 125.616 55.4386 125.789 54.1158C126.109 56.7676 126.109 59.4485 125.789 62.1003H125.779Z" fill="#263238"/>
<path d="M129.163 63.3691C130.807 61.2677 132.696 59.3725 134.792 57.7245C133.98 58.7814 133.097 59.7808 132.148 60.7156C131.214 61.6667 130.216 62.5533 129.163 63.3691Z" fill="#263238"/>
<path d="M130.658 66.6643C131.978 66.4942 133.307 66.4152 134.638 66.4279C135.967 66.4143 137.295 66.4949 138.613 66.6691C137.295 66.8415 135.967 66.9205 134.638 66.9055C133.307 66.9165 131.977 66.8359 130.658 66.6643Z" fill="#263238"/>
<path d="M129.394 70.0558C131.489 71.7039 133.377 73.6009 135.017 75.7052C133.966 74.8875 132.97 73.9994 132.037 73.047C131.089 72.112 130.205 71.1126 129.394 70.0558Z" fill="#263238"/>
<path d="M61.5797 201.681C60.5414 202.019 30.9653 201.633 29.855 200.9C29.4272 200.63 29.2301 196.302 29.1436 191.063V190.899C29.1436 189.823 29.1099 188.708 29.1051 187.584C29.1051 187.43 29.1051 187.275 29.1051 187.102L30.5471 171.702L50.3318 171.9L48.3755 187.155V187.758L48.2553 190.913V191.241C48.2553 191.241 59.5127 196.471 60.6568 197.407C61.8008 198.343 62.6131 201.353 61.5797 201.681Z" fill="#F7A9A0"/>
<path d="M61.5797 201.681C60.5414 202.019 30.9653 201.633 29.855 200.9C29.4272 200.63 29.2301 196.302 29.1436 191.063V190.899C29.1436 189.823 29.1099 188.708 29.1051 187.584C29.1051 187.43 29.1051 187.275 29.1051 187.102L48.3706 187.155V187.758L48.2505 190.913V191.241C48.2505 191.241 59.5079 196.471 60.6519 197.407C61.796 198.343 62.6131 201.353 61.5797 201.681Z" fill="#EBEBEB"/>
<path d="M61.6661 201.754C60.6183 202.091 30.773 201.807 29.6434 201.073C29.2108 200.798 28.9993 196.432 28.8936 191.15L48.1206 191.28C48.1206 191.28 59.4983 196.519 60.6567 197.455C61.8151 198.391 62.7092 201.411 61.6661 201.754Z" fill="#FFC727"/>
<path d="M61.248 200.552C56.2489 200.379 36.0557 200.162 31.0999 200.374C31.0614 200.374 31.0614 200.403 31.0999 200.408C36.0557 200.683 56.2441 200.736 61.248 200.634C61.3537 200.63 61.3537 200.552 61.248 200.552Z" fill="#263238"/>
<path d="M58.7581 196.36C58.2023 196.341 57.6486 196.438 57.1317 196.644C56.6147 196.85 56.1457 197.16 55.7539 197.556C55.0461 198.268 54.6368 199.224 54.6099 200.229C54.6099 200.258 54.6675 200.258 54.6724 200.229C54.8511 199.236 55.346 198.328 56.0828 197.642C56.8195 196.956 57.7583 196.528 58.7581 196.423C58.7632 196.425 58.7687 196.425 58.7742 196.425C58.7797 196.424 58.7849 196.422 58.7895 196.419C58.794 196.416 58.7977 196.412 58.8003 196.407C58.8029 196.402 58.8042 196.397 58.8042 196.391C58.8042 196.386 58.8029 196.38 58.8003 196.375C58.7977 196.371 58.794 196.366 58.7895 196.363C58.7849 196.36 58.7797 196.358 58.7742 196.358C58.7687 196.357 58.7632 196.358 58.7581 196.36Z" fill="#263238"/>
<path d="M50.0723 191.801C48.0679 191.753 45.7462 192.438 44.482 194.068C44.4339 194.136 44.5253 194.203 44.5829 194.17C46.3436 193.267 48.195 192.555 50.1059 192.047C50.1349 192.039 50.1598 192.02 50.1763 191.995C50.1927 191.97 50.1995 191.939 50.1954 191.909C50.1913 191.879 50.1766 191.852 50.154 191.832C50.1314 191.812 50.1024 191.801 50.0723 191.801Z" fill="#263238"/>
<path d="M51.6104 192.418C49.6108 192.37 47.2843 193.06 46.0201 194.691C45.972 194.753 46.0634 194.821 46.121 194.792C47.8809 193.887 49.7325 193.173 51.644 192.664C51.6729 192.656 51.6979 192.638 51.7144 192.612C51.7308 192.587 51.7376 192.557 51.7335 192.527C51.7294 192.497 51.7147 192.469 51.6921 192.449C51.6695 192.43 51.6405 192.419 51.6104 192.418Z" fill="#263238"/>
<path d="M53.1534 193.036C51.149 192.992 48.8273 193.678 47.5632 195.308C47.5151 195.371 47.6016 195.443 47.6641 195.409C49.4234 194.508 51.2731 193.796 53.1823 193.287C53.2093 193.276 53.2321 193.257 53.2471 193.233C53.2621 193.208 53.2684 193.179 53.2651 193.15C53.2618 193.121 53.249 193.094 53.2288 193.074C53.2086 193.053 53.182 193.04 53.1534 193.036Z" fill="#263238"/>
<path d="M54.7108 193.658C52.7112 193.61 50.3847 194.3 49.1206 195.931C49.0725 195.993 49.1638 196.061 49.2215 196.032C50.9707 195.129 52.8109 194.416 54.7108 193.904C54.7392 193.899 54.7647 193.883 54.7831 193.861C54.8014 193.838 54.8114 193.81 54.8114 193.781C54.8114 193.752 54.8014 193.724 54.7831 193.702C54.7647 193.679 54.7392 193.664 54.7108 193.658Z" fill="#263238"/>
<path d="M32.4218 195.617C30.1722 195.617 30.1482 199.105 32.4218 199.119C34.6954 199.134 34.6714 195.631 32.4218 195.617Z" fill="white"/>
<path d="M52.3074 186.455C51.3028 185.601 50.0146 186.417 49.3849 187.285C48.319 188.797 47.6691 190.564 47.5006 192.409C47.5006 192.447 47.5295 192.467 47.5631 192.467C47.5703 192.504 47.5863 192.54 47.6099 192.57C47.6336 192.6 47.664 192.625 47.6988 192.641C47.7336 192.657 47.7718 192.664 47.81 192.662C47.8483 192.661 47.8856 192.65 47.9188 192.631C49.3608 191.666 51.0096 190.788 52.1055 189.403C52.74 188.597 53.2399 187.266 52.3074 186.455ZM49.8079 190.706C49.1157 191.188 48.3995 191.671 47.7265 192.187C48.0605 191.179 48.4455 190.188 48.8802 189.22C49.099 188.754 49.3479 188.302 49.6252 187.869C50.0674 187.208 52.0286 185.548 52.2257 187.739C52.3074 188.945 50.6154 190.112 49.7886 190.706H49.8079Z" fill="#263238"/>
<path d="M42.5112 193.103C44.2561 193.388 46.0586 192.911 47.7746 192.66C47.8117 192.65 47.846 192.632 47.8749 192.607C47.9039 192.581 47.9267 192.55 47.9415 192.514C47.9564 192.479 47.963 192.441 47.9607 192.402C47.9584 192.364 47.9474 192.326 47.9285 192.293C47.9345 192.288 47.9394 192.282 47.9427 192.275C47.946 192.268 47.9478 192.26 47.9478 192.252C47.9478 192.244 47.946 192.236 47.9427 192.229C47.9394 192.222 47.9345 192.216 47.9285 192.211C46.5744 190.962 44.9165 190.094 43.1217 189.693C42.069 189.475 40.5741 189.746 40.4059 191.058C40.2376 192.298 41.497 192.939 42.5112 193.103ZM41.3143 191.975C39.9781 190.238 42.5545 190.122 43.3236 190.31C43.8147 190.438 44.2965 190.599 44.7656 190.793C45.7558 191.188 46.6883 191.714 47.616 192.201C46.7652 192.274 45.9288 192.418 45.078 192.52C44.083 192.626 42.0546 192.906 41.3143 191.975Z" fill="#263238"/>
<path opacity="0.1" d="M44.7607 201.802C37.3439 201.672 30.1866 201.426 29.6434 201.073C29.2108 200.798 28.9993 196.432 28.8936 191.15H31.6334C34.6617 193.639 41.0691 198.816 44.7607 201.802Z" fill="black"/>
<path d="M49.5194 191.01H28.2206C28.2206 191.01 32.5083 141.081 32.34 140.208C32.1285 139.089 30.8692 134.038 29.1964 127.433C28.6725 125.368 28.1053 123.154 27.5188 120.857C25.9278 114.643 24.1541 107.855 22.6544 101.945C20.3664 93.0974 18.5782 86.2225 18.5782 86.2225H36.6277C36.6277 86.2225 38.733 92.914 41.3864 101.627C45.7125 115.777 51.4806 135.258 52.0478 139.996C52.9707 147.633 49.5194 191.01 49.5194 191.01Z" fill="#37474F"/>
<path d="M48.5773 187.353C45.3231 187.285 46.2556 187.261 43.0014 187.227C41.4104 187.227 30.9509 187.121 29.4608 187.367C29.4518 187.367 29.4433 187.371 29.437 187.377C29.4307 187.383 29.4271 187.392 29.4271 187.401C29.4271 187.41 29.4307 187.418 29.437 187.425C29.4433 187.431 29.4518 187.435 29.4608 187.435C30.9509 187.681 41.4104 187.589 43.0014 187.575C46.2556 187.546 45.3231 187.517 48.5773 187.449C48.5901 187.449 48.6023 187.444 48.6113 187.435C48.6203 187.426 48.6254 187.414 48.6254 187.401C48.6254 187.388 48.6203 187.376 48.6113 187.367C48.6023 187.358 48.5901 187.353 48.5773 187.353Z" fill="#263238"/>
<path d="M36.349 137.145C35.652 134.057 34.6041 131.027 33.6956 127.978C31.8498 121.819 29.9928 115.66 28.1246 109.501C27.1921 106.423 26.2563 103.345 25.3174 100.267C24.8431 98.7131 24.3625 97.1612 23.8754 95.611C23.3947 94.0913 22.8611 92.5909 22.4333 91.0567C22.2603 90.4343 22.1642 90.7769 22.3901 91.5681C22.8371 93.1602 23.2793 94.757 23.7456 96.3491C24.6589 99.5011 25.5818 102.65 26.5143 105.795C28.3601 112.058 30.2219 118.315 32.0998 124.567C33.0387 127.706 33.9792 130.842 34.9213 133.975C35.3977 135.468 35.7814 136.989 36.0702 138.529C36.324 140.139 36.3885 141.773 36.2624 143.397C36.0557 146.668 35.676 149.934 35.378 153.196C35.08 156.457 34.7723 159.738 34.4743 163.004C33.8751 169.514 33.279 176.022 32.6862 182.528C32.6141 183.353 32.542 184.178 32.4795 185.008C32.4795 185.283 32.8737 185.259 32.9025 185.008C33.6043 178.577 34.1426 172.117 34.7435 165.676C35.3443 159.236 35.9452 152.848 36.5412 146.437C36.6902 144.825 36.8633 143.214 36.8633 141.612C36.8593 140.108 36.6868 138.61 36.349 137.145Z" fill="#263238"/>
<path d="M34.58 86.2129C33.3254 95.9438 30.9365 114.195 29.1964 127.423C25.1251 111.406 18.5782 86.2129 18.5782 86.2129H34.58Z" fill="#263238"/>
<path d="M39.0118 201.971C37.9784 202.309 8.4023 202.034 7.28713 201.305C6.85932 201.035 6.64783 196.707 6.54208 191.468V191.304C6.51804 190.228 6.49882 189.114 6.49401 187.99C6.49401 187.835 6.49401 187.681 6.49401 187.507C6.42671 179.952 6.97469 172.112 6.97469 172.112L26.3075 172.238L25.7644 187.493V188.096L25.6586 191.256V191.579C25.6586 191.579 36.8824 196.799 38.0264 197.716C39.1704 198.632 40.0501 201.623 39.0118 201.971Z" fill="#F7A9A0"/>
<path d="M39.0118 201.971C37.9784 202.308 8.40231 202.034 7.28714 201.305C6.85933 201.035 6.64784 196.707 6.54209 191.468V191.304C6.51805 190.228 6.49883 189.114 6.49402 187.99C6.49402 187.835 6.49402 187.681 6.49402 187.507H25.7596V188.11L25.6538 191.27V191.593C25.6538 191.593 36.8824 196.799 38.0265 197.716C39.1705 198.632 40.0501 201.623 39.0118 201.971Z" fill="#EBEBEB"/>
<path d="M39.1321 201.908C38.0842 202.246 8.23895 201.961 7.10935 201.228C6.67674 200.953 6.46525 196.587 6.3595 191.304L25.5866 191.434C25.5866 191.434 36.9642 196.674 38.1178 197.61C39.2715 198.545 40.1751 201.566 39.1321 201.908Z" fill="#FFC727"/>
<path d="M38.7139 200.707C33.7101 200.533 13.5216 200.316 8.56583 200.528C8.52737 200.528 8.52737 200.557 8.56583 200.557C13.5168 200.837 33.7101 200.89 38.7139 200.789C38.8197 200.784 38.8197 200.707 38.7139 200.707Z" fill="#263238"/>
<path d="M36.2239 196.514C35.6681 196.495 35.1143 196.592 34.5973 196.798C34.0804 197.004 33.6113 197.314 33.2197 197.711C32.5103 198.421 32.1006 199.378 32.0757 200.384C32.0757 200.412 32.1334 200.412 32.1382 200.384C32.3169 199.391 32.8118 198.483 33.5486 197.796C34.2853 197.11 35.2241 196.682 36.2239 196.577C36.2302 196.575 36.2355 196.57 36.2393 196.565C36.2431 196.559 36.2451 196.552 36.2451 196.546C36.2451 196.539 36.2431 196.532 36.2393 196.527C36.2355 196.521 36.2302 196.517 36.2239 196.514Z" fill="#263238"/>
<path d="M27.5381 191.974C25.5337 191.931 23.212 192.616 21.9478 194.247C21.8997 194.309 21.9863 194.382 22.0487 194.348C23.8094 193.446 25.6608 192.734 27.5717 192.225C27.5988 192.215 27.6216 192.195 27.6363 192.17C27.6511 192.145 27.657 192.116 27.6531 192.087C27.6492 192.058 27.6358 192.031 27.6149 192.011C27.5941 191.99 27.567 191.978 27.5381 191.974Z" fill="#263238"/>
<path d="M29.0763 192.573C27.0767 192.524 24.7502 193.21 23.486 194.845C23.438 194.908 23.5293 194.975 23.587 194.946C25.3469 194.041 27.1985 193.328 29.11 192.819C29.1389 192.81 29.1639 192.792 29.1803 192.767C29.1967 192.741 29.2035 192.711 29.1995 192.681C29.1954 192.651 29.1807 192.624 29.158 192.604C29.1354 192.584 29.1064 192.573 29.0763 192.573Z" fill="#263238"/>
<path d="M30.6193 193.19C28.6149 193.142 26.2932 193.832 25.029 195.463C24.9761 195.525 25.0675 195.593 25.13 195.564C26.888 194.659 28.7381 193.948 30.6481 193.441C30.6751 193.431 30.6979 193.412 30.7129 193.387C30.7279 193.362 30.7343 193.333 30.731 193.304C30.7277 193.276 30.7149 193.249 30.6947 193.228C30.6744 193.207 30.6479 193.194 30.6193 193.19Z" fill="#263238"/>
<path d="M32.1574 193.813C30.1529 193.764 27.8313 194.449 26.5671 196.085C26.519 196.148 26.6104 196.215 26.668 196.186C28.4276 195.28 30.2792 194.567 32.191 194.059C32.2199 194.05 32.2449 194.032 32.2614 194.007C32.2778 193.981 32.2846 193.951 32.2805 193.921C32.2764 193.891 32.2617 193.864 32.2391 193.844C32.2165 193.824 32.1875 193.813 32.1574 193.813Z" fill="#263238"/>
<path d="M9.88761 195.771C7.63804 195.771 7.614 199.259 9.88761 199.274C12.1612 199.288 12.1372 195.786 9.88761 195.771Z" fill="white"/>
<path d="M29.754 186.61C28.7445 185.756 27.4611 186.571 26.8266 187.44C25.7682 188.952 25.125 190.717 24.9616 192.558C24.9607 192.567 24.9618 192.575 24.9647 192.583C24.9676 192.59 24.9722 192.597 24.9783 192.603C24.9844 192.609 24.9917 192.613 24.9997 192.615C25.0076 192.617 25.016 192.618 25.0241 192.616C25.0306 192.654 25.0462 192.69 25.0696 192.721C25.0929 192.752 25.1233 192.777 25.1582 192.793C25.1931 192.81 25.2315 192.818 25.27 192.816C25.3086 192.815 25.3463 192.804 25.3798 192.785C26.8218 191.82 28.4706 190.942 29.5665 189.553C30.1962 188.742 30.7057 187.415 29.754 186.61ZM27.2544 190.86C26.5623 191.343 25.8461 191.825 25.1731 192.336C25.515 191.328 25.908 190.338 26.3508 189.369C26.5697 188.905 26.8186 188.455 27.0958 188.023C27.538 187.362 29.4992 185.703 29.6963 187.888C29.7732 189.08 28.0812 190.267 27.2544 190.86Z" fill="#263238"/>
<path d="M19.977 193.258C21.7171 193.542 23.5244 193.06 25.2356 192.814C25.2719 192.805 25.3055 192.787 25.3339 192.763C25.3624 192.738 25.3849 192.708 25.3997 192.673C25.4146 192.639 25.4214 192.601 25.4196 192.564C25.4178 192.526 25.4075 192.49 25.3895 192.457C25.3964 192.452 25.4021 192.446 25.406 192.438C25.4099 192.43 25.4119 192.422 25.4119 192.414C25.4119 192.405 25.4099 192.397 25.406 192.389C25.4021 192.382 25.3964 192.375 25.3895 192.37C24.0334 191.124 22.3763 190.256 20.5827 189.852C19.53 189.639 18.0351 189.91 17.8669 191.222C17.6986 192.457 18.9628 193.089 19.977 193.258ZM18.7802 192.1C17.4439 190.363 20.0203 190.252 20.7894 190.44C21.2805 190.568 21.7623 190.729 22.2314 190.923C23.2031 191.344 24.1529 191.814 25.077 192.332C24.2262 192.404 23.3898 192.544 22.5439 192.65C21.544 192.78 19.5204 193.06 18.7802 192.1Z" fill="#263238"/>
<path d="M36.0461 86.2129C36.0461 86.2129 35.6279 94.8969 33.6427 101.748C33.4841 102.317 33.311 102.872 33.1284 103.407C31.3187 104.145 29.5795 105.046 27.9322 106.099C27.9322 106.099 27.7255 113.071 27.5189 120.852C27.2881 129.536 27.0382 139.243 27.0959 141.303C27.2785 149.022 26.1345 191.318 26.1345 191.318L4.83569 191.405C4.83569 191.405 8.68111 144.126 8.68111 141.323C8.63785 136.792 9.70976 116.761 10.5413 102.158C11.022 93.1553 11.4642 86.237 11.4642 86.237L36.0461 86.2129Z" fill="#37474F"/>
<path d="M25.3895 187.512C22.1353 187.459 23.0678 187.43 19.8185 187.411C18.2226 187.411 7.76308 187.353 6.27779 187.608C6.26887 187.608 6.26031 187.612 6.254 187.618C6.24769 187.625 6.24414 187.633 6.24414 187.642C6.24414 187.651 6.24769 187.66 6.254 187.666C6.26031 187.672 6.26887 187.676 6.27779 187.676C7.76308 187.917 18.2274 187.777 19.8185 187.758C23.0727 187.71 22.1353 187.69 25.3895 187.608C25.4023 187.608 25.4145 187.603 25.4235 187.594C25.4325 187.585 25.4376 187.573 25.4376 187.56C25.4376 187.547 25.4325 187.535 25.4235 187.526C25.4145 187.517 25.4023 187.512 25.3895 187.512Z" fill="#263238"/>
<path d="M13.238 89.3102C12.8438 101.236 12.4305 113.162 11.8969 125.079C11.3634 136.995 10.6472 148.998 9.65215 160.924C9.09456 167.592 8.56582 176.97 7.84961 183.599C7.84961 183.643 7.9121 183.662 7.92171 183.599C9.46949 171.77 10.3251 157.147 11.099 145.24C11.8729 133.333 12.3776 121.417 12.7814 109.501C13.0121 102.746 13.1851 95.9921 13.387 89.2668C13.3726 89.2137 13.2428 89.2137 13.238 89.3102Z" fill="#263238"/>
<path d="M34.0417 102.891C31.9168 103.782 29.8727 104.855 27.9323 106.099C27.919 106.11 27.9099 106.125 27.9065 106.141C27.9031 106.158 27.9056 106.175 27.9136 106.19C27.9217 106.205 27.9347 106.217 27.9504 106.223C27.9661 106.229 27.9835 106.23 27.9996 106.225C30.0521 105.221 32.1478 104.256 34.1474 103.142C34.1728 103.123 34.1912 103.097 34.1996 103.066C34.2079 103.036 34.2058 103.003 34.1936 102.974C34.1813 102.945 34.1597 102.921 34.1321 102.906C34.1045 102.891 34.0727 102.886 34.0417 102.891Z" fill="#263238"/>
<path d="M34.1427 95.5385C33.9985 96.296 33.8158 97.0486 33.662 97.806C33.5082 98.5635 33.3976 99.2534 33.2101 99.9384C33.055 100.616 32.7116 101.234 32.22 101.723C31.946 101.979 31.6383 102.206 31.3451 102.447L30.8644 102.828C30.8644 102.727 30.9077 102.626 30.9221 102.52C30.975 102.23 31.0231 101.945 31.0711 101.656C31.1769 101.014 31.2778 100.373 31.3788 99.7262C31.571 98.4622 31.7441 97.1885 32.0085 95.9438C32.0085 95.8907 31.9412 95.8714 31.9315 95.9438C31.6191 97.1789 31.273 98.3995 30.999 99.649C30.8644 100.262 30.3886 103.282 30.3693 103.509C30.3501 103.735 30.3261 103.952 30.3213 104.174C30.2897 104.398 30.2897 104.626 30.3213 104.85C30.3213 104.908 30.3982 104.898 30.4222 104.85C30.5158 104.641 30.5805 104.42 30.6145 104.194C30.6722 103.981 30.7202 103.759 30.7587 103.542C30.7587 103.465 30.7587 103.383 30.7923 103.301C31.0904 103.123 31.3643 102.881 31.6431 102.679C31.9219 102.476 32.2488 102.249 32.5276 102.013C33.0339 101.562 33.3938 100.968 33.561 100.31C33.7441 99.5984 33.8631 98.8718 33.9167 98.1389C34.0129 97.2802 34.0802 96.4166 34.2003 95.5627C34.2292 95.4855 34.1523 95.4855 34.1427 95.5385Z" fill="#263238"/>
<path d="M26.3508 66.5726C27.9996 71.5563 35.3828 87.3998 38.4831 88.5094C41.7133 89.6576 54.1868 91.0905 56.9555 88.905C58.3111 87.8291 58.7821 76.3614 56.9555 76.6509C55.129 76.9404 44.1311 77.3408 42.8236 76.8728C41.5162 76.4048 32.7823 63.6442 29.2349 60.5372C23.1159 55.2062 25.4712 63.8854 26.3508 66.5726Z" fill="#F7A9A0"/>
<path d="M54.1964 76.4579L54.0186 90.7334C54.0186 90.7334 41.2278 90.7672 37.8198 88.9677C34.4118 87.1681 27.2016 70.6734 25.3991 64.363C23.5965 58.0526 26.4806 57.0781 31.0614 61.7095C35.6423 66.341 42.5304 76.0478 43.3475 76.2456C44.1647 76.4434 54.1964 76.4579 54.1964 76.4579Z" fill="#FFC727"/>
<path d="M37.1276 68.7628C34.4957 69.2059 31.9473 70.052 29.5713 71.2715L29.1387 71.4983C29.0282 71.5514 28.9224 71.6092 28.8167 71.672C28.6052 71.7829 28.3985 71.8987 28.1918 72.0241L28.1005 71.7926L28.5379 71.5369L28.8551 71.368C29.0522 71.2571 29.2541 71.1461 29.456 71.0448C30.6761 70.4094 31.9481 69.88 33.2581 69.4624C34.4706 69.0682 35.7111 68.7667 36.9689 68.5602L37.1276 68.7628ZM39.9828 72.3667C39.756 72.4861 39.5234 72.594 39.2858 72.6899C38.6718 72.9496 38.0246 73.1218 37.3631 73.2013C37.0266 73.2399 36.6902 73.2978 36.3537 73.3171L35.3394 73.3461C33.9826 73.3092 32.6437 73.0247 31.3883 72.5066C30.6336 72.2123 29.8982 71.8553 29.1627 71.4983C29.0666 71.4597 28.9753 71.4114 28.8791 71.368C28.6484 71.2619 28.3985 71.1509 28.1822 71.0496L27.9562 70.9531L27.7448 70.8615L27.8265 71.0641C27.8265 71.122 27.8745 71.1799 27.8938 71.2378H27.937L28.5571 71.5176L28.8359 71.6527C29.6338 72.0338 30.4365 72.4391 31.2729 72.7671C32.5619 73.2993 33.9366 73.5919 35.3298 73.6307L36.3681 73.6066C36.7142 73.6066 37.0603 73.5246 37.4016 73.486C38.0956 73.4055 38.775 73.2286 39.4204 72.9601C39.6881 72.8543 39.9497 72.7335 40.2039 72.5983L39.9828 72.3667ZM35.0607 66.2203C34.1612 66.6391 33.2866 67.1095 32.441 67.6291C30.8501 68.6116 29.3421 69.7233 27.9322 70.9531L27.8024 71.0641C27.8024 71.122 27.8505 71.1799 27.8697 71.2378V71.2764C27.8697 71.2764 27.8697 71.2764 27.8986 71.2764C27.9803 71.204 28.0572 71.1316 28.1389 71.0689C29.5239 69.8846 31.0011 68.8134 32.5563 67.8655C33.4181 67.3481 34.3052 66.8747 35.2145 66.4471L35.0607 66.2203Z" fill="white"/>
<path d="M50.4712 83.5064C50.4712 82.3727 50.5529 77.8522 50.6538 76.7522H50.6875C50.798 77.8425 50.8557 82.3051 50.8509 83.4389C50.888 85.6933 50.803 87.948 50.5961 90.1931C50.5934 90.2005 50.5885 90.2069 50.582 90.2114C50.5756 90.2159 50.5679 90.2183 50.5601 90.2183C50.5522 90.2183 50.5446 90.2159 50.5381 90.2114C50.5317 90.2069 50.5268 90.2005 50.524 90.1931C50.3558 87.969 50.4471 85.7353 50.4712 83.5064Z" fill="#263238"/>
<path opacity="0.1" d="M25.3895 64.3581C27.192 70.6733 34.4022 87.1633 37.8102 88.9628C39.4445 89.8264 43.2322 90.2703 46.7363 90.4922L26.6632 58.8197C24.9472 58.6363 24.2983 60.5034 25.3895 64.3581Z" fill="black"/>
<path d="M9.22905 99.0894C9.30596 99.1666 40.5115 97.0245 40.7711 96.6771C41.1364 96.1947 31.2585 64.3533 28.783 59.6977C27.7303 57.7052 22.6832 57.4158 20.6884 59.3021C15.6942 64.0156 12.2189 79.2561 11.4882 83.8248C10.2769 91.3606 8.95026 98.8144 9.22905 99.0894Z" fill="#FFC727"/>
<path d="M39.1031 90.3426L38.2283 89.8264C37.0491 89.137 35.8345 88.5106 34.5896 87.9497L33.907 87.6506L33.5753 87.5155C32.6561 87.1344 31.7137 86.8121 30.7538 86.5506C29.442 86.1833 28.0978 85.9442 26.7401 85.8366C24.0156 85.7181 21.2894 86.0274 18.6599 86.7532L18.1793 86.8883C18.0591 86.9173 17.9437 86.951 17.8284 86.9896C15.9963 87.5518 14.2159 88.2717 12.5073 89.1413C12.0266 89.3681 11.5459 89.6238 11.1037 89.8602L10.9595 89.9374L10.4307 90.222L10.474 89.976L11.0172 89.6962C11.5555 89.4019 12.0987 89.1172 12.6467 88.8519C13.0985 88.6203 13.5599 88.4032 14.0214 88.1958C15.1821 87.6615 16.373 87.1959 17.588 86.8015L17.9389 86.7002C18.1552 86.6278 18.3715 86.5651 18.5926 86.5072C19.9168 86.1334 21.2711 85.8767 22.6399 85.7401C24.0062 85.5913 25.3824 85.5558 26.7545 85.634C29.1679 85.8409 31.5325 86.4354 33.758 87.3949L34.0849 87.5396L34.6569 87.7953C35.9037 88.372 37.1184 89.0162 38.2956 89.7251L39.0455 90.169L39.1031 90.3426ZM37.4881 85.0357C36.6901 85.5182 35.9114 86.0006 35.1376 86.512C34.6569 86.8111 34.2195 87.1151 33.758 87.4094L33.5753 87.53C32.9457 87.9352 32.3064 88.326 31.6526 88.6927C30.4823 89.3792 29.2076 89.8682 27.8793 90.14C27.2159 90.2677 26.5381 90.3018 25.8653 90.2413C25.5288 90.2076 25.1875 90.1979 24.8559 90.1497L23.8561 89.9712C22.5358 89.6538 21.2836 89.0998 20.1596 88.3357C19.4819 87.8918 18.8378 87.3708 18.1841 86.8883L17.9341 86.7002C17.7322 86.5458 17.5255 86.3914 17.3188 86.2467L17.1218 86.1019L16.8334 85.9041C15.6884 85.0859 14.33 84.6214 12.9255 84.5678C12.3713 84.5781 11.8238 84.691 11.3104 84.9007L11.2671 85.1612C11.7916 84.9419 12.3526 84.824 12.9206 84.8138C14.2742 84.879 15.5791 85.3402 16.6747 86.1405L16.843 86.2563L17.0401 86.3962C17.2227 86.5265 17.4054 86.6616 17.5832 86.8015L17.8332 86.9896C18.5398 87.53 19.2416 88.0896 19.9962 88.5817C21.1472 89.3668 22.4306 89.9357 23.784 90.2606L24.8126 90.4488C25.1539 90.497 25.5 90.5115 25.8461 90.5453C26.5428 90.6056 27.2445 90.5715 27.9322 90.4439C29.2877 90.1626 30.5872 89.6572 31.7776 88.9484C32.4938 88.5431 33.1908 88.1041 33.8782 87.6506L34.056 87.5396L35.2673 86.7436C36.0172 86.2611 36.7767 85.7787 37.5457 85.2963L37.4881 85.0357ZM36.9593 83.3279C36.1244 83.0571 35.2756 82.8316 34.4165 82.6525C33.0642 82.378 31.6862 82.2518 30.3067 82.2761C28.9269 82.3022 27.5519 82.4475 26.197 82.7104C24.8429 82.9667 23.5106 83.328 22.2121 83.791C20.4561 84.4244 18.7551 85.2022 17.1266 86.1164C17.0304 86.1647 16.9391 86.2177 16.8478 86.2708C16.1652 86.6519 15.4971 87.0475 14.8337 87.4576C14.0983 87.9111 13.3677 88.3791 12.6467 88.8519C12.0843 89.2137 11.5267 89.5852 10.9691 89.9519L10.4307 90.304C10.4307 90.3812 10.4067 90.4536 10.3971 90.526C11.1085 90.0725 11.8103 89.6093 12.5169 89.1558C12.9976 88.8326 13.5167 88.5093 14.0214 88.1909C14.3242 87.998 14.6271 87.8098 14.9347 87.6265C15.6269 87.2067 16.3335 86.7967 17.0449 86.4059L17.3237 86.2563C18.9192 85.3795 20.583 84.6341 22.2987 84.0274C24.8738 83.1069 27.5748 82.5894 30.3067 82.4933C31.6724 82.4616 33.0374 82.5781 34.3781 82.8406C35.2733 83.0216 36.1576 83.2536 37.0266 83.5353C37.0026 83.4533 36.9785 83.381 36.9593 83.3134V83.3279Z" fill="white"/>
<path d="M16.4969 62.9205C8.21485 72.0869 -1.12471 87.5782 2.86972 90.9023C6.52287 93.9224 19.8472 91.047 28.2254 87.7616C29.8213 87.1344 23.3514 72.9794 21.7267 73.8189C20.0161 74.7329 18.2501 75.5385 16.4392 76.2311C15.9586 76.3566 18.4965 73.2689 21.3037 65.8489C24.1397 58.2697 21.2316 57.6763 16.4969 62.9205Z" fill="#F7A9A0"/>
<path d="M42.0834 72.7479C42.0834 74.393 38.0505 74.0698 38.0505 74.0698C38.6383 74.454 39.0737 75.0326 39.281 75.7053C39.5839 76.9162 37.839 77.9294 37.839 77.9294C38.3628 78.4569 38.7191 79.1285 38.8628 79.8591C39.0359 81.046 37.4208 82.3244 37.4208 82.3244C37.6345 83.0825 37.5697 83.8923 37.2382 84.6064C36.2768 86.4831 33.0467 86.5362 31.0518 86.9414C28.8166 87.4602 26.6272 88.1604 24.505 89.0352L20.7942 74.2483C20.7942 74.2483 29.4464 69.091 31.8498 69.2068C33.8782 69.3467 42.0738 70.2295 42.0834 72.7479Z" fill="#F7A9A0"/>
<path d="M38.0168 74.0215C35.873 73.3943 33.585 73.2882 31.3787 73.2062C31.3306 73.2062 31.3258 73.2785 31.3787 73.2834C33.5802 73.3364 35.8153 73.9829 38.0024 74.1276C38.0164 74.1296 38.0307 74.1258 38.0419 74.1172C38.0532 74.1086 38.0606 74.0959 38.0625 74.0818C38.0644 74.0677 38.0607 74.0535 38.0521 74.0422C38.0436 74.0309 38.0309 74.0234 38.0168 74.0215Z" fill="#263238"/>
<path d="M37.7669 77.7798C37.2664 77.6853 36.7557 77.6577 36.248 77.6978C35.7096 77.6978 35.1713 77.7219 34.6329 77.746C33.553 77.7942 32.4763 77.8714 31.4027 77.9776C31.3547 77.9776 31.3499 78.0548 31.4027 78.0548C32.4795 78.0065 33.5562 77.9728 34.6281 77.9679H36.2432C36.7513 78.0098 37.2625 77.9936 37.7669 77.9197C37.7802 77.9135 37.7914 77.9036 37.7993 77.8912C37.8071 77.8788 37.8113 77.8644 37.8113 77.8497C37.8113 77.835 37.8071 77.8206 37.7993 77.8083C37.7914 77.7959 37.7802 77.786 37.7669 77.7798Z" fill="#263238"/>
<path d="M37.3439 82.3679C36.8907 82.2882 36.4271 82.2882 35.9739 82.3679L34.5223 82.4595C33.5609 82.5126 32.5563 82.5705 31.5709 82.5898C31.5607 82.5898 31.5509 82.5938 31.5437 82.6011C31.5365 82.6083 31.5325 82.6181 31.5325 82.6284C31.5325 82.6386 31.5365 82.6484 31.5437 82.6557C31.5509 82.6629 31.5607 82.667 31.5709 82.667C32.5707 82.667 33.5705 82.667 34.5704 82.6236L36.0412 82.5801C36.4894 82.6074 36.9388 82.5535 37.3679 82.4209C37.3749 82.4177 37.3804 82.4119 37.3831 82.4046C37.3858 82.3974 37.3855 82.3894 37.3823 82.3823C37.3791 82.3753 37.3733 82.3698 37.3661 82.3671C37.3589 82.3644 37.3509 82.3647 37.3439 82.3679Z" fill="#263238"/>
<path d="M20.376 74.1276L23.5677 90.0483C23.5677 90.0483 3.73016 95.2443 1.67286 90.2075C-0.384439 85.1708 11.2864 66.4664 18.0159 61.1306C24.7454 55.7947 22.217 64.1989 22.0103 64.8743C21.1018 67.8607 16.8719 75.6473 16.8719 75.6473L20.376 74.1276Z" fill="#FFC727"/>
<path d="M23.5677 90.029C23.5677 90.029 3.73017 95.225 1.67287 90.1882C0.567314 87.4769 3.43215 80.8143 7.35928 74.4026L7.42177 74.3013L7.50349 74.1711C7.52752 74.1277 7.55636 74.0842 7.5852 74.0408C9.00346 71.7463 10.5372 69.5258 12.1805 67.3879L12.3487 67.1708C14.0039 64.9459 15.9015 62.9134 18.0063 61.1113C24.7358 55.7754 22.2074 64.1796 22.0007 64.8551C21.9382 65.0673 21.8565 65.3037 21.7604 65.5594C21.7219 65.6559 21.6835 65.7621 21.6402 65.8682C21.0874 67.2866 20.1982 69.1971 19.2993 70.9532L19.1936 71.1654C19.1936 71.1654 19.1936 71.2137 19.1599 71.233L19.1022 71.3439C17.963 73.597 16.9296 75.5074 16.8671 75.6232L20.376 74.1276L23.5677 90.029Z" fill="#FFC727"/>
<path d="M19.2993 70.9532L19.1935 71.1655C19.1935 71.1655 19.1935 71.2137 19.1599 71.233L18.9195 71.3874L16.9632 72.6659C15.815 73.4248 14.6151 74.1018 13.3725 74.6921C12.7434 74.9833 12.0841 75.2033 11.4065 75.3483C10.7207 75.5086 10.005 75.487 9.33001 75.2855C9.16178 75.2373 8.98873 75.1987 8.84934 75.1456L8.36866 74.9382C8.04918 74.8013 7.74064 74.64 7.44576 74.4557L7.37366 74.4123L7.43615 74.311L7.51786 74.1807C7.53951 74.2015 7.56374 74.2193 7.58996 74.2338L7.65726 74.2724C7.91635 74.4438 8.18976 74.5923 8.47441 74.7163L8.95509 74.9189L9.43576 75.0588C10.0753 75.2544 10.7545 75.2794 11.4065 75.1312C12.0683 74.9931 12.7131 74.7828 13.3293 74.504C14.5634 73.9275 15.7567 73.2666 16.9007 72.526L18.4629 71.5225L18.8715 71.2571L19.2993 70.9532ZM18.8186 71.2475C16.3527 71.8505 13.9349 72.6176 11.4738 73.2207C10.1856 73.5439 8.87818 73.8286 7.56593 74.0408C7.53709 74.0843 7.50825 74.1277 7.48421 74.1711L7.4025 74.3013L7.62361 74.2628C8.93586 74.0408 10.2385 73.7465 11.5267 73.4185C13.8388 72.8347 16.1076 72.1111 18.41 71.5128L18.8907 71.3874C18.9484 71.3874 19.0109 71.3536 19.0733 71.344L19.131 71.233C19.131 71.233 19.131 71.1896 19.1647 71.1655L18.8186 71.2475ZM18.9772 67.2384C18.3789 67.562 17.7532 67.8316 17.1074 68.044C16.4741 68.2607 15.8037 68.3461 15.1366 68.2949C14.1245 68.1521 13.1616 67.7665 12.3294 67.1708L12.1612 67.3879C13.0365 68.0049 14.0474 68.4005 15.1078 68.541C15.8102 68.592 16.5155 68.4967 17.1795 68.2611C17.8451 68.0442 18.4888 67.7647 19.1022 67.4265C19.9756 66.9508 20.8243 66.4307 21.645 65.8682C21.6882 65.7621 21.7267 65.6559 21.7651 65.5594C20.8719 66.167 19.9478 66.7274 18.9964 67.2384H18.9772Z" fill="white"/>
<path d="M20.0348 74.1421C17.7563 74.943 11.7863 77.9341 10.4741 79.1595C10.4685 79.1669 10.4654 79.1759 10.4652 79.1852C10.4651 79.1945 10.4679 79.2036 10.4733 79.2111C10.4786 79.2187 10.4863 79.2243 10.4951 79.2272C10.5039 79.23 10.5134 79.23 10.5222 79.2271C11.8104 78.3152 19.1743 74.6921 20.3424 74.2482C20.3424 74.2482 20.4001 74.3881 20.4241 74.4267C20.4481 74.4653 20.4914 74.4509 20.4914 74.3978C20.471 74.2674 20.4421 74.1385 20.4049 74.0118L20.0348 74.1421Z" fill="#263238"/>
<path d="M18.3379 83.0385C18.1216 81.9288 17.2949 77.4807 17.1747 76.3614C17.1747 76.3614 17.1747 76.3373 17.2035 76.3614C17.5304 77.4035 18.4725 81.7696 18.6936 82.8793C19.1827 85.0862 19.5501 87.3184 19.7944 89.5659C19.7944 89.6045 19.7367 89.6287 19.7223 89.5659C19.1407 87.4335 18.7609 85.2239 18.3379 83.0385Z" fill="#263238"/>
<path d="M16.7085 75.7053C17.3285 74.3496 18.088 73.0615 18.7706 71.7396C19.4531 70.4177 20.1597 69.1054 20.7942 67.769H20.823C20.4385 68.6809 20.054 69.5927 19.6406 70.49C19.7656 70.3501 19.8809 70.2006 19.9963 70.051C20.2078 69.7808 20.4 69.4962 20.5923 69.2115C20.5923 69.2115 20.626 69.2115 20.6212 69.2115C20.4715 69.5308 20.2861 69.8319 20.0684 70.1089C19.9075 70.3169 19.7307 70.5121 19.5396 70.6927C19.3714 71.0593 19.1936 71.426 19.0109 71.7878C18.4191 73.1346 17.7265 74.4345 16.9392 75.6763C16.9103 75.768 16.6844 75.768 16.7085 75.7053Z" fill="#263238"/>
<path d="M10.1231 92.2724C12.464 92.2435 21.3037 90.5019 23.4908 90.0484C23.4619 89.8168 23.4908 89.7348 23.4331 89.4067C23.4331 89.3633 23.4956 89.344 23.5052 89.4067C23.5629 89.7203 23.7744 90.3426 23.6879 90.3716C22.6352 90.7865 12.4208 92.5764 10.1231 92.3834C10.1159 92.3834 10.1087 92.382 10.102 92.3792C10.0953 92.3764 10.0892 92.3723 10.0841 92.3671C10.0789 92.362 10.0749 92.3559 10.0721 92.3491C10.0693 92.3424 10.0679 92.3352 10.0679 92.3279C10.0679 92.3206 10.0693 92.3134 10.0721 92.3067C10.0749 92.2999 10.0789 92.2938 10.0841 92.2887C10.0892 92.2835 10.0953 92.2794 10.102 92.2767C10.1087 92.2739 10.1159 92.2724 10.1231 92.2724Z" fill="#263238"/>
<path d="M33.9312 90.6659L50.3847 92.89L56.6287 69.9304L40.1751 67.7112L33.9312 90.6659Z" fill="#263238"/>
<path d="M34.7386 90.7768L51.1922 92.9961L57.4362 70.0413L40.9826 67.8173L34.7386 90.7768Z" fill="#37474F"/>
<path d="M48.3851 79.6758C48.2823 80.1047 48.0265 80.481 47.666 80.7335C47.3055 80.9859 46.8654 81.0971 46.4288 81.0459C46.2228 81.0241 46.0239 80.9579 45.8457 80.852C45.6675 80.7461 45.5141 80.6029 45.396 80.4321C45.2778 80.2614 45.1978 80.0671 45.1611 79.8625C45.1245 79.6579 45.1323 79.4478 45.1838 79.2464C45.2866 78.8171 45.5422 78.4403 45.9025 78.1871C46.2629 77.9338 46.7031 77.8216 47.1402 77.8715C47.3467 77.8932 47.546 77.9595 47.7247 78.0657C47.9033 78.1719 48.057 78.3156 48.1752 78.4869C48.2934 78.6582 48.3733 78.8531 48.4096 79.0583C48.4458 79.2635 48.4375 79.4741 48.3851 79.6758Z" fill="white"/>
<path d="M57.2727 74.7742C57.9601 76.7039 59.9213 79.2175 59.9501 80.742C59.9696 81.1175 59.8685 81.4894 59.6617 81.8029C59.4549 82.1164 59.1533 82.355 58.8013 82.4836C58.8013 82.4836 60.2433 83.3858 60.0174 84.7704C59.9165 85.4844 58.6859 85.9476 58.6859 85.9476C58.997 86.1687 59.2411 86.4718 59.3913 86.8234C59.5414 87.1751 59.5917 87.5615 59.5367 87.9401C59.3348 88.905 58.1331 89.2282 58.1331 89.2282C58.1331 89.2282 58.8542 90.4681 58.3302 91.3944C57.2631 93.2711 48.7984 92.4075 47.8082 89.1414C47.3275 87.6217 49.3992 87.9449 49.3992 87.9449C49.3992 87.9449 46.5536 86.7629 46.6882 85.0068C46.8228 83.2507 49.4665 83.8297 49.4665 83.8297C49.4665 83.8297 46.7219 82.6621 47.0631 80.853C47.4044 79.0438 49.9472 80.0087 49.9472 80.0087C49.9472 80.0087 48.1927 78.5614 48.7551 77.2105C49.6828 75.0154 52.9611 78.2285 54.8645 77.9728L56.2056 74.9961L57.2727 74.7742Z" fill="#F7A9A0"/>
<path d="M58.7004 77.635C58.2197 75.7487 60.6808 73.7321 60.4693 71.8457C60.1857 69.3129 57.1623 71.4597 56.1817 74.9912L55.8981 77.8859L58.7004 77.635Z" fill="#F7A9A0"/>
<path d="M57.9554 89.3053C57.9617 89.3053 57.9679 89.3079 57.9724 89.3124C57.9769 89.3169 57.9794 89.323 57.9794 89.3294C57.9794 89.3358 57.9769 89.342 57.9724 89.3465C57.9679 89.351 57.9617 89.3536 57.9554 89.3536C54.9952 89.7713 51.9785 89.2785 49.3032 87.94C49.2167 87.8966 49.2551 87.7374 49.3561 87.7711C52.1331 88.6986 55.0299 89.2155 57.9554 89.3053Z" fill="#263238"/>
<path d="M58.7244 85.9669C58.7581 85.9669 58.7581 86.0248 58.7244 86.0296C55.4509 86.4656 52.1299 85.7127 49.3608 83.9068C49.2647 83.8393 49.2455 83.6849 49.3608 83.7524C51.298 84.8717 55.975 85.9235 58.7244 85.9669Z" fill="#263238"/>
<path d="M49.7646 79.806C52.49 81.5476 55.4943 82.2182 58.6812 82.5029C58.7196 82.5029 58.7148 82.5656 58.6812 82.5704C57.0853 82.8695 55.0713 82.4884 53.5331 82.059C52.0929 81.6891 50.775 80.9453 49.7117 79.9025C49.6637 79.8591 49.7069 79.7674 49.7646 79.806Z" fill="#263238"/>
<path d="M29.3647 60.9232C29.4224 62.3705 29.4657 65.656 27.2449 65.4099C26.3524 65.232 25.5297 64.7999 24.8752 64.1652C24.1747 63.5815 23.5411 62.9213 22.9861 62.1968C22.3496 61.4097 21.7773 60.5724 21.2749 59.6929C21.2749 59.6592 21.198 59.6929 21.2221 59.7315C21.7316 60.6144 22.1546 61.5262 22.7506 62.3609C23.3134 63.1698 23.9828 63.8985 24.7406 64.527C25.4523 65.1906 26.3501 65.6184 27.3122 65.7525C27.7249 65.7817 28.1349 65.6664 28.4723 65.4262C28.8097 65.186 29.0538 64.8359 29.1628 64.4354C29.4911 63.2946 29.5601 62.0943 29.3647 60.9232Z" fill="#263238"/>
<path d="M27.1776 63.9577C25.5722 64.0976 22.9477 61.063 22.1786 59.003C22.3803 57.9295 22.6353 56.8668 22.9429 55.8189C23.188 54.8009 23.4235 53.6575 23.5966 52.601L29.9704 55.182C29.4014 56.4506 28.9881 57.7839 28.7398 59.1526C28.7257 59.2986 28.7257 59.4456 28.7398 59.5916C28.7398 59.5916 28.7398 59.6398 28.7398 59.6639C28.7543 60.5082 28.7254 63.8226 27.1776 63.9577Z" fill="#F7A9A0"/>
<path d="M28.7205 59.5915C28.723 59.6156 28.723 59.6399 28.7205 59.6639C28.4919 59.6624 28.2637 59.6431 28.038 59.606C24.2214 58.9547 24.0051 54.1254 24.0243 52.7794L25.6202 53.4211L29.9463 55.182C29.3774 56.4502 28.9658 57.7837 28.7205 59.1525C28.7066 59.2985 28.7066 59.4455 28.7205 59.5915Z" fill="#263238"/>
<path d="M22.8659 45.3643C22.2026 47.7766 23.6254 54.5935 25.3462 56.0794C27.8458 58.2408 31.845 58.3517 33.6523 55.3558C35.402 52.4611 33.3928 43.5793 31.4749 42.2381C28.6533 40.2552 23.8417 41.8232 22.8659 45.3643Z" fill="#F7A9A0"/>
<path d="M29.5809 49.6774C29.5809 49.6774 29.5521 49.7063 29.5809 49.7256C29.6867 50.1839 29.7348 50.7291 29.3502 50.9655C29.3502 50.9655 29.3502 50.9944 29.3502 50.9896C29.8261 50.8159 29.7588 50.0971 29.5809 49.6774Z" fill="#263238"/>
<path d="M29.0763 49.2817C28.3264 49.3782 28.5956 50.8738 29.2637 50.7869C29.9319 50.7001 29.7156 49.2045 29.0763 49.2817Z" fill="#263238"/>
<path d="M32.1911 49.1708C32.1911 49.1708 32.2343 49.1708 32.2343 49.2094C32.2968 49.6918 32.4458 50.1984 32.8881 50.2852V50.3093C32.3641 50.3093 32.1767 49.6146 32.1911 49.1708Z" fill="#263238"/>
<path d="M32.5276 48.6112C33.263 48.4327 33.5659 49.9186 32.8833 50.0585C32.2007 50.1984 31.9123 48.7607 32.5276 48.6112Z" fill="#263238"/>
<path d="M28.3744 48.6884C28.562 48.6011 28.7435 48.5011 28.9176 48.3892C29.1192 48.3107 29.2886 48.1662 29.3983 47.9792C29.423 47.9124 29.4251 47.8394 29.4043 47.7713C29.3834 47.7033 29.3407 47.6441 29.2829 47.6029C29.157 47.5384 29.0161 47.5088 28.875 47.5173C28.7339 47.5258 28.5975 47.572 28.4802 47.6511C28.2195 47.7749 28.0139 47.9916 27.9034 48.259C27.8787 48.3234 27.874 48.3939 27.8899 48.4611C27.9057 48.5283 27.9415 48.5891 27.9925 48.6355C28.0434 48.6819 28.1071 48.7118 28.1753 48.7213C28.2435 48.7307 28.3129 48.7192 28.3744 48.6884Z" fill="#263238"/>
<path d="M33.0083 48.1528C32.7968 48.1528 32.5997 48.1142 32.3882 48.0949C32.1676 48.1051 31.9498 48.0424 31.7681 47.9164C31.7198 47.8647 31.6895 47.7987 31.6817 47.7282C31.6739 47.6578 31.689 47.5867 31.7248 47.5256C31.8149 47.4165 31.9323 47.3336 32.065 47.2852C32.1976 47.2369 32.3407 47.2249 32.4795 47.2506C32.7694 47.2585 33.0457 47.3756 33.2534 47.5787C33.2978 47.6273 33.3274 47.6877 33.3384 47.7528C33.3495 47.8178 33.3416 47.8846 33.3157 47.9453C33.2898 48.0059 33.247 48.0577 33.1925 48.0945C33.1379 48.1314 33.074 48.1516 33.0083 48.1528Z" fill="#263238"/>
<path d="M29.6483 54.0193C29.7659 54.1378 29.9201 54.2126 30.0857 54.2316C30.2582 54.1983 30.4219 54.1293 30.5664 54.029C30.5664 54.029 30.6 54.029 30.5664 54.0531C30.5141 54.1548 30.4358 54.2406 30.3395 54.3016C30.2431 54.3627 30.1323 54.3968 30.0184 54.4005C29.9206 54.3899 29.8281 54.351 29.7521 54.2885C29.6761 54.2259 29.62 54.1424 29.5906 54.0483C29.6002 54.0242 29.6338 53.9952 29.6483 54.0193Z" fill="#263238"/>
<path d="M29.9078 52.4418C30.0559 52.6058 30.236 52.7375 30.4369 52.8288C30.6379 52.9201 30.8553 52.969 31.0758 52.9725C31.2687 52.9762 31.4611 52.9535 31.6479 52.9049L31.7536 52.876L31.8497 52.8422C31.8742 52.8337 31.895 52.8171 31.909 52.7953C31.9229 52.7734 31.9292 52.7474 31.9266 52.7216C31.9294 52.7056 31.9294 52.6893 31.9266 52.6733V52.6347C31.8786 52.2729 31.7536 51.7374 31.7536 51.7374C31.893 51.7808 32.6092 51.9738 32.5659 51.7856C32.2632 50.1823 31.7977 48.6142 31.1768 47.1059C31.1738 47.0974 31.1683 47.09 31.161 47.0848C31.1537 47.0796 31.1449 47.0768 31.1359 47.0768C31.1269 47.0768 31.1182 47.0796 31.1109 47.0848C31.1035 47.09 31.098 47.0974 31.0951 47.1059C31.3643 48.5919 31.8978 50.0006 32.1958 51.501C31.9409 51.4294 31.677 51.3953 31.4123 51.3997C31.3643 51.3997 31.6719 52.4321 31.6767 52.5962C31.3899 52.673 31.0906 52.6913 30.7967 52.6499C30.5027 52.6084 30.2201 52.5081 29.9655 52.3549C29.9078 52.3694 29.8742 52.408 29.9078 52.4418Z" fill="#263238"/>
<path d="M31.4364 52.8181C31.283 53.0988 31.0614 53.3361 30.7923 53.508C30.6469 53.5929 30.4793 53.6316 30.3116 53.6189C29.9318 53.5852 29.8694 53.2523 29.8886 52.9531C29.8987 52.7891 29.9294 52.627 29.9799 52.4707C30.4169 52.7373 30.9266 52.8588 31.4364 52.8181Z" fill="#263238"/>
<path d="M30.7923 53.5128C30.6469 53.5977 30.4793 53.6364 30.3116 53.6238C29.9318 53.59 29.8694 53.2571 29.8886 52.958C30.0792 52.9369 30.2713 52.9799 30.4349 53.0804C30.5985 53.1808 30.7242 53.3329 30.7923 53.5128Z" fill="#FF9ABB"/>
<path d="M32.7823 44.2306C32.3978 43.695 31.9748 43.1595 31.5902 43.1161C31.2057 43.0727 31.1624 43.999 30.3645 44.2306C29.283 44.5393 28.5379 43.6468 26.9998 43.8687C24.7646 44.192 24.1926 46.2472 24.8127 49.3879C25.3655 52.1957 23.7408 52.8229 23.7408 52.8229C23.7408 52.8229 21.3951 46.8744 22.6881 44.4573C23.9811 42.0403 27.764 40.2793 30.8596 41.6543C31.9603 42.1512 32.7823 44.2306 32.7823 44.2306Z" fill="#263238"/>
<path d="M24.8703 51.2646C24.8703 51.2646 23.2216 49.1177 22.2458 49.716C21.2701 50.3142 22.5727 53.479 23.7744 53.865C23.9242 53.9256 24.0848 53.9549 24.2463 53.9513C24.4078 53.9476 24.5669 53.9111 24.7139 53.8439C24.8609 53.7766 24.9927 53.6801 25.1014 53.5602C25.2101 53.4403 25.2934 53.2994 25.3462 53.1462L24.8703 51.2646Z" fill="#F7A9A0"/>
<path d="M22.64 50.6182C22.64 50.6182 22.64 50.6182 22.64 50.6519C23.0267 50.8244 23.3732 51.0762 23.6571 51.3911C23.9411 51.706 24.1562 52.0771 24.2887 52.4804C24.2367 52.3995 24.1679 52.3309 24.087 52.2793C24.006 52.2278 23.9149 52.1944 23.8199 52.1815C23.7248 52.1687 23.6281 52.1767 23.5365 52.205C23.4448 52.2332 23.3604 52.2811 23.2889 52.3453C23.2889 52.3453 23.2889 52.3936 23.313 52.3887C23.4562 52.3347 23.6127 52.3266 23.7607 52.3654C23.9088 52.4043 24.0412 52.4883 24.1397 52.6058C24.2989 52.8061 24.4389 53.0209 24.5579 53.2475C24.5964 53.3199 24.731 53.2764 24.6973 53.1896C24.6637 52.1089 23.7792 50.6664 22.64 50.6182Z" fill="#263238"/>
<path d="M28.6148 40.8052C27.6771 40.5368 26.7058 40.4052 25.7307 40.4144C24.63 40.4482 21.2797 41.2442 20.5731 42.0547C19.8665 42.8652 20.1549 46.1072 20.2078 46.58C20.2606 47.0528 20.9095 49.8558 22.0439 50.3817C23.1783 50.9076 22.5246 46.0686 23.8849 44.2161C25.2453 42.3635 28.6148 40.8052 28.6148 40.8052Z" fill="#FFC727"/>
<path opacity="0.1" d="M28.6148 40.81C28.6148 40.81 25.25 42.3634 23.8609 44.216C22.4717 46.0686 23.1495 50.9027 22.0247 50.3817C21.7625 50.2365 21.5315 50.0407 21.3451 49.8056C21.1586 49.5704 21.0204 49.3005 20.9384 49.0115C20.9384 47.5642 21.1547 45.2967 22.0872 43.5985C22.962 42.0112 24.7357 40.9933 26.7161 40.4481C27.3582 40.5133 27.9935 40.6343 28.6148 40.81Z" fill="black"/>
<path d="M22.7457 53.1992C22.6352 51.9015 23.3995 48.2542 24.4569 46.0687C25.5144 43.8832 29.3454 42.103 29.9078 42.0451C31.2826 41.91 31.6863 42.5275 31.8834 42.3587C32.0805 42.1898 30.475 40.8631 30.052 40.6943C29.4211 40.4902 28.7525 40.4309 28.0957 40.5206C27.5044 40.6267 23.9138 41.5675 22.8323 43.3381C21.7507 45.1086 20.5827 49.7835 21.0634 50.8497C21.1883 51.1054 21.544 51.2212 21.7411 51.5879C21.9718 52.0703 22.1641 52.6251 22.3708 52.9532C22.5775 53.2812 22.7553 53.3102 22.7457 53.1992Z" fill="#FFC727"/>
<path d="M24.63 45.1375C24.2965 44.993 23.975 44.822 23.6686 44.6261C23.3465 44.4319 23.0494 44.1986 22.7842 43.9314C22.7842 43.9314 22.7313 43.9314 22.7505 43.9603C22.9836 44.2699 23.2643 44.5403 23.5821 44.7612C23.9014 44.9755 24.2588 45.1262 24.6348 45.2051C24.6437 45.2044 24.652 45.2002 24.6579 45.1935C24.6637 45.1867 24.6667 45.1778 24.666 45.1689C24.6654 45.1599 24.6613 45.1516 24.6545 45.1457C24.6477 45.1398 24.6389 45.1369 24.63 45.1375Z" fill="#263238"/>
<path d="M22.5343 51.9158C22.4814 51.829 22.4093 51.7566 22.3516 51.6746C22.2836 51.5822 22.2271 51.4818 22.1834 51.3755C22.1238 51.1677 22.0416 50.9671 21.9382 50.7773C21.8316 50.6365 21.709 50.5086 21.5729 50.3961C21.4099 50.2779 21.2913 50.1079 21.2365 49.9137H21.198C21.2557 50.3045 21.5585 50.5409 21.7796 50.84C21.892 51.0448 21.9854 51.2596 22.0584 51.4816C22.1435 51.6843 22.292 51.8536 22.4814 51.9641C22.5054 51.9786 22.5487 51.9496 22.5343 51.9158Z" fill="#263238"/>
<path d="M22.7554 50.459C22.6112 50.3335 22.4622 50.2226 22.3276 50.0827C22.193 49.9427 22.0873 49.7932 21.9767 49.6436C21.8662 49.4941 21.7796 49.3349 21.6739 49.1612C21.5681 48.9875 21.4095 48.8186 21.2942 48.6305C21.2942 48.6305 21.2461 48.6305 21.2605 48.6594C21.3807 48.8476 21.4624 49.0647 21.5729 49.2577C21.672 49.425 21.7812 49.5861 21.8998 49.7401C22.012 49.8896 22.1375 50.0284 22.2747 50.155C22.4121 50.2876 22.576 50.3896 22.7554 50.4541C22.7554 50.4541 22.765 50.4686 22.7554 50.459Z" fill="#263238"/>
<path d="M23.0245 49.1322C22.7199 48.9477 22.4444 48.7184 22.2074 48.452C21.9766 48.1915 21.7555 47.9165 21.544 47.6415C21.544 47.6415 21.496 47.6415 21.5104 47.6415C21.6676 47.9682 21.8663 48.2731 22.1016 48.5485C22.2159 48.6834 22.3468 48.8034 22.491 48.9055C22.6471 49.0097 22.8129 49.0985 22.9861 49.1708C22.9861 49.1708 23.0486 49.1708 23.0245 49.1322Z" fill="#263238"/>
<path d="M23.3418 47.8488C23.1946 47.7785 23.0624 47.6802 22.9524 47.5594C22.8179 47.4339 22.6881 47.3037 22.5631 47.1686C22.4381 47.0383 22.3131 46.9177 22.193 46.7875C22.0631 46.6654 21.96 46.5175 21.8901 46.3533C21.8901 46.3533 21.8469 46.3533 21.8517 46.3533C21.8894 46.5293 21.9667 46.6943 22.0776 46.8357C22.1847 47.0072 22.307 47.1687 22.4429 47.3182C22.5773 47.4572 22.7202 47.5877 22.8707 47.7089C22.9979 47.8255 23.1569 47.9012 23.3274 47.926C23.3324 47.927 23.3376 47.9269 23.3426 47.9259C23.3477 47.9248 23.3524 47.9228 23.3567 47.9199C23.3609 47.9169 23.3645 47.9132 23.3673 47.9089C23.3702 47.9046 23.3721 47.8997 23.373 47.8947C23.374 47.8896 23.3739 47.8844 23.3729 47.8794C23.3718 47.8743 23.3698 47.8695 23.3669 47.8653C23.364 47.861 23.3603 47.8574 23.356 47.8546C23.3517 47.8517 23.3468 47.8498 23.3418 47.8488Z" fill="#263238"/>
<path d="M23.4667 46.2761C23.3257 46.1796 23.1911 46.0783 23.0629 45.9721C22.938 45.8612 22.813 45.7502 22.6928 45.6344C22.5726 45.5186 22.4332 45.3932 22.3131 45.2629C22.3131 45.2629 22.265 45.2629 22.2794 45.2871C22.371 45.439 22.4755 45.5827 22.5919 45.7164C22.7067 45.847 22.8304 45.9695 22.962 46.0831C23.0924 46.1971 23.2305 46.3019 23.3754 46.3967C23.5176 46.5058 23.6815 46.5832 23.8561 46.6234C23.86 46.6208 23.8633 46.6172 23.8655 46.613C23.8678 46.6088 23.869 46.6041 23.869 46.5993C23.869 46.5945 23.8678 46.5898 23.8655 46.5856C23.8633 46.5814 23.86 46.5778 23.8561 46.5752C23.7357 46.4636 23.6054 46.3635 23.4667 46.2761Z" fill="#263238"/>
<path d="M25.5 44.2498C25.3462 44.1148 25.1972 43.9797 25.0194 43.8542C24.8415 43.7288 24.6781 43.6178 24.4954 43.5117C24.1504 43.2991 23.7828 43.126 23.3995 42.9955C23.3995 42.9955 23.3562 43.0196 23.3995 43.0341C24.082 43.4586 24.7886 43.8542 25.4712 44.2884C25.4763 44.2923 25.4827 44.2939 25.489 44.293C25.4953 44.2921 25.501 44.2887 25.5048 44.2836C25.5087 44.2785 25.5103 44.2721 25.5094 44.2657C25.5085 44.2594 25.5051 44.2537 25.5 44.2498Z" fill="#263238"/>
<path d="M26.1009 43.0292C25.9525 42.8993 25.7914 42.7845 25.6203 42.6867C25.241 42.495 24.841 42.3477 24.4282 42.2477C24.3993 42.2477 24.3849 42.2766 24.4282 42.2863C24.7983 42.4551 25.1684 42.6192 25.5241 42.8073C25.6972 42.9038 25.875 43.0003 26.0385 43.1113C26.2019 43.2222 26.3413 43.3718 26.5191 43.4924C26.4127 43.311 26.2703 43.1534 26.1009 43.0292Z" fill="#263238"/>
<path d="M27.0863 42.3587C26.9391 42.2257 26.778 42.1093 26.6056 42.0113C26.2911 41.8197 25.9466 41.6827 25.5866 41.6061C25.5866 41.6061 25.553 41.6399 25.5866 41.6495C25.9209 41.7808 26.2427 41.9423 26.548 42.1319C26.7018 42.2284 26.8556 42.3346 27.0286 42.4407C27.2017 42.5468 27.3219 42.6819 27.4805 42.7688C27.3624 42.6198 27.2304 42.4825 27.0863 42.3587Z" fill="#263238"/>
<path d="M27.7544 41.5964C27.6054 41.5095 27.4468 41.4275 27.2738 41.3503C27.1235 41.2657 26.9615 41.2039 26.7931 41.167V41.2104L27.6679 41.7266C27.9255 41.9057 28.1639 42.111 28.3793 42.3393C28.3793 42.3393 28.4082 42.3393 28.3793 42.3393C28.2506 42.034 28.0328 41.7749 27.7544 41.5964Z" fill="#263238"/>
<path d="M28.6821 41.2394C28.3977 41.0477 28.0796 40.9118 27.7448 40.839C27.7208 40.839 27.7112 40.8728 27.7448 40.8824C28.0579 40.9971 28.3514 41.1598 28.6148 41.3649C28.8818 41.5595 29.1268 41.7827 29.3455 42.0306C29.3455 42.0306 29.3791 42.0306 29.3695 42.0306C29.208 41.7146 28.972 41.443 28.6821 41.2394Z" fill="#263238"/>
<path d="M30.8115 41.5626C30.7231 41.474 30.6301 41.3902 30.5327 41.3118C30.4352 41.2339 30.3324 41.163 30.2251 41.0995C30.1145 41.0319 30.0039 40.9692 29.8982 40.8969C29.8982 40.8969 29.8501 40.921 29.8982 40.9354C30.0107 41.0011 30.1169 41.077 30.2154 41.1622L30.4942 41.3938L30.7778 41.6253C30.8669 41.712 30.9616 41.7926 31.0614 41.8666C30.9899 41.756 30.906 41.6541 30.8115 41.5626Z" fill="#263238"/>
<path d="M60.2049 32.4348C60.0047 34.3679 59.2729 36.2072 58.0914 37.7471C56.9098 39.287 55.325 40.4669 53.514 41.155C51.7029 41.8432 49.7369 42.0125 47.8356 41.644C45.9342 41.2755 44.1723 40.3838 42.7467 39.0684L37.517 39.8403L40.1318 35.3053C39.5327 33.8298 39.2764 32.2368 39.3823 30.647C39.4882 29.0573 39.9536 27.5126 40.7431 26.1304C41.5326 24.7481 42.6255 23.5645 43.9388 22.6695C45.2522 21.7745 46.7514 21.1916 48.3227 20.965C49.8941 20.7384 51.4962 20.8741 53.0074 21.3618C54.5187 21.8495 55.8994 22.6763 57.0447 23.7796C58.1901 24.8828 59.0699 26.2335 59.6175 27.729C60.1651 29.2245 60.366 30.8256 60.2049 32.4106V32.4348Z" fill="white"/>
<path d="M60.2049 32.4348C60.0012 34.3649 59.271 36.2012 58.0947 37.7417C57.5197 38.5199 56.8291 39.2049 56.047 39.7728C55.2771 40.3608 54.4273 40.8352 53.5235 41.1815C52.6217 41.5359 51.6754 41.7632 50.7115 41.857C50.2319 41.8975 49.7503 41.9072 49.2695 41.8859C48.7856 41.8703 48.3036 41.8187 47.8274 41.7315C45.901 41.3769 44.1115 40.4897 42.6602 39.1697L42.7803 39.2083L37.5458 40.0044L37.166 40.0623L37.3583 39.7294L39.9587 35.1799V35.3632C39.3437 33.8604 39.0807 32.2358 39.1898 30.6148C39.299 28.9938 39.7775 27.4196 40.5884 26.0135C41.403 24.6149 42.522 23.4192 43.8618 22.5157C45.5295 21.4128 47.4742 20.8063 49.471 20.7666C51.4678 20.7269 53.4349 21.2555 55.1448 22.2912C56.8547 23.327 58.2374 24.8276 59.1329 26.6193C60.0284 28.411 60.4 30.4206 60.2049 32.4155V32.4348ZM60.2049 32.4348C60.3718 30.8554 60.1752 29.2586 59.6304 27.7675C59.0856 26.2763 58.207 24.9306 57.0623 23.8339C55.9177 22.7373 54.5375 21.9189 53.0281 21.442C51.5187 20.965 49.9203 20.8422 48.3562 21.0829C46.8031 21.3158 45.3234 21.9016 44.0301 22.7956C42.7523 23.6965 41.6846 24.8652 40.9009 26.2209C40.1323 27.58 39.6788 29.0954 39.5742 30.6546C39.4797 32.2149 39.7309 33.7769 40.3096 35.2282L40.3481 35.3198L40.3 35.4067L37.6659 39.932L37.4833 39.657L42.713 38.9189H42.7851L42.838 38.9671C44.2339 40.2794 45.9667 41.1749 47.8419 41.553C48.3169 41.6507 48.7993 41.7088 49.2839 41.7267C49.764 41.7612 50.2459 41.7612 50.7259 41.7267C51.6809 41.6522 52.6209 41.4443 53.5187 41.1092C54.421 40.7819 55.2699 40.3218 56.0374 39.7438C56.4252 39.4608 56.7945 39.153 57.143 38.8224C57.4849 38.4803 57.806 38.1178 58.1043 37.7369C59.2768 36.1969 60.0036 34.3624 60.2049 32.4348Z" fill="#263238"/>
<path d="M48.5869 37.3268L44.1262 32.7918L45.6259 31.3059L48.2312 33.9545L53.6484 25.4297L55.4269 26.5683L48.5869 37.3268Z" fill="#33B4AF"/>
</g>
<defs>
<clipPath id="clip0_293_4637">
<rect width="201" height="209" fill="white" transform="translate(0.5)"/>
</clipPath>
</defs>
</svg>
