<svg width="200" height="200" viewBox="0 0 200 200" fill="none" xmlns="http://www.w3.org/2000/svg">
<path d="M200 152.961H0V153.061H200V152.961Z" fill="#EBEBEB"/>
<path d="M94.8001 135.12H17.5641C16.959 135.119 16.3791 134.878 15.9516 134.45C15.5241 134.021 15.2841 133.441 15.2841 132.836V24.264C15.2893 23.6624 15.5317 23.0872 15.9586 22.6633C16.3855 22.2394 16.9624 22.001 17.5641 22H94.8001C95.4058 22 95.9868 22.2406 96.4151 22.669C96.8434 23.0973 97.0841 23.6782 97.0841 24.284V132.836C97.0841 133.442 96.8434 134.023 96.4151 134.451C95.9868 134.879 95.4058 135.12 94.8001 135.12ZM17.5641 22.08C16.9855 22.0811 16.431 22.3116 16.0223 22.7211C15.6136 23.1306 15.3841 23.6855 15.3841 24.264V132.836C15.3841 133.415 15.6136 133.969 16.0223 134.379C16.431 134.788 16.9855 135.019 17.5641 135.02H94.8001C95.379 135.019 95.9339 134.789 96.3432 134.379C96.7526 133.97 96.983 133.415 96.9841 132.836V24.264C96.983 23.6851 96.7526 23.1302 96.3432 22.7208C95.9339 22.3115 95.379 22.0811 94.8001 22.08H17.5641Z" fill="#EBEBEB"/>
<path d="M181.324 135.12H104.084C103.479 135.119 102.898 134.878 102.47 134.45C102.042 134.022 101.801 133.441 101.8 132.836V24.264C101.806 23.662 102.05 23.0868 102.477 22.663C102.905 22.2392 103.482 22.001 104.084 22H181.324C181.925 22.0021 182.501 22.2409 182.927 22.6647C183.353 23.0885 183.595 23.6631 183.6 24.264V132.836C183.6 133.44 183.361 134.02 182.934 134.448C182.507 134.876 181.928 135.118 181.324 135.12ZM104.084 22.08C103.505 22.0811 102.95 22.3115 102.541 22.7208C102.132 23.1302 101.901 23.6851 101.9 24.264V132.836C101.901 133.415 102.132 133.97 102.541 134.379C102.95 134.789 103.505 135.019 104.084 135.02H181.324C181.903 135.019 182.458 134.789 182.867 134.379C183.277 133.97 183.507 133.415 183.508 132.836V24.264C183.507 23.6851 183.277 23.1302 182.867 22.7208C182.458 22.3115 181.903 22.0811 181.324 22.08H104.084Z" fill="#EBEBEB"/>
<path d="M179.96 159.396H169.56V159.496H179.96V159.396Z" fill="#EBEBEB"/>
<path d="M142.412 160.484H124.4V160.584H142.412V160.484Z" fill="#EBEBEB"/>
<path d="M169.16 155.684H144.844V155.784H169.16V155.684Z" fill="#EBEBEB"/>
<path d="M28.676 156.355H20.984V156.455H28.676V156.355Z" fill="#EBEBEB"/>
<path d="M54.356 156.355H32.24V156.455H54.356V156.355Z" fill="#EBEBEB"/>
<path d="M97.656 158.045H67.868V158.145H97.656V158.045Z" fill="#EBEBEB"/>
<path d="M151.436 150.912H154.636V91.6921H151.436V150.912Z" fill="#F0F0F0"/>
<path d="M136.08 152.951H153.796V150.907H136.08V152.951Z" fill="#F0F0F0"/>
<path d="M151.44 91.6875H135.232V150.907H151.44V91.6875Z" fill="#F5F5F5"/>
<path d="M149.712 122.527H136.96V133.103H149.712V122.527Z" fill="#F0F0F0"/>
<path d="M149.712 136.367H136.96V146.943H149.712V136.367Z" fill="#F0F0F0"/>
<path d="M141.636 128.539H145.032C145.293 128.539 145.504 128.328 145.504 128.067V127.559C145.504 127.298 145.293 127.087 145.032 127.087H141.636C141.375 127.087 141.164 127.298 141.164 127.559V128.067C141.164 128.328 141.375 128.539 141.636 128.539Z" fill="#F5F5F5"/>
<path d="M141.636 142.381H145.032C145.293 142.381 145.504 142.17 145.504 141.909V141.401C145.504 141.14 145.293 140.929 145.032 140.929H141.636C141.375 140.929 141.164 141.14 141.164 141.401V141.909C141.164 142.17 141.375 142.381 141.636 142.381Z" fill="#F5F5F5"/>
<path d="M149.712 94.9551H136.96V105.531H149.712V94.9551Z" fill="#F0F0F0"/>
<path d="M149.712 108.684H136.96V119.26H149.712V108.684Z" fill="#F0F0F0"/>
<path d="M141.636 100.969H145.032C145.293 100.969 145.504 100.757 145.504 100.497V99.9887C145.504 99.7281 145.293 99.5167 145.032 99.5167H141.636C141.375 99.5167 141.164 99.7281 141.164 99.9887V100.497C141.164 100.757 141.375 100.969 141.636 100.969Z" fill="#F5F5F5"/>
<path d="M141.636 114.699H145.032C145.293 114.699 145.504 114.488 145.504 114.227V113.719C145.504 113.459 145.293 113.247 145.032 113.247H141.636C141.375 113.247 141.164 113.459 141.164 113.719V114.227C141.164 114.488 141.375 114.699 141.636 114.699Z" fill="#F5F5F5"/>
<path d="M169.176 150.912H178.776V91.6921H169.176V150.912Z" fill="#F0F0F0"/>
<path d="M153.808 152.951H177.788V150.907H153.808V152.951Z" fill="#F0F0F0"/>
<path d="M169.176 91.6875H152.968V150.907H169.176V91.6875Z" fill="#F5F5F5"/>
<path d="M167.448 122.527H154.696V133.103H167.448V122.527Z" fill="#F0F0F0"/>
<path d="M167.448 136.367H154.696V146.943H167.448V136.367Z" fill="#F0F0F0"/>
<path d="M159.372 128.539H162.768C163.029 128.539 163.24 128.328 163.24 128.067V127.559C163.24 127.298 163.029 127.087 162.768 127.087H159.372C159.111 127.087 158.9 127.298 158.9 127.559V128.067C158.9 128.328 159.111 128.539 159.372 128.539Z" fill="#F5F5F5"/>
<path d="M159.372 142.381H162.768C163.029 142.381 163.24 142.17 163.24 141.909V141.401C163.24 141.14 163.029 140.929 162.768 140.929H159.372C159.111 140.929 158.9 141.14 158.9 141.401V141.909C158.9 142.17 159.111 142.381 159.372 142.381Z" fill="#F5F5F5"/>
<path d="M167.448 94.9551H154.696V105.531H167.448V94.9551Z" fill="#F0F0F0"/>
<path d="M167.448 108.684H154.696V119.26H167.448V108.684Z" fill="#F0F0F0"/>
<path d="M159.372 100.969H162.768C163.029 100.969 163.24 100.757 163.24 100.497V99.9887C163.24 99.7281 163.029 99.5167 162.768 99.5167H159.372C159.111 99.5167 158.9 99.7281 158.9 99.9887V100.497C158.9 100.757 159.111 100.969 159.372 100.969Z" fill="#F5F5F5"/>
<path d="M159.372 114.699H162.768C163.029 114.699 163.24 114.488 163.24 114.227V113.719C163.24 113.459 163.029 113.247 162.768 113.247H159.372C159.111 113.247 158.9 113.459 158.9 113.719V114.227C158.9 114.488 159.111 114.699 159.372 114.699Z" fill="#F5F5F5"/>
<path d="M117.052 79.3281H170.936V32.0241L117.052 32.0241V79.3281Z" fill="#E6E6E6"/>
<path d="M111.276 30.1836H174.424C174.566 30.1836 174.703 30.2401 174.803 30.3406C174.904 30.4411 174.96 30.5774 174.96 30.7196C174.959 30.8611 174.902 30.9964 174.802 31.096C174.701 31.1957 174.565 31.2516 174.424 31.2516H111.276C111.135 31.2505 111.001 31.1942 110.901 31.0946C110.801 30.9951 110.745 30.8604 110.744 30.7196C110.744 30.5781 110.8 30.4424 110.9 30.342C110.999 30.2416 111.135 30.1846 111.276 30.1836Z" fill="#E6E6E6"/>
<path d="M114.768 79.3281H169.872V32.0241L114.768 32.0241V79.3281Z" fill="#F0F0F0"/>
<path d="M117.052 79.3281H170.936V80.8441H115.476L117.052 79.3281Z" fill="#E6E6E6"/>
<path d="M110.956 79.3281H166.06L164.484 80.8441H109.38L110.956 79.3281Z" fill="#F0F0F0"/>
<path d="M166.668 76.1286V35.2246H117.968V76.1286H166.668Z" fill="#FAFAFA"/>
<path d="M155.612 76.1286L136.824 35.2246H127.956L146.744 76.1286H155.612Z" fill="white"/>
<path d="M144.84 76.1286L126.052 35.2246H122.592L141.38 76.1286H144.84Z" fill="white"/>
<path d="M118.372 76.1286V35.2246H117.964V76.1286H118.372Z" fill="#E6E6E6"/>
<g opacity="0.4">
<path d="M166.628 68.2598H172.136V29.2238H166.628V68.2598Z" fill="#F0F0F0"/>
<path d="M164.484 68.2598H168.776V29.2238H164.484V68.2598Z" fill="#E6E6E6"/>
<path d="M161.124 68.2598H166.632V29.2238H161.124V68.2598Z" fill="#F0F0F0"/>
<path d="M158.976 68.2598H163.268V29.2238H158.976V68.2598Z" fill="#E6E6E6"/>
<path d="M155.612 68.2598H161.12V29.2238H155.612V68.2598Z" fill="#F0F0F0"/>
</g>
<g opacity="0.4">
<path d="M120.016 68.2598H123.192V29.2238H120.016V68.2598Z" fill="#F0F0F0"/>
<path d="M118.78 68.2598H121.252V29.2238H118.78V68.2598Z" fill="#E6E6E6"/>
<path d="M116.84 68.2598H120.016V29.2238H116.84V68.2598Z" fill="#F0F0F0"/>
<path d="M115.608 68.2598H118.08V29.2238H115.608V68.2598Z" fill="#E6E6E6"/>
<path d="M113.664 68.2598H116.84V29.2238H113.664V68.2598Z" fill="#F0F0F0"/>
</g>
<path d="M65.688 60.6797H73.312L72.412 41.3438H65.688V60.6797Z" fill="#F5F5F5"/>
<path d="M77.62 61.7246L79.264 70.3126H77.62L67.536 61.7246H77.62Z" fill="#F5F5F5"/>
<path d="M79.2641 61.7246V70.3126L69.1801 61.7246H79.2641Z" fill="#E6E6E6"/>
<path d="M38.072 61.7246L39.716 70.3126H38.072L27.988 61.7246H38.072Z" fill="#F5F5F5"/>
<path d="M39.716 61.7246V70.3126L29.632 61.7246H39.716Z" fill="#E6E6E6"/>
<path d="M86.668 60.707H75.7V61.947H86.668V60.707Z" fill="#E6E6E6"/>
<path d="M21.1719 61.9473L75.7 61.9473V60.7073L21.1719 60.7073V61.9473Z" fill="#F5F5F5"/>
<path d="M54.484 60.68H70.852L72.876 37.248H56.508L54.484 60.68Z" fill="#E6E6E6"/>
<path d="M53.636 60.68H70.004L72.028 37.248H55.66L53.636 60.68Z" fill="#F0F0F0"/>
<path d="M68.632 58.0838L70.484 39.8398H57.036L55.184 58.0838H68.632Z" fill="white"/>
<path d="M47.156 60.6793H52.408L51.788 47.3633H47.156V60.6793Z" fill="#E0E0E0"/>
<path d="M39.444 60.6809H50.712L52.108 44.5449H40.836L39.444 60.6809Z" fill="#F0F0F0"/>
<path d="M38.86 60.6809H50.132L51.524 44.5449H40.252L38.86 60.6809Z" fill="#F5F5F5"/>
<path d="M49.184 58.892L50.456 46.332H41.2L39.924 58.892H49.184Z" fill="#E0E0E0"/>
<path d="M104.944 94.5759C104.981 95.0231 104.885 95.4713 104.668 95.8638C104.45 96.2563 104.121 96.5755 103.722 96.7809C103.323 96.9863 102.872 97.0687 102.426 97.0177C101.98 96.9667 101.56 96.7846 101.217 96.4944C100.875 96.2042 100.626 95.8189 100.503 95.3874C100.38 94.9559 100.387 94.4976 100.525 94.0703C100.662 93.6431 100.923 93.2662 101.275 92.9873C101.626 92.7085 102.053 92.5402 102.5 92.5039C102.797 92.4792 103.095 92.5133 103.379 92.6041C103.662 92.6949 103.925 92.8407 104.152 93.0332C104.379 93.2256 104.565 93.4609 104.701 93.7256C104.837 93.9904 104.92 94.2793 104.944 94.5759Z" fill="#E0E0E0"/>
<path d="M109.156 95.7592C109.193 96.2064 109.097 96.6546 108.88 97.0471C108.662 97.4396 108.333 97.7588 107.934 97.9642C107.535 98.1696 107.084 98.252 106.638 98.201C106.192 98.15 105.771 97.9679 105.429 97.6777C105.087 97.3874 104.838 97.0022 104.715 96.5707C104.592 96.1392 104.599 95.6808 104.737 95.2536C104.874 94.8264 105.135 94.4495 105.487 94.1706C105.838 93.8918 106.265 93.7235 106.712 93.6872C107.311 93.6385 107.904 93.8293 108.362 94.2177C108.821 94.6062 109.106 95.1605 109.156 95.7592Z" fill="#E0E0E0"/>
<path d="M112.2 94.3995C112.236 94.8467 112.14 95.2946 111.921 95.6866C111.703 96.0787 111.374 96.3972 110.975 96.602C110.576 96.8068 110.125 96.8886 109.679 96.8371C109.233 96.7856 108.813 96.6031 108.471 96.3127C108.129 96.0222 107.881 95.6369 107.758 95.2055C107.635 94.774 107.643 94.3158 107.781 93.8888C107.918 93.4618 108.179 93.0852 108.531 92.8066C108.883 92.5279 109.309 92.3598 109.756 92.3235C110.355 92.276 110.949 92.4677 111.407 92.8568C111.865 93.2459 112.15 93.8006 112.2 94.3995Z" fill="#E0E0E0"/>
<path d="M115.412 95.2478C115.448 95.6939 115.35 96.1405 115.132 96.5312C114.914 96.922 114.585 97.2394 114.187 97.4433C113.789 97.6472 113.339 97.7286 112.894 97.677C112.45 97.6254 112.031 97.4433 111.69 97.1536C111.348 96.8639 111.101 96.4796 110.978 96.0493C110.855 95.619 110.863 95.162 111 94.7359C111.136 94.3099 111.396 93.9339 111.747 93.6555C112.097 93.3771 112.522 93.2088 112.968 93.1718C113.265 93.1472 113.564 93.1814 113.847 93.2725C114.131 93.3635 114.394 93.5097 114.621 93.7025C114.848 93.8954 115.035 94.1312 115.17 94.3963C115.306 94.6615 115.388 94.9509 115.412 95.2478Z" fill="#E0E0E0"/>
<path d="M118.296 95.5996C118.296 95.5996 118.032 101.896 107.92 101.896C97.808 101.896 97.52 95.5996 97.52 95.5996H118.296Z" fill="#F0F0F0"/>
<path d="M23.9521 152.961H27.6281L27.6281 101.909H23.9521L23.9521 152.961Z" fill="#E6E6E6"/>
<path d="M22.972 152.961H25.136L25.136 101.909H22.972L22.972 152.961Z" fill="#F0F0F0"/>
<path d="M74.4841 101.908H22.3V105.736H74.4841V101.908Z" fill="#F0F0F0"/>
<path d="M123.904 152.961H127.58V101.909H123.904V152.961Z" fill="#E6E6E6"/>
<path d="M123.216 152.961H125.38V101.909H123.216V152.961Z" fill="#F0F0F0"/>
<path d="M128.236 101.908H76.052V105.736H128.236V101.908Z" fill="#E6E6E6"/>
<path d="M74.792 152.961H78.468V101.909H74.792V152.961Z" fill="#E6E6E6"/>
<path d="M73.812 152.961H75.976V101.909H73.812V152.961Z" fill="#F0F0F0"/>
<path d="M86.856 84.9277H59.612L54.756 101.016H82.004L86.856 84.9277Z" fill="#E6E6E6"/>
<path d="M82.0039 101.016L81.896 101.908H54.6479L54.756 101.016H82.0039Z" fill="#E6E6E6"/>
<path d="M86.02 84.9277H58.772L53.92 101.016H81.164L86.02 84.9277Z" fill="#F0F0F0"/>
<path d="M80.632 100.284L85.04 85.6641H59.308L54.896 100.284H80.632Z" fill="white"/>
<path d="M74.068 101.016L73.956 101.908H43.952L44.06 101.016H74.068Z" fill="#F0F0F0"/>
<path d="M100 171.025C142.833 171.025 177.556 168.997 177.556 166.497C177.556 163.996 142.833 161.969 100 161.969C57.167 161.969 22.444 163.996 22.444 166.497C22.444 168.997 57.167 171.025 100 171.025Z" fill="#F5F5F5"/>
<path d="M131.02 43.6605H84.984C83.4051 43.6864 81.8925 44.3 80.7416 45.3814C79.5907 46.4627 78.8842 47.9342 78.76 49.5085L71.6001 159.732C71.5417 160.483 71.6402 161.237 71.8894 161.948C72.1385 162.658 72.5328 163.309 73.0471 163.859C73.5614 164.408 74.1845 164.845 74.8768 165.141C75.5691 165.436 76.3153 165.585 77.0681 165.576H123.12C124.699 165.552 126.211 164.939 127.362 163.858C128.513 162.777 129.22 161.306 129.344 159.732L134.48 80.5085C134.698 80.4324 134.89 80.2948 135.032 80.1125C135.174 79.9301 135.26 79.7107 135.28 79.4805L136.2 65.3045C136.216 65.0843 136.16 64.8648 136.04 64.6793C135.92 64.4938 135.743 64.3524 135.536 64.2765L136.492 49.5085C136.55 48.7574 136.452 48.0025 136.202 47.2916C135.953 46.5808 135.559 45.9296 135.044 45.3795C134.529 44.8294 133.906 44.3925 133.213 44.0966C132.52 43.8006 131.773 43.6521 131.02 43.6605Z" fill="#00A19B"/>
<path d="M75.0321 72.201H75.9361C76.2158 72.196 76.4837 72.0872 76.6877 71.8958C76.8917 71.7043 77.0173 71.4439 77.0401 71.165L77.4401 65.245C77.4501 65.1118 77.4323 64.978 77.3878 64.8521C77.3434 64.7261 77.2732 64.6108 77.1818 64.5134C77.0904 64.416 76.9798 64.3386 76.8569 64.2862C76.7341 64.2338 76.6017 64.2076 76.4681 64.209H75.5681C75.2881 64.2132 75.0197 64.3217 74.8155 64.5133C74.6113 64.7049 74.486 64.9659 74.4641 65.245L74.0641 71.165C74.0541 71.2979 74.0718 71.4314 74.1161 71.557C74.1603 71.6827 74.2301 71.7979 74.321 71.8952C74.412 71.9926 74.5221 72.07 74.6445 72.1226C74.7669 72.1753 74.8989 72.202 75.0321 72.201Z" fill="#00A19B"/>
<path d="M74.348 82.7694H75.248C75.5288 82.7644 75.7977 82.6552 76.0025 82.463C76.2072 82.2708 76.3333 82.0093 76.356 81.7294L76.756 75.8134C76.766 75.6802 76.7482 75.5464 76.7037 75.4204C76.6593 75.2945 76.5891 75.1792 76.4977 75.0818C76.4064 74.9843 76.2957 74.907 76.1729 74.8546C76.05 74.8022 75.9176 74.7759 75.784 74.7774H74.884C74.6036 74.7814 74.3347 74.8898 74.1299 75.0813C73.925 75.2729 73.7989 75.5339 73.776 75.8134L73.376 81.7294C73.3648 81.8631 73.3818 81.9976 73.4257 82.1243C73.4697 82.251 73.5397 82.367 73.6313 82.465C73.7229 82.563 73.834 82.6407 73.9574 82.6931C74.0809 82.7456 74.2139 82.7715 74.348 82.7694Z" fill="#00A19B"/>
<path d="M120.672 165.576H74.636C73.8833 165.585 73.1371 165.436 72.4448 165.141C71.7525 164.845 71.1294 164.408 70.6151 163.859C70.1008 163.309 69.7065 162.658 69.4574 161.948C69.2082 161.237 69.1097 160.483 69.168 159.732L76.312 49.5084C76.4372 47.9338 77.1445 46.4623 78.296 45.381C79.4476 44.2997 80.9607 43.6863 82.54 43.6604H128.572C129.325 43.6526 130.071 43.8016 130.764 44.0978C131.456 44.394 132.079 44.831 132.593 45.381C133.107 45.931 133.502 46.5819 133.751 47.2925C134 48.0031 134.098 48.7577 134.04 49.5084L126.896 159.732C126.772 161.306 126.065 162.777 124.914 163.858C123.763 164.939 122.251 165.551 120.672 165.576Z" fill="#263238"/>
<path opacity="0.2" d="M100.783 160.89C102.396 159.328 102.517 156.838 101.055 155.327C99.5918 153.816 97.0986 153.856 95.486 155.417C93.8733 156.979 93.7519 159.469 95.2146 160.98C96.6774 162.491 99.1706 162.451 100.783 160.89Z" fill="white"/>
<path d="M124.832 151.268H72.5001C72.3219 151.268 72.1456 151.231 71.9821 151.16C71.8187 151.09 71.6715 150.986 71.5496 150.856C71.4278 150.726 71.334 150.572 71.2738 150.404C71.2137 150.236 71.1886 150.058 71.2001 149.88L77.3241 55.3523C77.3511 55.0259 77.4997 54.7214 77.7404 54.4992C77.9812 54.277 78.2965 54.1532 78.6241 54.1523H130.96C131.138 54.1525 131.315 54.1892 131.478 54.2602C131.642 54.3312 131.789 54.4349 131.911 54.5649C132.032 54.695 132.126 54.8487 132.186 55.0164C132.246 55.1842 132.272 55.3625 132.26 55.5403L126.132 150.048C126.111 150.379 125.965 150.689 125.723 150.915C125.482 151.142 125.163 151.268 124.832 151.268Z" fill="white"/>
<path opacity="0.2" d="M110.23 114.011C116.084 108.344 116.525 99.3031 111.215 93.8175C105.904 88.332 96.8541 88.4789 91.0003 94.1457C85.1465 99.8124 84.7059 108.853 90.0162 114.339C95.3265 119.824 104.377 119.677 110.23 114.011Z" fill="#00A19B"/>
<path opacity="0.2" d="M99.2001 126.105C87.0521 126.105 77.8081 116.221 78.5961 104.073C79.3841 91.925 89.9041 82.041 102.056 82.041C114.208 82.041 123.448 91.925 122.66 104.073C121.872 116.221 111.336 126.105 99.2001 126.105ZM102 82.441C90.0721 82.441 79.7401 92.145 78.9681 104.073C78.1961 116.001 87.2681 125.705 99.1961 125.705C111.124 125.705 121.456 116.001 122.232 104.073C123.008 92.145 113.944 82.441 102 82.441Z" fill="#00A19B"/>
<path d="M97.2001 110.997L96.0001 108.681C93.4001 103.637 87.4121 99.1288 85.3201 97.8168L87.2961 94.8608C89.7721 96.4128 94.7201 100.257 97.8241 104.825C103.564 98.0248 111.676 91.0208 122.536 83.4648L124.388 86.2648C112.788 94.3368 104.44 101.717 98.8881 108.829L97.2001 110.997Z" fill="#00A19B"/>
<path opacity="0.2" d="M96.6327 49.9522C97.2851 49.3207 97.3331 48.3121 96.74 47.6994C96.1469 47.0867 95.1373 47.102 94.4849 47.7335C93.8325 48.365 93.7845 49.3736 94.3776 49.9863C94.9707 50.599 95.9804 50.5837 96.6327 49.9522Z" fill="white"/>
<path opacity="0.2" d="M101.164 47.2481H114.4C114.606 47.2457 114.81 47.2864 114.999 47.3674C115.188 47.4485 115.358 47.5682 115.498 47.7189C115.638 47.8695 115.745 48.0478 115.812 48.2423C115.88 48.4368 115.905 48.6431 115.888 48.8481C115.855 49.2781 115.663 49.6804 115.35 49.9763C115.036 50.2722 114.623 50.4404 114.192 50.4481H100.96C100.754 50.4499 100.551 50.4088 100.362 50.3276C100.173 50.2464 100.002 50.1267 99.8622 49.9763C99.7219 49.8258 99.6144 49.6478 99.5465 49.4536C99.4787 49.2594 99.452 49.0532 99.468 48.8481C99.5008 48.4182 99.6928 48.0159 100.006 47.72C100.32 47.4241 100.733 47.2559 101.164 47.2481Z" fill="white"/>
</svg>
