<svg width="140" height="24" viewBox="0 0 140 24" fill="none" xmlns="http://www.w3.org/2000/svg">
<path fill-rule="evenodd" clip-rule="evenodd" d="M70.9743 19.3403H69.1976L70.5727 15.9451L67.8361 9.04052H69.7136L71.4332 13.7398L73.1664 9.04052H75.0439L70.9743 19.3403ZM64.1532 16.3753C63.5378 16.3753 62.906 16.1466 62.3342 15.7015V16.2038H60.5002V5.90268H62.3342V9.52787C62.906 9.09769 63.5378 8.86899 64.1532 8.86899C66.0729 8.86899 67.3908 10.4155 67.3908 12.6221C67.3908 14.8275 66.0729 16.3753 64.1532 16.3753ZM63.7665 10.444C63.2655 10.444 62.7631 10.6591 62.3342 11.0893V14.155C62.7631 14.5838 63.2655 14.7989 63.7665 14.7989C64.7985 14.7989 65.5147 13.9113 65.5147 12.6221C65.5147 11.333 64.7985 10.444 63.7665 10.444ZM53.0759 15.7015C52.5177 16.1466 51.8873 16.3753 51.2569 16.3753C49.3508 16.3753 48.0192 14.8275 48.0192 12.6221C48.0192 10.4155 49.3508 8.86899 51.2569 8.86899C51.8873 8.86899 52.5177 9.09769 53.0759 9.52787V5.90268H54.9248V16.2038H53.0759V15.7015ZM53.0759 11.0893C52.6606 10.6591 52.1596 10.444 51.6586 10.444C50.6116 10.444 49.8954 11.333 49.8954 12.6221C49.8954 13.9113 50.6116 14.7989 51.6586 14.7989C52.1596 14.7989 52.6606 14.5838 53.0759 14.155V11.0893ZM42.1579 13.1231C42.2723 14.2122 43.1328 14.9568 44.335 14.9568C44.9953 14.9568 45.7251 14.7131 46.4698 14.283V15.8172C45.6543 16.1888 44.8374 16.3753 44.0341 16.3753C41.8706 16.3753 40.3525 14.7989 40.3525 12.565C40.3525 10.4018 41.842 8.86899 43.8911 8.86899C45.7686 8.86899 47.043 10.3447 47.043 12.4493C47.043 12.6507 47.043 12.8794 47.0144 13.1231H42.1579ZM43.8203 10.2861C42.9313 10.2861 42.2437 10.9464 42.1579 11.9347H45.2812C45.224 10.96 44.6372 10.2861 43.8203 10.2861ZM37.3286 11.4187V16.2038H35.4947V9.04052H37.3286V9.75657C37.8446 9.18346 38.475 8.86899 39.0904 8.86899C39.2919 8.86899 39.4921 8.88261 39.6922 8.93978V10.5734C39.4921 10.5162 39.2633 10.4876 39.0482 10.4876C38.4464 10.4876 37.8011 10.817 37.3286 11.4187ZM29.1473 13.1231C29.2617 14.2122 30.1208 14.9568 31.3243 14.9568C31.9833 14.9568 32.7145 14.7131 33.4592 14.283V15.8172C32.6423 16.1888 31.8254 16.3753 31.0235 16.3753C28.86 16.3753 27.3419 14.7989 27.3419 12.565C27.3419 10.4018 28.8314 8.86899 30.8805 8.86899C32.7567 8.86899 34.0324 10.3447 34.0324 12.4493C34.0324 12.6507 34.0324 12.8794 34.0038 13.1231H29.1473ZM30.8083 10.2861C29.9206 10.2861 29.2331 10.9464 29.1473 11.9347H32.2706C32.2134 10.96 31.6252 10.2861 30.8083 10.2861ZM22.7414 16.2038L21.2791 11.333L19.8318 16.2038H18.1844L15.72 9.04052H17.554L19.0013 13.9113L20.4486 9.04052H22.1096L23.5569 13.9113L25.0042 9.04052H26.8382L24.3888 16.2038H22.7414ZM11.5347 16.3753C9.3713 16.3753 7.83823 14.8139 7.83823 12.6221C7.83823 10.4155 9.3713 8.86899 11.5347 8.86899C13.6982 8.86899 15.2176 10.4155 15.2176 12.6221C15.2176 14.8139 13.6982 16.3753 11.5347 16.3753ZM11.5347 10.4018C10.4605 10.4018 9.71576 11.3044 9.71576 12.6221C9.71576 13.9399 10.4605 14.8425 11.5347 14.8425C12.5954 14.8425 13.3401 13.9399 13.3401 12.6221C13.3401 11.3044 12.5954 10.4018 11.5347 10.4018ZM3.48139 12.6643H1.83396V16.2038H0V6.34647H3.48139C5.48826 6.34647 6.92057 7.65061 6.92057 9.5129C6.92057 11.3752 5.48826 12.6643 3.48139 12.6643ZM3.22406 7.83711H1.83396V11.1751H3.22406C4.28468 11.1751 5.02943 10.5012 5.02943 9.5129C5.02943 8.51097 4.28468 7.83711 3.22406 7.83711ZM139.616 13.3695H132.048C132.221 15.1814 133.548 15.7151 135.055 15.7151C136.59 15.7151 137.799 15.3911 138.853 14.8602V17.9735C137.803 18.5561 136.415 18.9754 134.568 18.9754C130.802 18.9754 128.163 16.6176 128.163 11.9565C128.163 8.01953 130.402 4.89394 134.079 4.89394C137.751 4.89394 139.668 8.01817 139.668 11.9769C139.668 12.3512 139.634 13.1612 139.616 13.3695ZM134.055 8.0454C133.088 8.0454 132.014 8.77506 132.014 10.5162H136.011C136.011 8.77642 135.004 8.0454 134.055 8.0454ZM121.906 18.9754C120.553 18.9754 119.726 18.405 119.171 17.998L119.162 22.3719L115.297 23.1942L115.296 5.15123H118.699L118.901 6.10552C119.435 5.60727 120.414 4.89394 121.929 4.89394C124.644 4.89394 127.201 7.33887 127.201 11.8394C127.201 16.751 124.671 18.9754 121.906 18.9754ZM121.005 8.31766C120.118 8.31766 119.561 8.64165 119.158 9.08408L119.181 14.8275C119.557 15.2345 120.098 15.5612 121.005 15.5612C122.434 15.5612 123.393 14.0052 123.393 11.9238C123.393 9.90224 122.419 8.31766 121.005 8.31766ZM109.708 5.15123H113.588V18.6991H109.708V5.15123ZM109.708 0.824959L113.588 0V3.14873L109.708 3.97369V0.824959ZM105.57 9.51426V18.6991H101.706V5.15123H105.049L105.291 6.29338C106.197 4.62985 108.003 4.96745 108.518 5.15259V8.70564C108.027 8.54636 106.484 8.31494 105.57 9.51426ZM97.2842 13.9467C97.2842 16.2242 99.7241 15.515 100.218 15.3176V18.4636C99.7037 18.7467 98.7696 18.9754 97.5062 18.9754C95.212 18.9754 93.4897 17.286 93.4897 14.9977L93.5074 2.5974L97.2815 1.79422L97.2842 5.15123H100.22V8.44698H97.2842V13.9467ZM92.4658 14.6056C92.4658 17.3881 90.2507 18.9754 87.0361 18.9754C85.7032 18.9754 84.2464 18.7168 82.8086 18.0987V14.4082C84.1061 15.1134 85.759 15.6429 87.0402 15.6429C87.9021 15.6429 88.5229 15.4115 88.5229 14.6968C88.5229 12.8522 82.6466 13.5465 82.6466 9.26786C82.6466 6.53161 84.7365 4.89394 87.8721 4.89394C89.1533 4.89394 90.4331 5.08997 91.7143 5.60047V9.24199C90.5379 8.60626 89.0444 8.24687 87.8694 8.24687C87.0593 8.24687 86.5555 8.48102 86.5555 9.08408C86.5555 10.8238 92.4658 9.99617 92.4658 14.6056Z" fill="#4A4A4A"/>
</svg>
