<svg width="200" height="200" viewBox="0 0 200 200" fill="none" xmlns="http://www.w3.org/2000/svg">
<path d="M62.4879 15.0081H13.7119V95.7441H62.4879V15.0081Z" fill="#E0E0E0"/>
<path d="M60.8639 15.0081H12.0879V95.7441H60.8639V15.0081Z" fill="#EBEBEB"/>
<path d="M58.788 16.644H14.168V94.104H58.788V16.644Z" fill="#FAFAFA"/>
<path d="M50.0959 26.708H22.6599V84.036H50.0959V26.708Z" fill="#EBEBEB"/>
<path d="M22.6598 63.7521C22.5958 58.3961 27.4118 53.1681 32.7158 52.4201C35.2438 52.0641 37.9158 52.5641 40.2958 51.5961C44.5118 49.8681 45.8558 44.2641 50.0998 42.6001L50.2918 84.0401H22.6598V63.7521Z" fill="#E0E0E0"/>
<path d="M169.64 37.4735L165.636 37.4951L165.744 57.4148L169.748 57.3932L169.64 37.4735Z" fill="#E0E0E0"/>
<path d="M141.325 37.5228L130.957 37.5789L131.017 48.5747L141.385 48.5186L141.325 37.5228Z" fill="#EBEBEB"/>
<path d="M151.645 37.471L141.277 37.5271L141.336 48.5229L151.704 48.4668L151.645 37.471Z" fill="#F5F5F5"/>
<path d="M130.972 40.6281C137.86 40.6841 144.768 40.6281 151.656 40.5321C151.682 40.5272 151.705 40.5136 151.721 40.4935C151.738 40.4734 151.747 40.4482 151.747 40.4221C151.747 40.3961 151.738 40.3708 151.721 40.3508C151.705 40.3307 151.682 40.317 151.656 40.3121C144.765 40.2721 137.871 40.3134 130.972 40.4361C130.947 40.4361 130.922 40.4462 130.904 40.4642C130.886 40.4822 130.876 40.5067 130.876 40.5321C130.876 40.5576 130.886 40.582 130.904 40.6C130.922 40.618 130.947 40.6281 130.972 40.6281Z" fill="#E0E0E0"/>
<path d="M143.332 48.3397L124.496 48.4417L124.544 57.4015L143.38 57.2996L143.332 48.3397Z" fill="#EBEBEB"/>
<path d="M162.075 48.2384L143.239 48.3403L143.287 57.3002L162.123 57.1983L162.075 48.2384Z" fill="#F5F5F5"/>
<path d="M124.504 50.9401C137.016 51.0841 149.572 50.9401 162.084 50.7561C162.11 50.7512 162.133 50.7376 162.149 50.7175C162.166 50.6974 162.175 50.6722 162.175 50.6461C162.175 50.6201 162.166 50.5949 162.149 50.5748C162.133 50.5547 162.11 50.541 162.084 50.5361C149.572 50.4681 137.016 50.4761 124.504 50.7521C124.482 50.7566 124.463 50.7684 124.449 50.7855C124.435 50.8027 124.427 50.8241 124.427 50.8461C124.427 50.8682 124.435 50.8896 124.449 50.9067C124.463 50.9239 124.482 50.9356 124.504 50.9401Z" fill="#E0E0E0"/>
<path d="M190.432 57.408H117.46V60.62H190.432V57.408Z" fill="#E0E0E0"/>
<path d="M132.372 58.9521H129.408V69.9081H132.372V58.9521Z" fill="#E0E0E0"/>
<path d="M176.592 58.9521H173.628V69.9081H176.592V58.9521Z" fill="#E0E0E0"/>
<path d="M173.548 30.0443L169.544 30.0659L169.692 57.4615L173.696 57.4398L173.548 30.0443Z" fill="#EBEBEB"/>
<path d="M179.804 35.1465L173.584 35.1802L173.704 57.3798L179.924 57.3462L179.804 35.1465Z" fill="#F5F5F5"/>
<path d="M179.756 39.432C177.685 39.576 175.607 39.576 173.536 39.432C175.607 39.288 177.685 39.288 179.756 39.432Z" fill="#E0E0E0"/>
<path d="M179.756 38.5001C177.685 38.6441 175.607 38.6441 173.536 38.5001C175.607 38.3561 177.685 38.3561 179.756 38.5001Z" fill="#E0E0E0"/>
<path d="M179.756 54.0001C177.685 54.1441 175.607 54.1441 173.536 54.0001C175.607 53.8561 177.685 53.8561 179.756 54.0001Z" fill="#E0E0E0"/>
<path d="M179.756 53.0841C177.685 53.2227 175.607 53.2227 173.536 53.0841C175.607 52.9401 177.685 52.9401 179.756 53.0841Z" fill="#E0E0E0"/>
<path d="M176.748 51.0479C176.688 51.0479 176.64 48.8079 176.64 46.0439C176.64 43.2799 176.688 41.0439 176.748 41.0439C176.808 41.0439 176.856 43.2799 176.856 46.0439C176.856 48.8079 176.8 51.0479 176.748 51.0479Z" fill="#E0E0E0"/>
<path d="M186.596 40.604H179.824V57.36H186.596V40.604Z" fill="#EBEBEB"/>
<path d="M172.636 34.7321C172.64 34.9608 172.576 35.1854 172.452 35.3775C172.327 35.5695 172.149 35.7203 171.939 35.8106C171.729 35.9008 171.496 35.9265 171.272 35.8844C171.047 35.8422 170.84 35.7341 170.677 35.5738C170.513 35.4135 170.402 35.2083 170.356 34.9843C170.31 34.7603 170.331 34.5277 170.418 34.316C170.504 34.1043 170.652 33.9232 170.842 33.7957C171.032 33.6682 171.255 33.6001 171.484 33.6001C171.786 33.599 172.077 33.7173 172.293 33.9293C172.508 34.1412 172.632 34.4297 172.636 34.7321Z" fill="#E0E0E0"/>
<path d="M171.84 37.896H171.128V54.192H171.84V37.896Z" fill="#E0E0E0"/>
<path d="M69.5158 165.04C69.5158 165.04 65.8478 167.84 69.3598 171.524C69.3898 171.555 69.4258 171.58 69.4657 171.598C69.5055 171.615 69.5484 171.624 69.5918 171.624L101.636 171.436C101.636 171.436 104.372 168.368 102.1 164.832L69.5158 165.04Z" fill="#EBEBEB"/>
<path d="M94.5519 167.956C94.5519 167.992 90.5519 168.02 85.6439 168.02C80.7359 168.02 76.7319 167.992 76.7319 167.956C76.7319 167.92 80.7319 167.892 85.6439 167.892C90.5559 167.892 94.5519 167.92 94.5519 167.956Z" fill="#E0E0E0"/>
<path d="M89.5679 169.116C89.5679 169.152 87.6959 169.18 85.3799 169.18C83.0639 169.18 81.1919 169.152 81.1919 169.116C81.1919 169.08 83.0679 169.048 85.3799 169.048C87.6919 169.048 89.5679 169.08 89.5679 169.116Z" fill="#E0E0E0"/>
<path d="M97.8278 171.332C97.8278 171.332 97.8998 170.964 97.9998 170.372C98.128 169.6 98.1896 168.818 98.1838 168.036C98.176 167.252 98.0997 166.471 97.9558 165.7C97.8438 165.108 97.7478 164.748 97.7678 164.74C97.807 164.819 97.8379 164.902 97.8598 164.988C97.9345 165.215 97.9959 165.446 98.0438 165.68C98.2154 166.453 98.3065 167.241 98.3158 168.032C98.3203 168.823 98.2439 169.612 98.0878 170.388C98.0278 170.684 97.9678 170.924 97.9198 171.084C97.8718 171.244 97.8398 171.336 97.8278 171.332Z" fill="#E0E0E0"/>
<path d="M100.22 164.8C100.279 164.87 100.327 164.948 100.364 165.032C100.417 165.126 100.465 165.222 100.508 165.32C100.568 165.45 100.622 165.584 100.668 165.72C100.799 166.064 100.902 166.419 100.976 166.78C101.06 167.225 101.106 167.676 101.116 168.128C101.115 168.581 101.075 169.034 100.996 169.48C100.929 169.843 100.833 170.2 100.708 170.548C100.66 170.7 100.6 170.828 100.552 170.948C100.512 171.047 100.465 171.143 100.412 171.236C100.377 171.32 100.331 171.399 100.276 171.472C100.252 171.472 100.432 171.116 100.624 170.524C100.871 169.748 100.993 168.938 100.984 168.124C100.978 167.679 100.936 167.234 100.856 166.796C100.79 166.438 100.699 166.085 100.584 165.74C100.4 165.144 100.2 164.8 100.22 164.8Z" fill="#E0E0E0"/>
<path d="M74.5719 171.376C74.5126 171.311 74.4616 171.238 74.4199 171.16C74.365 171.075 74.3156 170.987 74.2719 170.896C74.2084 170.776 74.151 170.654 74.0999 170.528C73.9643 170.201 73.8599 169.863 73.7879 169.516C73.7037 169.091 73.6622 168.658 73.6639 168.224C73.6734 167.791 73.727 167.359 73.8239 166.936C73.9048 166.593 74.0186 166.258 74.1639 165.936C74.2166 165.811 74.2767 165.69 74.3439 165.572C74.3884 165.48 74.4406 165.392 74.4999 165.308C74.5919 165.168 74.6479 165.092 74.6559 165.1C74.6639 165.108 74.4719 165.42 74.2559 165.972C74.1252 166.293 74.0222 166.625 73.9479 166.964C73.8611 167.38 73.8116 167.803 73.7999 168.228C73.8005 168.652 73.838 169.075 73.9119 169.492C73.9798 169.832 74.0734 170.166 74.1919 170.492C74.3999 171.048 74.5919 171.364 74.5719 171.376Z" fill="#E0E0E0"/>
<path d="M71.1119 172.156C71.0456 172.085 70.9903 172.004 70.9479 171.916C70.8904 171.815 70.8409 171.709 70.7999 171.6C70.7272 171.47 70.6618 171.337 70.6039 171.2C70.4495 170.834 70.3277 170.455 70.2399 170.068C70.0161 169.118 69.9943 168.131 70.1759 167.172C70.2464 166.781 70.3521 166.396 70.4919 166.024C70.5439 165.864 70.6119 165.728 70.6639 165.604C70.7101 165.498 70.7622 165.396 70.8199 165.296C70.8622 165.207 70.9131 165.123 70.9719 165.044C70.9959 165.044 70.7919 165.424 70.5719 166.056C70.448 166.427 70.3531 166.807 70.2879 167.192C70.2128 167.664 70.178 168.142 70.1839 168.62C70.2048 169.491 70.3739 170.353 70.6839 171.168C70.9119 171.788 71.1319 172.144 71.1119 172.156Z" fill="#E0E0E0"/>
<path d="M100.46 181.2V187.328H88.5959V181.2H100.46Z" fill="#EBEBEB"/>
<path d="M62.14 184.316C62.14 184.372 62.14 184.424 62.14 184.48C62.1972 185.375 62.5944 186.214 63.2504 186.825C63.9064 187.437 64.7713 187.774 65.668 187.768H101.004V187.324H92.604C91.7914 187.324 91.012 187.001 90.4374 186.427C89.8628 185.852 89.54 185.073 89.54 184.26C89.54 183.447 89.8628 182.668 90.4374 182.093C91.012 181.519 91.7914 181.196 92.604 181.196H101.004V180.544L65.66 180.664C65.1869 180.665 64.7189 180.762 64.2837 180.947C63.8486 181.133 63.4552 181.404 63.1269 181.745C62.7986 182.085 62.542 182.489 62.3725 182.93C62.203 183.372 62.1239 183.843 62.14 184.316Z" fill="#E0E0E0"/>
<path d="M100.46 184.34C100.46 184.376 98.02 184.408 95.012 184.408C92.004 184.408 89.564 184.376 89.564 184.34C89.564 184.304 92.004 184.276 95.012 184.276C98.02 184.276 100.46 184.308 100.46 184.34Z" fill="#E0E0E0"/>
<path d="M100.288 185.724C100.288 185.76 97.9798 185.788 95.1318 185.788C92.2838 185.788 89.9758 185.76 89.9758 185.724C89.9758 185.688 92.2838 185.66 95.1318 185.66C97.9798 185.66 100.288 185.688 100.288 185.724Z" fill="#E0E0E0"/>
<path d="M100.46 186.988C100.46 187.024 98.384 187.052 95.824 187.052C93.264 187.052 91.188 187.024 91.188 186.988C91.188 186.952 93.264 186.924 95.824 186.924C98.384 186.924 100.46 186.952 100.46 186.988Z" fill="#E0E0E0"/>
<path d="M100.46 183.1C100.46 183.136 98.0598 183.164 95.1238 183.164C92.1878 183.164 89.7878 183.136 89.7878 183.1C89.7878 183.064 92.1878 183.036 95.1238 183.036C98.0598 183.036 100.46 183.064 100.46 183.1Z" fill="#E0E0E0"/>
<path d="M100.288 181.86C100.288 181.896 98.1598 181.924 95.5398 181.924C92.9198 181.924 90.7878 181.896 90.7878 181.86C90.7878 181.824 92.9158 181.796 95.5398 181.796C98.1638 181.796 100.288 181.824 100.288 181.86Z" fill="#E0E0E0"/>
<path d="M66.4239 180.764C66.1495 181.041 65.8979 181.339 65.6719 181.656C65.1355 182.43 64.8532 183.352 64.8639 184.294C64.8747 185.235 65.178 186.151 65.7319 186.912C65.9673 187.223 66.2253 187.516 66.5039 187.788C66.4131 187.735 66.3286 187.672 66.2519 187.6C66.0329 187.411 65.8344 187.199 65.6599 186.968C65.0715 186.2 64.7477 185.262 64.7369 184.294C64.726 183.327 65.0288 182.381 65.5999 181.6C65.7679 181.365 65.9611 181.149 66.1759 180.956C66.2498 180.882 66.3332 180.817 66.4239 180.764Z" fill="#F5F5F5"/>
<path d="M65.228 180.632C64.957 180.913 64.7057 181.212 64.476 181.528C63.9416 182.302 63.6608 183.224 63.6723 184.164C63.6837 185.105 63.9869 186.019 64.54 186.78C64.7739 187.092 65.032 187.385 65.312 187.656C65.2187 187.605 65.1326 187.542 65.056 187.468C64.8369 187.279 64.6385 187.067 64.464 186.836C63.8756 186.07 63.5514 185.133 63.5399 184.167C63.5283 183.2 63.8301 182.256 64.4 181.476C64.5681 181.24 64.7612 181.023 64.976 180.828C65.0519 180.753 65.1365 180.687 65.228 180.632Z" fill="#F5F5F5"/>
<path d="M89.236 180.764C88.965 181.043 88.715 181.341 88.488 181.656C87.9516 182.43 87.6692 183.352 87.68 184.294C87.6907 185.235 87.9941 186.151 88.548 186.912C88.7833 187.223 89.0414 187.516 89.32 187.788C89.2274 187.736 89.1415 187.673 89.064 187.6C88.8464 187.411 88.6493 187.199 88.476 186.968C87.8852 186.202 87.5586 185.264 87.5449 184.297C87.5312 183.329 87.8312 182.383 88.4 181.6C88.5668 181.364 88.7601 181.148 88.976 180.956C89.0551 180.882 89.1423 180.818 89.236 180.764Z" fill="#F5F5F5"/>
<path d="M88.0439 180.632C87.7701 180.911 87.5187 181.21 87.2919 181.528C86.7553 182.301 86.4727 183.223 86.4835 184.164C86.4942 185.105 86.7977 186.019 87.3519 186.78C87.5872 187.091 87.8453 187.384 88.1239 187.656C88.0331 187.603 87.9485 187.54 87.8719 187.468C87.6518 187.28 87.4533 187.068 87.2799 186.836C86.6915 186.07 86.3673 185.133 86.3558 184.167C86.3443 183.2 86.646 182.256 87.2159 181.476C87.384 181.24 87.5771 181.023 87.7919 180.828C87.8668 180.752 87.9515 180.686 88.0439 180.632Z" fill="#F5F5F5"/>
<path d="M70.4438 185.2L70.4078 182.704C70.4205 182.487 70.392 182.27 70.3238 182.064C70.2875 181.961 70.2241 181.869 70.1404 181.799C70.0567 181.729 69.9557 181.682 69.8478 181.664C69.5358 181.524 69.0478 181.784 68.8318 182.144C68.6404 182.522 68.5561 182.945 68.5878 183.368C68.5798 184.025 68.6119 184.683 68.6839 185.336C68.6973 185.65 68.7763 185.958 68.9158 186.24C68.978 186.386 69.0847 186.508 69.2207 186.59C69.3566 186.671 69.5149 186.708 69.6728 186.694C69.8307 186.68 69.9803 186.617 70.1001 186.513C70.2199 186.409 70.3038 186.27 70.3399 186.116C70.4326 185.82 70.4679 185.509 70.4438 185.2Z" fill="#F5F5F5"/>
<path d="M84.1679 184.46C84.1679 184.496 81.6119 184.528 78.4639 184.528C75.3159 184.528 72.7559 184.496 72.7559 184.46C72.7559 184.424 75.3119 184.396 78.4639 184.396C81.6159 184.396 84.1679 184.424 84.1679 184.46Z" fill="#F5F5F5"/>
<path d="M68.076 180.52L68.012 174.708H71.176L71.284 180.52H68.076Z" fill="#F5F5F5"/>
<path d="M70.9879 175.74C70.5002 175.807 70.0076 175.83 69.5159 175.808C69.0255 175.83 68.5341 175.807 68.0479 175.74C68.5344 175.676 69.0256 175.655 69.5159 175.676C70.0074 175.655 70.5 175.676 70.9879 175.74Z" fill="#E0E0E0"/>
<path d="M70.9879 176.64C70.5 176.704 70.0074 176.726 69.5159 176.704C69.0256 176.726 68.5344 176.704 68.0479 176.64C68.5344 176.576 69.0256 176.554 69.5159 176.576C70.0074 176.554 70.5 176.576 70.9879 176.64Z" fill="#E0E0E0"/>
<path d="M70.9879 177.536C70.5 177.6 70.0074 177.622 69.5159 177.6C69.0256 177.622 68.5344 177.6 68.0479 177.536C68.5344 177.472 69.0256 177.45 69.5159 177.472C70.0074 177.45 70.5 177.472 70.9879 177.536Z" fill="#E0E0E0"/>
<path d="M70.9879 178.432C70.5 178.496 70.0074 178.518 69.5159 178.496C69.0256 178.518 68.5344 178.496 68.0479 178.432C68.5344 178.368 69.0256 178.346 69.5159 178.368C70.0074 178.346 70.5 178.368 70.9879 178.432Z" fill="#E0E0E0"/>
<path d="M70.9879 179.328C70.5002 179.395 70.0076 179.418 69.5159 179.396C69.0255 179.418 68.5341 179.395 68.0479 179.328C68.5346 179.266 69.0256 179.245 69.5159 179.264C70.0074 179.245 70.4998 179.266 70.9879 179.328Z" fill="#E0E0E0"/>
<path d="M67.844 174.552H102.908C103.311 176.627 103.311 178.761 102.908 180.836H68V180.4H70.136C70.2682 180.4 70.3991 180.374 70.5211 180.323C70.6432 180.272 70.7541 180.198 70.8473 180.105C70.9406 180.011 71.0145 179.9 71.0647 179.777C71.1149 179.655 71.1405 179.524 71.14 179.392V175.916C71.1405 175.784 71.1149 175.653 71.0647 175.531C71.0145 175.408 70.9406 175.297 70.8473 175.203C70.7541 175.11 70.6432 175.036 70.5211 174.985C70.3991 174.934 70.2682 174.908 70.136 174.908H67.852L67.844 174.552Z" fill="#EBEBEB"/>
<path d="M76.1319 177.7H76.7159C76.7368 177.694 76.759 177.694 76.7799 177.7C76.7998 177.71 76.8164 177.726 76.8278 177.745C76.8391 177.764 76.8447 177.786 76.8439 177.808C76.8461 177.821 76.8461 177.835 76.8439 177.848C76.8439 177.896 76.8199 177.944 76.8039 177.996C76.7339 178.242 76.6079 178.468 76.4359 178.656C76.3759 178.732 76.3008 178.794 76.2154 178.839C76.13 178.883 76.0361 178.91 75.9399 178.916H75.8679C75.7841 178.901 75.7047 178.867 75.6355 178.817C75.5664 178.767 75.5091 178.703 75.4679 178.628C75.346 178.414 75.2864 178.17 75.2959 177.924C75.297 177.754 75.3199 177.585 75.3639 177.42C75.428 177.172 75.5469 176.941 75.7119 176.744C75.7738 176.661 75.8532 176.593 75.9445 176.545C76.0358 176.497 76.1367 176.469 76.2399 176.464C76.3159 176.464 76.3909 176.48 76.4599 176.512C76.6258 176.605 76.7491 176.758 76.8039 176.94C76.8077 176.96 76.8077 176.98 76.8039 177C76.8094 177.02 76.8094 177.04 76.8039 177.06C76.7932 177.079 76.7776 177.096 76.7586 177.107C76.7396 177.118 76.718 177.124 76.6959 177.124C76.6829 177.128 76.6689 177.128 76.6559 177.124C76.6373 177.119 76.6202 177.109 76.6063 177.096C76.5923 177.083 76.5819 177.066 76.5759 177.048C76.5584 176.998 76.5341 176.951 76.5039 176.908C76.4749 176.859 76.434 176.819 76.385 176.79C76.336 176.761 76.2806 176.746 76.2239 176.744C76.1541 176.745 76.0865 176.769 76.0319 176.812C75.885 176.933 75.7743 177.092 75.7119 177.272C75.6236 177.481 75.5774 177.705 75.5759 177.932C75.5701 178.111 75.6043 178.288 75.6759 178.452C75.6976 178.516 75.7383 178.573 75.7926 178.613C75.8468 178.654 75.9121 178.677 75.9799 178.68C76.0368 178.673 76.0916 178.655 76.1406 178.625C76.1896 178.595 76.2316 178.555 76.2639 178.508C76.398 178.349 76.4999 178.166 76.5639 177.968C76.2959 177.968 76.1639 177.968 76.1439 177.968C76.1068 177.968 76.0712 177.953 76.0449 177.927C76.0186 177.901 76.0039 177.865 76.0039 177.828V177.784C76.0148 177.759 76.0327 177.738 76.0554 177.723C76.0781 177.708 76.1047 177.7 76.1319 177.7Z" fill="#FAFAFA"/>
<path d="M78.1238 176.556C78.1238 176.556 78.1238 176.584 78.1238 176.6C78.1478 176.683 78.2812 177.407 78.5238 178.772C78.5258 178.783 78.5258 178.794 78.5238 178.804C78.5293 178.825 78.5293 178.847 78.5238 178.868C78.5146 178.888 78.4998 178.904 78.4813 178.916C78.4629 178.927 78.4415 178.933 78.4198 178.932H78.3998C78.3771 178.928 78.3559 178.918 78.3389 178.902C78.3218 178.887 78.3097 178.867 78.3038 178.844L78.1638 178.12H77.4438L77.0958 178.848C77.0986 178.856 77.0986 178.864 77.0958 178.872C77.0839 178.89 77.0678 178.905 77.0491 178.915C77.0303 178.926 77.0093 178.931 76.9878 178.932C76.9638 178.932 76.9403 178.925 76.9198 178.912C76.9025 178.9 76.8884 178.884 76.8787 178.865C76.8689 178.846 76.8638 178.825 76.8638 178.804C76.8602 178.792 76.8602 178.78 76.8638 178.768C76.8838 178.716 76.9198 178.64 76.9718 178.532C77.4758 177.428 77.7718 176.78 77.8758 176.58C77.8856 176.556 77.902 176.534 77.9232 176.519C77.9444 176.503 77.9696 176.494 77.9958 176.492C78.0209 176.491 78.0459 176.496 78.0684 176.507C78.0908 176.518 78.1099 176.535 78.1238 176.556ZM77.9678 177.044L77.5678 177.864H78.1198L77.9678 177.044Z" fill="#FAFAFA"/>
<path d="M80.08 178.932H79.024C79 178.931 78.9765 178.925 78.956 178.912C78.9378 178.895 78.9231 178.875 78.9128 178.852C78.9025 178.829 78.8968 178.805 78.896 178.78C78.896 178.74 78.992 178.016 79.188 176.62C79.186 176.604 79.186 176.588 79.188 176.572C79.1966 176.549 79.2125 176.528 79.2334 176.515C79.2543 176.501 79.279 176.495 79.304 176.496C79.3224 176.492 79.3416 176.492 79.36 176.496C79.381 176.506 79.3986 176.522 79.4106 176.542C79.4227 176.562 79.4287 176.585 79.428 176.608L79.36 177.2C79.24 178.125 79.176 178.613 79.168 178.664H80.068C80.0905 178.66 80.1135 178.66 80.136 178.664C80.1602 178.673 80.1809 178.69 80.1952 178.711C80.2096 178.733 80.2168 178.758 80.216 178.784C80.2179 178.797 80.2179 178.811 80.216 178.824C80.2082 178.854 80.1907 178.881 80.1661 178.901C80.1416 178.92 80.1113 178.931 80.08 178.932Z" fill="#FAFAFA"/>
<path d="M81.5238 176.556C81.5238 176.556 81.5238 176.584 81.5238 176.6C81.5478 176.684 81.6878 177.4 81.9238 178.772C81.9256 178.783 81.9256 178.794 81.9238 178.804C81.9228 178.827 81.9159 178.849 81.9038 178.868C81.8946 178.888 81.8798 178.904 81.8613 178.916C81.8429 178.927 81.8215 178.933 81.7998 178.932H81.7798C81.7574 178.927 81.7367 178.917 81.7198 178.901C81.7029 178.886 81.6905 178.866 81.6838 178.844L81.5998 178.12H80.8798L80.5318 178.848C80.5336 178.856 80.5336 178.864 80.5318 178.872C80.5186 178.89 80.5017 178.904 80.4824 178.914C80.4631 178.925 80.4417 178.931 80.4198 178.932C80.3959 178.931 80.3726 178.924 80.3518 178.912C80.3345 178.9 80.3204 178.884 80.3107 178.865C80.3009 178.846 80.2958 178.825 80.2958 178.804C80.294 178.792 80.294 178.78 80.2958 178.768C80.3158 178.716 80.3518 178.64 80.4038 178.532C80.9078 177.428 81.2038 176.78 81.3078 176.58C81.3175 176.556 81.334 176.534 81.3552 176.519C81.3764 176.503 81.4016 176.494 81.4278 176.492C81.4474 176.496 81.466 176.503 81.4825 176.514C81.499 176.525 81.5131 176.539 81.5238 176.556ZM81.3678 177.044L80.9678 177.864H81.5198L81.3678 177.044Z" fill="#FAFAFA"/>
<path d="M83.1999 177.804L83.3919 178.332C83.4999 178.636 83.5559 178.792 83.5559 178.808C83.5622 178.829 83.5622 178.851 83.5559 178.872C83.5445 178.89 83.5285 178.905 83.5097 178.916C83.4908 178.926 83.4695 178.932 83.4479 178.932C83.3999 178.932 83.3679 178.904 83.3439 178.848C83.3199 178.792 83.3439 178.808 83.3239 178.792C83.2679 178.66 83.1719 178.392 83.0399 178.048L82.4439 178.848C82.432 178.867 82.4156 178.884 82.3961 178.896C82.3766 178.907 82.3547 178.914 82.3319 178.916C82.3108 178.92 82.2891 178.92 82.2679 178.916C82.2488 178.906 82.233 178.89 82.2224 178.871C82.2117 178.852 82.2067 178.83 82.2079 178.808V178.8C82.2217 178.761 82.2435 178.726 82.2719 178.696C82.4719 178.436 82.6719 178.128 82.9359 177.772C82.9119 177.7 82.8879 177.636 82.8639 177.572C82.6399 176.968 82.5239 176.656 82.5239 176.636C82.5203 176.615 82.5203 176.593 82.5239 176.572C82.534 176.553 82.5489 176.537 82.5672 176.526C82.5855 176.515 82.6065 176.508 82.6279 176.508C82.652 176.508 82.6755 176.515 82.696 176.528C82.7164 176.541 82.733 176.559 82.7439 176.58L83.0999 177.532L83.8039 176.572C83.816 176.553 83.8327 176.538 83.8522 176.528C83.8718 176.517 83.8937 176.512 83.9159 176.512C83.9344 176.508 83.9535 176.508 83.9719 176.512C83.9925 176.522 84.0095 176.538 84.0209 176.558C84.0323 176.578 84.0375 176.601 84.0359 176.624C84.0414 176.644 84.0414 176.664 84.0359 176.684L83.1999 177.804Z" fill="#FAFAFA"/>
<path d="M85.8239 176.5C85.8423 176.496 85.8614 176.496 85.8799 176.5C85.9005 176.509 85.918 176.525 85.9301 176.544C85.9422 176.563 85.9483 176.585 85.9479 176.608C85.7759 177.976 85.6799 178.712 85.6639 178.824C85.6339 179.031 85.5558 179.228 85.4359 179.4C85.322 179.56 85.1543 179.674 84.9634 179.721C84.7726 179.768 84.5711 179.745 84.3959 179.656C84.2387 179.591 84.1077 179.476 84.0239 179.328C84.0203 179.308 84.0203 179.288 84.0239 179.268C84.0181 179.247 84.0181 179.225 84.0239 179.204C84.0338 179.184 84.0493 179.167 84.0685 179.156C84.0876 179.145 84.1096 179.139 84.1319 179.14C84.1507 179.141 84.1689 179.147 84.1855 179.156C84.2021 179.165 84.2165 179.177 84.2279 179.192C84.2867 179.283 84.3664 179.358 84.4604 179.412C84.5543 179.465 84.6598 179.496 84.7679 179.5C84.846 179.496 84.9224 179.475 84.9916 179.439C85.0607 179.402 85.1209 179.351 85.1679 179.288C85.3118 179.096 85.3929 178.864 85.3999 178.624C85.3598 178.689 85.3066 178.745 85.2439 178.788C85.1356 178.87 85.0034 178.913 84.8679 178.912H84.7959C84.7119 178.897 84.6323 178.864 84.563 178.814C84.4938 178.764 84.4366 178.699 84.3959 178.624C84.271 178.411 84.2099 178.167 84.2199 177.92C84.2199 177.792 84.2199 177.66 84.2199 177.52C84.2385 177.304 84.2865 177 84.3639 176.608C84.3604 176.596 84.3604 176.584 84.3639 176.572C84.3701 176.547 84.3845 176.525 84.4048 176.509C84.4251 176.493 84.4501 176.484 84.4759 176.484C84.4973 176.485 84.518 176.492 84.5359 176.504C84.5551 176.513 84.5715 176.527 84.5828 176.544C84.5942 176.562 84.6001 176.583 84.5999 176.604C84.5886 176.765 84.5685 176.925 84.5399 177.084C84.4986 177.329 84.4719 177.576 84.4599 177.824C84.4521 178.019 84.4834 178.213 84.5519 178.396C84.6239 178.568 84.7279 178.652 84.8639 178.652H84.9079C85.0407 178.61 85.1533 178.52 85.2239 178.4C85.3502 178.226 85.4388 178.027 85.4839 177.816L85.6439 176.616C85.6416 176.599 85.6416 176.581 85.6439 176.564C85.6487 176.546 85.6579 176.529 85.6707 176.515C85.6834 176.502 85.6994 176.491 85.7171 176.485C85.7348 176.478 85.7538 176.477 85.7724 176.479C85.791 176.482 85.8086 176.489 85.8239 176.5Z" fill="#FAFAFA"/>
<path d="M101.6 180.916C101.564 180.916 101.532 179.476 101.532 177.696C101.532 175.916 101.564 174.472 101.6 174.472C101.636 174.472 101.664 175.916 101.664 177.696C101.664 179.476 101.628 180.916 101.6 180.916Z" fill="#F5F5F5"/>
<path d="M72.8958 180.916C72.8598 180.916 72.8318 179.476 72.8318 177.696C72.8318 175.916 72.8598 174.472 72.8958 174.472C72.9318 174.472 72.9598 175.916 72.9598 177.696C72.9598 179.476 72.9318 180.916 72.8958 180.916Z" fill="#E0E0E0"/>
<path d="M102.204 180.916C102.172 180.916 102.14 179.476 102.14 177.696C102.14 175.916 102.172 174.472 102.204 174.472C102.236 174.472 102.272 175.916 102.272 177.696C102.272 179.476 102.24 180.916 102.204 180.916Z" fill="#F5F5F5"/>
<path d="M72.3239 180.916C72.2879 180.916 72.2559 179.476 72.2559 177.696C72.2559 175.916 72.2879 174.472 72.3239 174.472C72.3599 174.472 72.3879 175.916 72.3879 177.696C72.3879 179.476 72.3559 180.916 72.3239 180.916Z" fill="#E0E0E0"/>
<path d="M93.0879 175.532L96.7919 178.52L96.8239 178.548H96.7839L96.2919 178.68L93.1639 179.5L90.3279 178.3L89.5279 177.956L89.3159 177.864L89.2639 177.84L89.3199 177.864L89.5319 177.948L90.3319 178.284L93.1719 179.484L96.2999 178.66L96.7959 178.528V178.564L93.0959 175.568" fill="#E0E0E0"/>
<path d="M96.4518 178.048L96.6558 178.236L96.9278 178.18L96.8078 178.428L96.9478 178.668L96.6718 178.636L96.4878 178.84L96.4358 178.568L96.1838 178.456L96.4238 178.324L96.4518 178.048Z" fill="#E0E0E0"/>
<path d="M92.9 179.224L93.036 179.34L93.212 179.292L93.144 179.46L93.244 179.608L93.064 179.596L92.952 179.736L92.908 179.564L92.74 179.5L92.892 179.404L92.9 179.224Z" fill="#E0E0E0"/>
<path d="M88.9719 177.616L89.1919 177.628L89.3279 177.456L89.3839 177.668L89.5919 177.744L89.4039 177.86L89.3959 178.084L89.2239 177.944L89.0159 178.004L89.0959 177.796L88.9719 177.616Z" fill="#E0E0E0"/>
<path d="M98.116 175.58L98.336 175.596L98.472 175.42L98.528 175.636L98.732 175.712L98.548 175.828L98.54 176.048L98.368 175.908L98.156 175.968L98.24 175.764L98.116 175.58Z" fill="#E0E0E0"/>
<path d="M92.908 175.436L93.048 175.444L93.136 175.336L93.172 175.472L93.304 175.52L93.184 175.596L93.18 175.736L93.072 175.644L92.936 175.684L92.988 175.552L92.908 175.436Z" fill="#E0E0E0"/>
<path d="M98.4238 175.736C98.4238 175.736 97.2238 175.708 95.7478 175.648C94.2718 175.588 93.0718 175.52 93.0718 175.504C93.0718 175.488 94.2718 175.532 95.7478 175.596C97.2238 175.66 98.4238 175.72 98.4238 175.736Z" fill="#E0E0E0"/>
<path d="M99.7719 174.5H64.2079C63.7439 173.444 63.6279 172.44 64.2079 171.54H99.7719C99.9925 172.002 100.107 172.508 100.107 173.02C100.107 173.532 99.9925 174.038 99.7719 174.5Z" fill="#E0E0E0"/>
<path d="M90.8398 172.384H71.5718V173.46H90.8398V172.384Z" fill="#EBEBEB"/>
<path d="M65.572 174.516C65.4545 174.417 65.3591 174.294 65.292 174.156C65.1107 173.833 65.0002 173.475 64.9678 173.106C64.9354 172.737 64.9818 172.366 65.104 172.016C65.1436 171.868 65.2176 171.731 65.32 171.616C65.285 171.762 65.2422 171.906 65.192 172.048C65.099 172.39 65.0665 172.746 65.096 173.1C65.1308 173.453 65.2241 173.798 65.372 174.12C65.4504 174.246 65.5173 174.378 65.572 174.516Z" fill="#E0E0E0"/>
<path d="M66.3439 174.516C66.2238 174.419 66.1279 174.296 66.0639 174.156C65.8803 173.834 65.7684 173.477 65.7359 173.108C65.7044 172.738 65.7507 172.366 65.8719 172.016C65.9154 171.869 65.9889 171.733 66.0879 171.616C66.0552 171.763 66.0125 171.907 65.9599 172.048C65.8684 172.391 65.8373 172.747 65.8679 173.1C65.8988 173.454 65.9923 173.799 66.1439 174.12C66.2184 174.248 66.2852 174.38 66.3439 174.516Z" fill="#E0E0E0"/>
<path d="M98.3318 174.444C98.4739 173.975 98.5585 173.49 98.5838 173C98.563 172.508 98.4838 172.021 98.3478 171.548C98.6091 171.986 98.7357 172.491 98.7118 173C98.7322 173.509 98.5998 174.012 98.3318 174.444Z" fill="#F5F5F5"/>
<path d="M97.6719 174.44C97.6319 174.44 97.7799 173.804 97.7759 173.02C97.7719 172.236 97.6279 171.612 97.6679 171.604C97.9852 172.523 97.9852 173.521 97.6679 174.44H97.6719Z" fill="#F5F5F5"/>
<path d="M120.1 160.704L70.128 160.672C68.6992 160.671 67.2845 160.389 65.9647 159.842C64.6448 159.295 63.4457 158.493 62.4358 157.482C61.4259 156.472 60.6249 155.272 60.0786 153.952C59.5323 152.632 59.2514 151.217 59.252 149.788L59.276 24.5119C59.2765 23.0821 59.5586 21.6664 60.1063 20.3456C60.6539 19.0248 61.4564 17.8248 62.4678 16.8141C63.4792 15.8034 64.6798 15.0019 66.001 14.4552C67.3222 13.9085 68.7381 13.6274 70.168 13.6279L120.136 13.6599C123.022 13.6621 125.788 14.8096 127.828 16.8504C129.868 18.8912 131.015 21.6583 131.016 24.5439L130.988 149.82C130.988 151.25 130.706 152.665 130.159 153.986C129.612 155.307 128.81 156.507 127.799 157.518C126.788 158.528 125.587 159.33 124.266 159.877C122.945 160.423 121.53 160.704 120.1 160.704Z" fill="#263238"/>
<path d="M119.972 18.128H110.284C109.968 18.1342 109.656 18.2029 109.366 18.3301C109.077 18.4572 108.815 18.6404 108.596 18.869C108.378 19.0976 108.207 19.3672 108.093 19.6622C107.979 19.9572 107.924 20.2718 107.932 20.588V22.344C107.939 22.6602 107.884 22.9747 107.77 23.2695C107.655 23.5643 107.483 23.8336 107.265 24.0618C107.046 24.2901 106.784 24.4728 106.494 24.5995C106.204 24.7262 105.892 24.7943 105.576 24.8H86.6919C86.3757 24.7938 86.0638 24.7251 85.7742 24.598C85.4846 24.4708 85.223 24.2876 85.0045 24.059C84.7859 23.8304 84.6147 23.5609 84.5006 23.2659C84.3866 22.9708 84.332 22.6562 84.3399 22.34V20.58C84.3501 20.2635 84.2974 19.9481 84.1851 19.652C84.0728 19.3559 83.903 19.085 83.6854 18.8548C83.4679 18.6247 83.207 18.4398 82.9177 18.311C82.6285 18.1821 82.3165 18.1118 81.9999 18.104H78.5919H70.1159C69.1141 18.1019 68.1216 18.2973 67.1953 18.679C66.269 19.0607 65.427 19.6212 64.7174 20.3285C64.0079 21.0359 63.4447 21.8761 63.0601 22.8012C62.6755 23.7263 62.477 24.7182 62.4759 25.72L62.4519 148C62.4488 149 62.643 149.991 63.0236 150.916C63.4041 151.841 63.9634 152.681 64.6694 153.39C65.3755 154.098 66.2143 154.66 67.138 155.043C68.0616 155.427 69.0519 155.624 70.0519 155.624L119.924 155.652C120.925 155.653 121.917 155.456 122.842 155.073C123.767 154.691 124.608 154.129 125.316 153.422C126.024 152.714 126.586 151.874 126.97 150.949C127.354 150.025 127.551 149.033 127.552 148.032L127.6 25.752C127.6 24.7505 127.403 23.7588 127.019 22.8335C126.636 21.9083 126.074 21.0676 125.365 20.3596C124.657 19.6516 123.816 19.0901 122.891 18.7072C121.965 18.3243 120.973 18.1275 119.972 18.128Z" fill="white"/>
<path d="M128.148 37.5559C128.148 37.6119 113.424 37.6599 95.2679 37.6599C77.1119 37.6599 62.3999 37.5999 62.3999 37.5559C62.3999 37.5119 77.1199 37.4519 95.2879 37.4519C113.456 37.4519 128.148 37.4959 128.148 37.5559Z" fill="#263238"/>
<path d="M69.2599 33.0239C69.2115 33.0244 69.1646 33.0074 69.1279 32.9759L67.2279 31.3079C67.2054 31.2897 67.1875 31.2665 67.1757 31.2401C67.1639 31.2137 67.1585 31.1848 67.1599 31.1559C67.1596 31.1268 67.1659 31.098 67.1784 31.0716C67.1908 31.0453 67.2091 31.0222 67.2319 31.0039L69.1319 29.4039C69.1728 29.3708 69.2252 29.3551 69.2776 29.3604C69.3301 29.3656 69.3783 29.3913 69.4119 29.4319C69.4288 29.452 69.4415 29.4752 69.4493 29.5003C69.4571 29.5254 69.4598 29.5517 69.4571 29.5779C69.4545 29.604 69.4467 29.6293 69.4341 29.6523C69.4215 29.6754 69.4045 29.6956 69.3839 29.7119L67.6679 31.1439L69.3879 32.6559C69.4079 32.6728 69.4243 32.6935 69.4361 32.7169C69.448 32.7402 69.4551 32.7656 69.4569 32.7917C69.4588 32.8178 69.4554 32.844 69.447 32.8688C69.4386 32.8936 69.4253 32.9164 69.4079 32.9359C69.3918 32.9611 69.37 32.9822 69.3443 32.9975C69.3186 33.0127 69.2897 33.0218 69.2599 33.0239Z" fill="#263238"/>
<path d="M110.72 31.0478C110.72 31.1078 104.532 31.1518 96.896 31.1518C89.26 31.1518 83.072 31.1078 83.072 31.0478C83.072 30.9878 89.26 30.9438 96.896 30.9438C104.532 30.9438 110.72 30.9918 110.72 31.0478Z" fill="#263238"/>
<path d="M118.728 31.0359C118.728 31.1783 118.686 31.3175 118.606 31.4359C118.527 31.5543 118.415 31.6466 118.283 31.7011C118.152 31.7556 118.007 31.7699 117.867 31.7421C117.728 31.7143 117.599 31.6457 117.499 31.545C117.398 31.4443 117.329 31.316 117.302 31.1764C117.274 31.0367 117.288 30.8919 117.343 30.7604C117.397 30.6288 117.489 30.5164 117.608 30.4373C117.726 30.3581 117.865 30.3159 118.008 30.3159C118.199 30.3159 118.382 30.3918 118.517 30.5268C118.652 30.6618 118.728 30.845 118.728 31.0359Z" fill="#263238"/>
<path d="M120.8 31.0359C120.8 31.1785 120.758 31.3179 120.678 31.4364C120.599 31.5548 120.486 31.6471 120.354 31.7015C120.223 31.7559 120.078 31.7699 119.938 31.7418C119.798 31.7137 119.67 31.6447 119.569 31.5436C119.469 31.4425 119.401 31.3139 119.373 31.1739C119.346 31.034 119.361 30.8891 119.416 30.7576C119.471 30.6261 119.564 30.514 119.683 30.4353C119.802 30.3567 119.941 30.3151 120.084 30.3159C120.178 30.3159 120.272 30.3346 120.359 30.3708C120.446 30.407 120.525 30.4601 120.592 30.5271C120.658 30.594 120.711 30.6734 120.747 30.7607C120.782 30.848 120.8 30.9416 120.8 31.0359Z" fill="#263238"/>
<path d="M122.876 31.0359C122.876 31.1783 122.834 31.3175 122.755 31.4359C122.676 31.5543 122.563 31.6466 122.432 31.7011C122.3 31.7556 122.155 31.7699 122.016 31.7421C121.876 31.7143 121.748 31.6457 121.647 31.545C121.546 31.4443 121.478 31.316 121.45 31.1764C121.422 31.0367 121.436 30.8919 121.491 30.7604C121.545 30.6288 121.638 30.5164 121.756 30.4373C121.874 30.3581 122.014 30.3159 122.156 30.3159C122.347 30.3159 122.53 30.3918 122.665 30.5268C122.8 30.6618 122.876 30.845 122.876 31.0359Z" fill="#263238"/>
<path d="M89.028 64.42C89.028 64.884 88.836 65.164 88.516 65.164C88.4405 65.1713 88.3649 65.1516 88.3027 65.1084C88.2404 65.0652 88.1955 65.0013 88.176 64.928C88.1224 65.0057 88.0497 65.0682 87.965 65.1096C87.8802 65.1509 87.7861 65.1697 87.692 65.164C87.5201 65.1509 87.3596 65.0733 87.2424 64.9469C87.1253 64.8204 87.0602 64.6544 87.0602 64.482C87.0602 64.3097 87.1253 64.1437 87.2424 64.0172C87.3596 63.8908 87.5201 63.8132 87.692 63.8C87.7764 63.7956 87.8606 63.8106 87.9383 63.8439C88.016 63.8772 88.085 63.9279 88.14 63.992V63.816H88.436V64.728C88.436 64.864 88.5 64.912 88.576 64.912C88.72 64.912 88.8 64.74 88.8 64.424C88.8022 64.2917 88.7765 64.1603 88.7247 64.0385C88.6728 63.9167 88.5959 63.8072 88.499 63.717C88.402 63.6269 88.2872 63.5581 88.1619 63.5152C88.0367 63.4723 87.9038 63.4562 87.772 63.468C87.6331 63.4556 87.4932 63.4722 87.3612 63.5168C87.2291 63.5614 87.1078 63.6331 87.0049 63.7271C86.902 63.8212 86.8199 63.9357 86.7637 64.0632C86.7075 64.1908 86.6784 64.3287 86.6784 64.468C86.6784 64.6074 86.7075 64.7453 86.7637 64.8729C86.8199 65.0004 86.902 65.1149 87.0049 65.209C87.1078 65.303 87.2291 65.3746 87.3612 65.4193C87.4932 65.4639 87.6331 65.4805 87.772 65.468C87.9523 65.4689 88.1303 65.4278 88.292 65.348L88.364 65.564C88.1784 65.6492 87.9761 65.6915 87.772 65.688C87.6056 65.6976 87.4391 65.673 87.2825 65.6159C87.126 65.5588 86.9828 65.4703 86.8616 65.3559C86.7405 65.2415 86.644 65.1036 86.578 64.9506C86.512 64.7975 86.478 64.6327 86.478 64.466C86.478 64.2994 86.512 64.1345 86.578 63.9815C86.644 63.8285 86.7405 63.6906 86.8616 63.5762C86.9828 63.4618 87.126 63.3733 87.2825 63.3162C87.4391 63.2591 87.6056 63.2345 87.772 63.244C87.9333 63.2319 88.0953 63.2533 88.2479 63.307C88.4005 63.3607 88.5402 63.4456 88.6583 63.5561C88.7764 63.6667 88.8702 63.8005 88.9339 63.9493C88.9975 64.098 89.0295 64.2583 89.028 64.42ZM88.144 64.48C88.1393 64.4021 88.1119 64.3273 88.0652 64.2647C88.0185 64.2022 87.9545 64.1547 87.8811 64.128C87.8078 64.1014 87.7282 64.0968 87.6523 64.1149C87.5763 64.1329 87.5073 64.1728 87.4537 64.2296C87.4002 64.2863 87.3644 64.3576 87.3508 64.4344C87.3372 64.5113 87.3464 64.5905 87.3773 64.6622C87.4081 64.7339 87.4593 64.795 87.5244 64.8379C87.5896 64.8809 87.6659 64.9039 87.744 64.904C87.7986 64.9041 87.8526 64.8931 87.9028 64.8715C87.953 64.8499 87.9982 64.8183 88.0357 64.7785C88.0731 64.7388 88.1021 64.6918 88.1207 64.6405C88.1393 64.5892 88.1472 64.5346 88.144 64.48Z" fill="#263238"/>
<path d="M104.144 65.148C104.144 65.204 101.248 65.252 97.68 65.252C94.112 65.252 91.22 65.204 91.22 65.148C91.22 65.092 94.112 65.04 97.68 65.04C101.248 65.04 104.144 65.088 104.144 65.148Z" fill="#263238"/>
<path d="M78.5879 83.428C77.9986 83.5666 77.3852 83.5666 76.7959 83.428C77.3852 83.2893 77.9986 83.2893 78.5879 83.428Z" fill="#263238"/>
<path d="M82.8 87.7639C82.8 87.8199 80.6399 87.8679 77.9719 87.8679C75.3039 87.8679 73.1479 87.8199 73.1479 87.7639C73.1479 87.7079 75.3079 87.6599 77.9719 87.6599C80.6359 87.6599 82.8 87.7079 82.8 87.7639Z" fill="#263238"/>
<path d="M98 83.428C97.0893 83.5333 96.1719 83.5681 95.256 83.532C94.34 83.5681 93.4226 83.5333 92.512 83.428C93.4228 83.325 94.34 83.2903 95.256 83.324C96.1719 83.2903 97.0892 83.325 98 83.428Z" fill="#263238"/>
<path d="M99.624 87.532C99.624 87.588 97.412 87.636 94.684 87.636C91.956 87.636 89.74 87.588 89.74 87.532C89.74 87.476 91.952 87.428 94.684 87.428C97.416 87.428 99.624 87.476 99.624 87.532Z" fill="#263238"/>
<path d="M115.92 83.4879C114.69 83.591 113.454 83.6257 112.22 83.5919C110.986 83.6257 109.75 83.591 108.52 83.4879C109.75 83.3825 110.986 83.3478 112.22 83.3839C113.454 83.3478 114.69 83.3825 115.92 83.4879Z" fill="#263238"/>
<path d="M117.304 87.7039C117.304 87.7639 115.172 87.8079 112.54 87.8079C109.908 87.8079 107.772 87.7639 107.772 87.7039C107.772 87.6439 109.904 87.5999 112.54 87.5999C115.176 87.5999 117.304 87.6479 117.304 87.7039Z" fill="#263238"/>
<path d="M103.484 91.8079H76.372C75.8087 91.8079 75.3521 92.2645 75.3521 92.8279V99.1679C75.3521 99.7312 75.8087 100.188 76.372 100.188H103.484C104.047 100.188 104.504 99.7312 104.504 99.1679V92.8279C104.504 92.2645 104.047 91.8079 103.484 91.8079Z" fill="#00A19B"/>
<path d="M98.9919 96.1399C98.9919 96.1959 95.2399 96.2439 90.6119 96.2439C85.9839 96.2439 82.2119 96.1959 82.2119 96.1399C82.2119 96.0839 85.9639 96.0359 90.6119 96.0359C95.2599 96.0359 98.9919 96.0799 98.9919 96.1399Z" fill="white"/>
<path d="M114.296 91.6519H107.864C107.34 91.6519 106.916 92.0763 106.916 92.5999V99.2919C106.916 99.8154 107.34 100.24 107.864 100.24H114.296C114.82 100.24 115.244 99.8154 115.244 99.2919V92.5999C115.244 92.0763 114.82 91.6519 114.296 91.6519Z" fill="#EBEBEB"/>
<path d="M110.18 95.5078H111.976L111.156 96.7678L110.18 95.5078Z" fill="#263238"/>
<path d="M104.504 106.42C104.504 106.48 99.8681 106.524 94.1521 106.524C88.4361 106.524 83.8 106.48 83.8 106.42C83.8 106.36 88.4361 106.316 94.1521 106.316C99.8681 106.316 104.504 106.364 104.504 106.42Z" fill="#E0E0E0"/>
<path d="M110.528 110.32C110.528 110.376 103.728 110.424 95.3279 110.424C86.9279 110.424 80.1279 110.376 80.1279 110.32C80.1279 110.264 86.9279 110.216 95.3279 110.216C103.728 110.216 110.528 110.264 110.528 110.32Z" fill="#E0E0E0"/>
<path d="M128 117.08C128 117.14 113.42 117.188 95.432 117.188C77.444 117.188 62.864 117.14 62.864 117.08C62.864 117.02 77.444 116.976 95.432 116.976C113.42 116.976 128 117.024 128 117.08Z" fill="#263238"/>
<path d="M96.0799 124.668C95.9769 123.441 95.9421 122.21 95.9759 120.98C95.9421 119.751 95.9768 118.521 96.0799 117.296C96.1853 118.521 96.22 119.751 96.1839 120.98C96.22 122.21 96.1852 123.442 96.0799 124.668Z" fill="#263238"/>
<path d="M92.036 70.6079L90.164 74.9039H89.364L87.488 70.6079H88.352L89.78 73.9199L91.224 70.6079H92.036Z" fill="#00A19B"/>
<path d="M95.2399 73.5119H92.6679C92.7153 73.753 92.8502 73.9681 93.0466 74.1157C93.243 74.2634 93.4871 74.3333 93.7319 74.3119C93.8967 74.3186 94.061 74.2903 94.214 74.229C94.3671 74.1676 94.5054 74.0745 94.6199 73.9559L95.0199 74.4279C94.8528 74.6084 94.6477 74.7498 94.4195 74.8417C94.1913 74.9337 93.9456 74.9741 93.6999 74.9599C92.6039 74.9599 91.8919 74.2559 91.8919 73.2799C91.8838 73.0547 91.9227 72.8303 92.0061 72.6209C92.0894 72.4116 92.2154 72.2219 92.3761 72.0639C92.5367 71.9058 92.7285 71.783 92.9392 71.7031C93.1499 71.6232 93.3749 71.5881 93.5999 71.5999C93.8227 71.5917 94.0447 71.6302 94.2517 71.7128C94.4587 71.7954 94.6462 71.9204 94.8021 72.0797C94.958 72.239 95.0789 72.4291 95.1571 72.6378C95.2352 72.8466 95.2689 73.0694 95.2559 73.2919C95.2519 73.3439 95.2439 73.4359 95.2399 73.5119ZM92.6639 72.9999H94.5199C94.4976 72.7736 94.3894 72.5645 94.2174 72.4156C94.0455 72.2668 93.8231 72.1896 93.5959 72.1999C93.3684 72.1913 93.146 72.269 92.9732 72.4173C92.8004 72.5656 92.69 72.7737 92.6639 72.9999Z" fill="#00A19B"/>
<path d="M97.884 71.5999V72.3279C97.8261 72.3159 97.7671 72.3093 97.708 72.3079C97.5751 72.2976 97.4416 72.3173 97.3173 72.3655C97.1931 72.4136 97.0811 72.489 96.9898 72.586C96.8985 72.6831 96.8301 72.7994 96.7896 72.9264C96.7492 73.0534 96.7377 73.1879 96.756 73.3199V74.9199H96V71.6439H96.732V72.1199C96.8634 71.9418 97.0383 71.8004 97.2401 71.7094C97.4418 71.6183 97.6635 71.5806 97.884 71.5999Z" fill="#00A19B"/>
<path d="M98.4319 70.628C98.4323 70.5649 98.4456 70.5026 98.4709 70.4449C98.4962 70.3872 98.5329 70.3352 98.579 70.2922C98.625 70.2491 98.6793 70.2159 98.7386 70.1946C98.7979 70.1732 98.861 70.1641 98.9239 70.1679C98.9852 70.163 99.0469 70.1707 99.1051 70.1904C99.1634 70.2102 99.217 70.2416 99.2627 70.2828C99.3084 70.324 99.3452 70.3741 99.3708 70.43C99.3965 70.4859 99.4104 70.5465 99.4119 70.608C99.4008 70.7303 99.3444 70.844 99.2537 70.9269C99.1631 71.0097 99.0447 71.0556 98.9219 71.0556C98.7991 71.0556 98.6807 71.0097 98.59 70.9269C98.4994 70.844 98.4429 70.7303 98.4319 70.608V70.628ZM98.5359 71.628H99.3039V74.9039H98.5359V71.628Z" fill="#00A19B"/>
<path d="M101.6 70.308C101.845 70.2972 102.087 70.3599 102.296 70.488L102.08 71.064C101.956 70.9769 101.808 70.9294 101.656 70.928C101.336 70.928 101.172 71.104 101.172 71.456V71.652H102.076V72.264H101.2V74.9039H100.4V72.264H99.864V71.652H100.4V71.444C100.387 71.2859 100.41 71.127 100.467 70.9789C100.523 70.8309 100.613 70.6974 100.728 70.5884C100.843 70.4794 100.981 70.3976 101.132 70.3491C101.283 70.3005 101.443 70.2865 101.6 70.308ZM102.976 70.628C102.976 70.5649 102.99 70.5026 103.015 70.4449C103.04 70.3872 103.077 70.3352 103.123 70.2922C103.169 70.2491 103.223 70.2159 103.283 70.1946C103.342 70.1732 103.405 70.1641 103.468 70.1679C103.529 70.163 103.591 70.1707 103.649 70.1904C103.708 70.2102 103.761 70.2416 103.807 70.2828C103.852 70.324 103.889 70.3741 103.915 70.43C103.941 70.4859 103.955 70.5465 103.956 70.608C103.945 70.7303 103.889 70.844 103.798 70.9269C103.707 71.0097 103.589 71.0556 103.466 71.0556C103.343 71.0556 103.225 71.0097 103.134 70.9269C103.043 70.844 102.987 70.7303 102.976 70.608V70.628ZM103.08 71.628H103.848V74.9039H103.08V71.628Z" fill="#00A19B"/>
<path d="M107.904 73.512H105.336C105.383 73.7528 105.517 73.9678 105.712 74.1155C105.908 74.2632 106.152 74.3332 106.396 74.312C106.561 74.3173 106.726 74.2884 106.879 74.2271C107.033 74.1658 107.172 74.0735 107.288 73.956L107.688 74.428C107.521 74.609 107.316 74.7506 107.088 74.8426C106.86 74.9346 106.614 74.9747 106.368 74.96C105.272 74.96 104.56 74.256 104.56 73.28C104.554 73.057 104.593 72.8352 104.677 72.6282C104.76 72.4212 104.884 72.2335 105.043 72.0767C105.202 71.9199 105.391 71.7974 105.599 71.7168C105.807 71.6362 106.029 71.5991 106.252 71.608C106.475 71.5998 106.697 71.6382 106.904 71.7209C107.111 71.8035 107.298 71.9285 107.454 72.0878C107.61 72.2471 107.731 72.4372 107.809 72.6459C107.887 72.8547 107.921 73.0774 107.908 73.3C107.916 73.344 107.912 73.436 107.904 73.512ZM105.328 73H107.2C107.177 72.7733 107.068 72.5642 106.895 72.4154C106.722 72.2667 106.5 72.1896 106.272 72.2C106.043 72.1893 105.818 72.2658 105.643 72.4143C105.467 72.5627 105.355 72.772 105.328 73Z" fill="#00A19B"/>
<path d="M111.864 70.3521V74.904H111.128V74.48C110.994 74.634 110.827 74.7557 110.639 74.836C110.451 74.9164 110.248 74.9533 110.044 74.944C109.599 74.944 109.173 74.7675 108.859 74.4532C108.544 74.1389 108.368 73.7126 108.368 73.268C108.368 72.8235 108.544 72.3973 108.859 72.0829C109.173 71.7686 109.599 71.592 110.044 71.592C110.241 71.5832 110.437 71.6181 110.619 71.6942C110.801 71.7702 110.964 71.8856 111.096 72.032V70.3521H111.864ZM111.108 73.2641C111.099 73.0733 111.033 72.8896 110.921 72.7355C110.808 72.5814 110.652 72.4638 110.473 72.3973C110.294 72.3307 110.1 72.3181 109.914 72.361C109.728 72.4039 109.558 72.5005 109.427 72.6387C109.295 72.7769 109.207 72.9507 109.173 73.1386C109.139 73.3265 109.161 73.5202 109.236 73.6958C109.311 73.8714 109.436 74.021 109.595 74.1263C109.754 74.2316 109.941 74.2878 110.132 74.288C110.265 74.2906 110.397 74.2654 110.52 74.2142C110.642 74.163 110.753 74.0868 110.845 73.9906C110.937 73.8943 111.007 73.78 111.053 73.6549C111.098 73.5299 111.117 73.3968 111.108 73.2641Z" fill="#00A19B"/>
<path d="M81.4438 75.9799C83.3017 75.9799 84.8078 74.4738 84.8078 72.6159C84.8078 70.7581 83.3017 69.252 81.4438 69.252C79.5859 69.252 78.0798 70.7581 78.0798 72.6159C78.0798 74.4738 79.5859 75.9799 81.4438 75.9799Z" fill="#00A19B"/>
<path d="M79.9238 72.6799L80.3558 72.2479L81.1918 72.9879L82.8278 71.4119L83.2278 71.8439L81.1278 73.8199L79.9238 72.6799Z" fill="white"/>
<path d="M95.9039 155.636H69.5039C67.6155 155.63 65.8068 154.874 64.4749 153.536C63.143 152.197 62.3967 150.384 62.3999 148.496V124.668H95.9239L95.9039 155.636Z" fill="#EBEBEB"/>
<path d="M120.252 155.7L95.5999 155.636V124.668H127.672V148.296C127.631 150.25 126.835 152.111 125.452 153.492C124.069 154.872 122.206 155.663 120.252 155.7Z" fill="#455A64"/>
<path d="M128 124.668C128 124.724 113.42 124.772 95.4359 124.772C77.4519 124.772 62.8679 124.724 62.8679 124.668C62.8679 124.612 77.4439 124.564 95.4359 124.564C113.428 124.564 128 124.612 128 124.668Z" fill="#263238"/>
<path d="M94.9479 142.8C94.9479 142.8 94.9119 142.8 94.8559 142.744L94.6039 142.56L93.6519 141.848L90.1719 139.192C89.4399 138.636 88.6319 137.992 87.7719 137.364C87.5423 137.231 87.2797 137.165 87.0144 137.174C86.7491 137.183 86.4918 137.267 86.2719 137.416C86.0502 137.6 85.8417 137.799 85.6479 138.012L85.0119 138.656L79.4119 144.312L79.0679 144.66L79.0039 144.724L78.9319 144.672L75.6999 142.272L74.1639 141.124C73.9542 140.925 73.6899 140.793 73.4048 140.746C73.1198 140.698 72.827 140.736 72.5639 140.856C72.3171 140.999 72.0932 141.178 71.8999 141.388L71.2679 141.976L70.0679 143.096L67.9079 145.096L64.7759 147.984L63.9159 148.76L63.6919 148.96C63.6412 149.005 63.6132 149.025 63.6079 149.02C63.6272 148.992 63.6501 148.966 63.6759 148.944L63.8879 148.732L64.7199 147.932L67.8079 144.996L69.9519 142.972L71.1519 141.848L71.7799 141.256L72.0999 140.956C72.2195 140.848 72.3543 140.757 72.4999 140.688C72.7917 140.547 73.1201 140.499 73.4399 140.552C73.6018 140.577 73.7586 140.628 73.9039 140.704C74.0459 140.78 74.1799 140.869 74.3039 140.972L75.8439 142.112L79.0799 144.512H78.9439L79.2879 144.16L84.8879 138.516L85.5279 137.876C85.7296 137.655 85.9475 137.449 86.1799 137.26C86.4292 137.094 86.72 137.002 87.019 136.994C87.3181 136.985 87.6136 137.061 87.8719 137.212C88.7599 137.872 89.5359 138.504 90.2719 139.072L93.7119 141.78L94.6439 142.524L94.8799 142.724C94.9057 142.746 94.9286 142.772 94.9479 142.8Z" fill="#263238"/>
<path d="M81.8641 132.4C81.8401 132.4 81.8641 132.144 81.7321 131.7C81.5598 131.079 81.1854 130.533 80.6681 130.148C80.3143 129.884 79.9032 129.707 79.4681 129.632C78.9734 129.544 78.4642 129.588 77.9921 129.76C77.4693 129.951 77.0153 130.294 76.6881 130.744C76.3349 131.225 76.1444 131.806 76.1444 132.402C76.1444 132.998 76.3349 133.579 76.6881 134.06C77.0019 134.486 77.4284 134.816 77.9196 135.012C78.4108 135.209 78.9471 135.264 79.4681 135.172C79.9038 135.097 80.3153 134.919 80.6681 134.652C81.1854 134.267 81.5598 133.721 81.7321 133.1C81.8521 132.66 81.8401 132.4 81.8641 132.4C81.8702 132.463 81.8702 132.525 81.8641 132.588C81.8645 132.767 81.8444 132.946 81.8041 133.12C81.6554 133.775 81.2834 134.357 80.7521 134.768C80.3859 135.055 79.9568 135.251 79.5001 135.34C78.9451 135.448 78.371 135.396 77.8443 135.19C77.3176 134.985 76.8599 134.635 76.5241 134.18C76.1425 133.666 75.9365 133.042 75.9365 132.402C75.9365 131.762 76.1425 131.138 76.5241 130.624C76.8762 130.144 77.3637 129.781 77.9241 129.58C78.4295 129.401 78.9734 129.36 79.5001 129.46C79.9562 129.551 80.3849 129.747 80.7521 130.032C81.2827 130.443 81.6544 131.026 81.8041 131.68C81.8444 131.856 81.8646 132.036 81.8641 132.216C81.8701 132.277 81.8701 132.339 81.8641 132.4Z" fill="#263238"/>
<path d="M126.68 141.808C126.68 141.808 126.648 141.808 126.592 141.752L126.352 141.572L125.432 140.856L122.076 138.196C121.372 137.64 120.596 136.996 119.768 136.368C119.546 136.235 119.29 136.171 119.032 136.184C118.774 136.198 118.526 136.288 118.32 136.444C118.109 136.63 117.91 136.829 117.724 137.04L117.116 137.684L111.76 143.32L111.424 143.668L111.36 143.736L111.284 143.68L108.168 141.28L106.688 140.132C106.489 139.932 106.231 139.8 105.952 139.756C105.673 139.711 105.388 139.756 105.136 139.884C104.901 140.034 104.687 140.214 104.5 140.42L103.896 141.008L102.74 142.124L100.664 144.124L97.6599 147.004L96.8359 147.78L96.6159 147.976C96.5679 148.02 96.5399 148.044 96.5359 148.04C96.5552 148.012 96.5781 147.986 96.6039 147.964C96.6559 147.904 96.7239 147.836 96.8039 147.752L97.6039 146.952L100.564 144.024L102.62 142.004C102.992 141.644 103.372 141.268 103.768 140.88L104.368 140.292L104.676 139.992C104.785 139.885 104.909 139.793 105.044 139.72C105.326 139.571 105.648 139.516 105.964 139.564C106.123 139.587 106.277 139.637 106.42 139.712C106.561 139.789 106.695 139.878 106.82 139.98L108.3 141.124L111.42 143.524H111.28L111.616 143.172L116.984 137.548L117.596 136.908C117.791 136.69 117.999 136.484 118.22 136.292C118.456 136.118 118.739 136.017 119.032 136.004C119.326 135.99 119.617 136.064 119.868 136.216C120.728 136.876 121.468 137.508 122.18 138.076L125.492 140.788L126.384 141.536L126.612 141.732L126.68 141.808Z" fill="#263238"/>
<path d="M113.08 131.508C113.06 131.508 113.08 131.252 112.952 130.812C112.782 130.19 112.407 129.643 111.888 129.26C111.589 129.037 111.248 128.875 110.886 128.783C110.524 128.692 110.148 128.673 109.779 128.729C109.409 128.784 109.055 128.911 108.735 129.104C108.415 129.297 108.137 129.551 107.916 129.852C107.563 130.333 107.372 130.913 107.372 131.51C107.372 132.106 107.563 132.687 107.916 133.168C108.243 133.618 108.697 133.959 109.22 134.148C109.662 134.311 110.139 134.36 110.605 134.29C111.072 134.221 111.513 134.034 111.888 133.748C112.406 133.364 112.781 132.818 112.952 132.196C113.007 131.965 113.049 131.731 113.08 131.496C113.09 131.558 113.09 131.622 113.08 131.684C113.08 131.863 113.06 132.042 113.02 132.216C112.882 132.872 112.522 133.46 112 133.88C111.632 134.164 111.204 134.359 110.748 134.448C110.221 134.552 109.676 134.511 109.172 134.328C108.612 134.129 108.124 133.767 107.772 133.288C107.39 132.774 107.184 132.15 107.184 131.51C107.184 130.87 107.39 130.246 107.772 129.732C108.108 129.277 108.565 128.927 109.092 128.722C109.619 128.516 110.193 128.464 110.748 128.572C111.204 128.661 111.632 128.856 112 129.14C112.532 129.552 112.903 130.136 113.052 130.792C113.092 130.966 113.112 131.145 113.112 131.324C113.112 131.387 113.101 131.449 113.08 131.508Z" fill="#263238"/>
<path d="M96.0919 61.7958C101.208 61.7958 105.356 57.6482 105.356 52.5318C105.356 47.4155 101.208 43.2678 96.0919 43.2678C90.9755 43.2678 86.8279 47.4155 86.8279 52.5318C86.8279 57.6482 90.9755 61.7958 96.0919 61.7958Z" fill="#F5F5F5"/>
<path d="M102.08 59.56C101.922 58.0905 101.217 56.7341 100.106 55.7598C98.9944 54.7855 97.5574 54.2645 96.0798 54.3C92.7918 54.3 90.5398 56.788 90.0798 59.58C90.0798 59.58 92.1118 61.8281 96.0798 61.7961C100.048 61.7641 102.08 59.56 102.08 59.56Z" fill="#E0E0E0"/>
<path d="M99.8613 51.6266C100.182 49.6408 98.8326 47.7708 96.8468 47.4498C94.8609 47.1289 92.9909 48.4785 92.67 50.4644C92.349 52.4502 93.6987 54.3202 95.6845 54.6412C97.6704 54.9621 99.5404 53.6125 99.8613 51.6266Z" fill="#E0E0E0"/>
<path d="M102.036 59.244C101.923 58.6514 101.733 58.076 101.472 57.532C101.135 56.9237 100.691 56.3816 100.16 55.932C99.4632 55.3437 98.6609 54.893 97.796 54.604L97.604 54.544L97.78 54.4521C98.3906 54.1202 98.8921 53.6187 99.224 53.0081C99.5128 52.4699 99.6572 51.8661 99.643 51.2556C99.6288 50.645 99.4566 50.0486 99.1431 49.5244C98.8295 49.0003 98.3855 48.5665 97.8542 48.2652C97.323 47.9639 96.7227 47.8056 96.112 47.8056C95.5012 47.8056 94.9009 47.9639 94.3697 48.2652C93.8384 48.5665 93.3944 49.0003 93.0809 49.5244C92.7673 50.0486 92.5951 50.645 92.5809 51.2556C92.5667 51.8661 92.7111 52.4699 93 53.0081C93.1681 53.32 93.381 53.6057 93.632 53.856C93.8752 54.0902 94.1435 54.2967 94.432 54.472L94.592 54.572L94.408 54.624C93.5225 54.8572 92.7088 55.3067 92.04 55.932C91.5324 56.4129 91.1127 56.9787 90.8 57.604C90.5982 58.0051 90.4349 58.4243 90.312 58.856C90.268 59.004 90.24 59.1201 90.22 59.1961C90.2147 59.236 90.2039 59.275 90.188 59.312C90.1808 59.2724 90.1808 59.2317 90.188 59.192C90.188 59.112 90.22 58.992 90.256 58.844C90.3608 58.4026 90.5123 57.9735 90.708 57.564C91.0113 56.9174 91.4286 56.3307 91.94 55.832C92.6136 55.1826 93.4385 54.711 94.34 54.46L94.3159 54.612C94.014 54.4338 93.7323 54.2232 93.476 53.9841C93.2097 53.7225 92.9833 53.4233 92.804 53.0961C92.4083 52.358 92.2721 51.5084 92.4171 50.6836C92.5622 49.8589 92.9802 49.1068 93.604 48.548C94.2872 47.9325 95.1743 47.5918 96.094 47.5918C97.0136 47.5918 97.9007 47.9325 98.584 48.548C99.0301 48.949 99.3728 49.4519 99.5826 50.0139C99.7924 50.5759 99.8632 51.1803 99.7889 51.7755C99.7147 52.3708 99.4975 52.9393 99.1561 53.4325C98.8146 53.9257 98.359 54.329 97.828 54.6081V54.4521C98.7107 54.7539 99.526 55.2254 100.228 55.8401C100.765 56.3087 101.209 56.8746 101.536 57.508C101.65 57.7426 101.745 57.9861 101.82 58.236C101.882 58.4171 101.929 58.6031 101.96 58.792C101.98 58.932 101.996 59.048 102.008 59.144C102.02 59.24 102.044 59.244 102.036 59.244Z" fill="#263238"/>
<path d="M105.356 52.532C105.343 52.4823 105.337 52.4312 105.336 52.38C105.336 52.272 105.336 52.128 105.304 51.944L105.284 51.62C105.284 51.5 105.244 51.372 105.22 51.22C105.178 50.8969 105.113 50.5773 105.024 50.264C104.807 49.4008 104.46 48.5754 103.996 47.816C102.897 45.9823 101.194 44.5885 99.1798 43.8739C97.1652 43.1593 94.9646 43.1685 92.956 43.9C92.5444 44.0483 92.1435 44.2247 91.756 44.428C91.3647 44.6423 90.989 44.8843 90.632 45.152C90.2662 45.4233 89.9188 45.7186 89.592 46.036C89.2689 46.3704 88.9682 46.7258 88.692 47.1C88.1236 47.8658 87.682 48.718 87.384 49.624C86.7547 51.502 86.7547 53.534 87.384 55.412C87.682 56.3192 88.1236 57.1727 88.692 57.94C88.9692 58.3133 89.2698 58.6687 89.592 59.004C89.9188 59.3213 90.2662 59.6166 90.632 59.888C90.99 60.1543 91.3655 60.3962 91.756 60.612C93.5964 61.5822 95.708 61.9102 97.756 61.544C99.042 61.3074 100.263 60.8012 101.339 60.0587C102.416 59.3162 103.322 58.3542 104 57.236C104.465 56.4754 104.812 55.6487 105.028 54.784C105.117 54.472 105.182 54.1537 105.224 53.832C105.248 53.692 105.272 53.564 105.288 53.432L105.308 53.108C105.308 52.924 105.332 52.78 105.34 52.668C105.341 52.618 105.348 52.5684 105.36 52.52C105.365 52.5705 105.365 52.6214 105.36 52.672C105.36 52.78 105.36 52.928 105.36 53.112C105.36 53.212 105.36 53.32 105.36 53.436C105.36 53.552 105.324 53.688 105.308 53.836C105.272 54.1614 105.212 54.4836 105.128 54.8C104.92 55.677 104.58 56.5172 104.12 57.292C103.446 58.433 102.537 59.4178 101.454 60.1812C100.37 60.9446 99.1373 61.4691 97.836 61.72C96.1897 62.0281 94.4909 61.89 92.916 61.32C92.4965 61.1689 92.0876 60.9898 91.692 60.784C91.2914 60.5657 90.9065 60.3198 90.54 60.048C90.1652 59.7712 89.8098 59.4691 89.476 59.144C89.1451 58.804 88.8377 58.4418 88.556 58.06C87.9718 57.2766 87.518 56.4041 87.212 55.476C86.9053 54.52 86.7422 53.5238 86.728 52.52C86.7409 51.5144 86.9054 50.5165 87.216 49.56C87.5198 48.633 87.9724 47.7616 88.556 46.98C88.8377 46.5969 89.1451 46.2334 89.476 45.892C89.8117 45.5702 90.167 45.2696 90.54 44.992C90.9065 44.7202 91.2914 44.4743 91.692 44.256C92.0876 44.0501 92.4965 43.8711 92.916 43.72C94.4896 43.1501 96.187 43.012 97.832 43.32C99.1341 43.5701 100.368 44.0943 101.452 44.8577C102.536 45.6211 103.446 46.6063 104.12 47.748C104.58 48.5213 104.92 49.3603 105.128 50.236C105.212 50.5537 105.272 50.8773 105.308 51.204C105.308 51.344 105.348 51.476 105.36 51.604C105.372 51.732 105.36 51.832 105.36 51.932C105.36 52.116 105.36 52.264 105.36 52.372C105.365 52.4253 105.363 52.479 105.356 52.532Z" fill="#263238"/>
<path d="M185.228 187.92C185.228 187.976 147.068 188.024 100.004 188.024C52.9401 188.024 14.7681 187.976 14.7681 187.92C14.7681 187.864 52.9241 187.816 100.004 187.816C147.084 187.816 185.228 187.86 185.228 187.92Z" fill="#263238"/>
<path d="M165.36 43.6719L166.536 39.4279C164.979 36.9055 164.422 33.892 164.975 30.9798C165.527 28.0675 167.149 25.4674 169.522 23.6904C171.894 21.9134 174.846 21.0882 177.796 21.3771C180.746 21.6659 183.481 23.0479 185.464 25.2513C187.447 27.4546 188.533 30.32 188.511 33.2841C188.488 36.2482 187.357 39.0965 185.34 41.269C183.324 43.4416 180.568 44.7812 177.613 45.0245C174.659 45.2678 171.721 44.3973 169.376 42.5839L165.36 43.6719Z" fill="white"/>
<path d="M165.36 43.6719L165.628 43.5919L166.4 43.3759L169.368 42.5439L169.34 42.6199C169.332 42.6111 169.328 42.5997 169.328 42.5879C169.328 42.5761 169.332 42.5647 169.34 42.5559C169.349 42.5502 169.359 42.5472 169.37 42.5472C169.381 42.5472 169.391 42.5502 169.4 42.5559C170.977 43.766 172.835 44.556 174.8 44.8519C176.058 45.0452 177.339 45.029 178.592 44.8039C180.925 44.3988 183.082 43.3002 184.782 41.6513C186.481 40.0024 187.645 37.8797 188.12 35.5599C188.467 33.7882 188.406 31.9609 187.944 30.2159C187.47 28.3934 186.561 26.7132 185.294 25.3197C184.027 23.9262 182.441 22.8611 180.672 22.2159C178.855 21.5488 176.901 21.3404 174.984 21.6091C173.068 21.8778 171.247 22.6154 169.683 23.7565C168.119 24.8975 166.862 26.4067 166.021 28.1503C165.18 29.8939 164.783 31.818 164.864 33.7519C164.948 35.7453 165.537 37.6847 166.576 39.3879C166.58 39.4009 166.58 39.4149 166.576 39.4279C166.176 40.7919 165.884 41.8279 165.676 42.5599C165.576 42.9159 165.496 43.1839 165.44 43.3599C165.384 43.5359 165.356 43.6439 165.356 43.6439C165.356 43.6439 165.376 43.5559 165.42 43.3759C165.464 43.1959 165.54 42.9199 165.636 42.5759C165.828 41.8439 166.116 40.7759 166.484 39.3759V39.4159C165.226 37.3924 164.607 35.0363 164.709 32.6556C164.811 30.2748 165.629 27.9803 167.056 26.0719C168.886 23.6283 171.581 21.977 174.59 21.4565C177.598 20.9359 180.691 21.5854 183.236 23.2719C184.029 23.8096 184.757 24.4378 185.404 25.1439C186.057 25.8589 186.624 26.6468 187.096 27.4919C188.415 29.9665 188.839 32.8208 188.296 35.5719C187.813 37.9271 186.63 40.0812 184.901 41.7517C183.172 43.4221 180.978 44.5307 178.608 44.9319C177.337 45.1563 176.038 45.1671 174.764 44.9639C172.779 44.6465 170.907 43.8304 169.324 42.5919L169.392 42.5279C169.396 42.532 169.4 42.537 169.402 42.5425C169.405 42.548 169.406 42.5539 169.406 42.5599C169.406 42.5659 169.405 42.5718 169.402 42.5773C169.4 42.5828 169.396 42.5878 169.392 42.5919L166.372 43.3919L165.6 43.5999L165.36 43.6719Z" fill="#263238"/>
<path d="M171.324 33.5158L172.708 32.1278L175.38 34.5038L180.624 29.4558L181.912 30.8438L175.184 37.1758L171.324 33.5158Z" fill="#00A19B"/>
</svg>
