<svg width="200" height="133" viewBox="0 0 200 133" fill="none" xmlns="http://www.w3.org/2000/svg">
<path d="M58.6355 32.5214L28.7153 52.4861L58.1866 96.4328L88.1068 76.4682L58.6355 32.5214Z" fill="#F5F5F5"/>
<path d="M72.6455 74.3896L72.3068 76.4857L57.4321 74.3471L57.7708 72.251L72.6455 74.3896Z" fill="#E0E0E0"/>
<path d="M65.1546 66.9124L67.288 67.2183L64.9226 81.827L62.7866 81.5184L65.1546 66.9124Z" fill="#E0E0E0"/>
<path d="M51.4668 48.3456C51.4881 48.3749 48.4908 50.4151 44.7708 52.8942C41.0508 55.3733 38.0188 57.363 37.9974 57.3311C37.9761 57.2992 40.9734 55.2616 44.6934 52.7798C48.4134 50.298 51.4321 48.3137 51.4668 48.3456Z" fill="#E0E0E0"/>
<path d="M62.4587 45.5898C62.4801 45.6217 57.4934 48.984 51.3227 53.1017C45.1521 57.2193 40.1227 60.531 40.1067 60.5018C40.0907 60.4725 45.0667 57.105 51.2454 52.9873C57.4241 48.8696 62.4374 45.5579 62.4587 45.5898Z" fill="#E0E0E0"/>
<path d="M64.6641 48.8774C64.6854 48.9093 59.6987 52.2742 53.5281 56.3919C47.3574 60.5096 42.3281 63.8213 42.3121 63.7894C42.2961 63.7575 47.2774 60.3952 53.4507 56.2749C59.6241 52.1545 64.6427 48.8455 64.6641 48.8774Z" fill="#E0E0E0"/>
<path d="M66.8694 52.168C66.8908 52.1999 61.9041 55.5648 55.7334 59.6798C49.5628 63.7948 44.5334 67.1118 44.5334 67.0799C44.5334 67.048 49.4961 63.6831 55.6694 59.5654C61.8428 55.4477 66.8481 52.136 66.8694 52.168Z" fill="#E0E0E0"/>
<path d="M69.0666 55.4582C69.088 55.4902 64.1013 58.8524 57.9306 62.9701C51.76 67.0878 46.7306 70.3995 46.7173 70.3675C46.704 70.3356 51.688 66.9734 57.8666 62.8557C64.0453 58.738 69.0666 55.4263 69.0666 55.4582Z" fill="#E0E0E0"/>
<path d="M158.685 61.9687L133.557 78.7358L158.308 115.643L183.436 98.8758L158.685 61.9687Z" fill="#F5F5F5"/>
<path d="M170.453 97.1378L170.168 98.8987L157.675 97.1032L157.963 95.3423L170.453 97.1378Z" fill="#E0E0E0"/>
<path d="M164.163 90.8577L165.955 91.1157L163.968 103.384L162.173 103.126L164.163 90.8577Z" fill="#E0E0E0"/>
<path d="M152.656 75.278C152.677 75.3099 150.163 77.0256 147.037 79.1084C143.912 81.1912 141.363 82.8563 141.341 82.8324C141.32 82.8084 143.837 81.0874 146.96 79.002C150.083 76.9165 152.635 75.2328 152.656 75.278Z" fill="#E0E0E0"/>
<path d="M161.896 72.9505C161.917 72.9824 157.733 75.8126 152.563 79.268C147.392 82.7233 143.16 85.5057 143.139 85.4737C143.117 85.4418 147.301 82.6116 152.472 79.1536C157.643 75.6956 161.867 72.9185 161.896 72.9505Z" fill="#E0E0E0"/>
<path d="M163.749 75.7117C163.771 75.7436 159.587 78.5738 154.416 82.0318C149.245 85.4898 145.013 88.2669 144.992 88.2349C144.971 88.203 149.141 85.3861 154.325 81.9281C159.509 78.4701 163.733 75.6824 163.749 75.7117Z" fill="#E0E0E0"/>
<path d="M165.6 78.4699C165.621 78.5018 161.435 81.3321 156.267 84.7901C151.099 88.2481 146.864 91.0251 146.843 90.9932C146.821 90.9613 151.005 88.1337 156.176 84.673C161.347 81.2124 165.581 78.4433 165.6 78.4699Z" fill="#E0E0E0"/>
<path d="M167.467 81.239C167.488 81.271 163.304 84.0985 158.133 87.5565C152.963 91.0145 148.731 93.7916 148.709 93.7623C148.688 93.7331 152.872 90.9002 158.043 87.4422C163.213 83.9842 167.432 81.2071 167.467 81.239Z" fill="#E0E0E0"/>
<path d="M118.931 34.1383L91.5132 19.5105L69.9202 59.7818L97.3382 74.4096L118.931 34.1383Z" fill="#F5F5F5"/>
<path d="M92.6454 61.8105L90.9067 62.4037L86.4907 50.2289L88.2321 49.6331L92.6454 61.8105Z" fill="#E0E0E0"/>
<path d="M95.3121 53.075L95.9468 54.8226L83.8241 58.9642L83.1895 57.2166L95.3121 53.075Z" fill="#E0E0E0"/>
<path d="M103.925 35.1119C103.904 35.1518 101.125 33.7101 97.7148 31.8933C94.3041 30.0765 91.5601 28.5683 91.5814 28.5284C91.6028 28.4885 94.3841 29.9302 97.7948 31.747C101.205 33.5638 103.947 35.0693 103.925 35.1119Z" fill="#E0E0E0"/>
<path d="M110.507 42.3553C110.485 42.3952 105.883 39.9799 100.227 36.9634C94.5707 33.947 90.0054 31.4679 90.0267 31.428C90.048 31.3881 94.648 33.8007 100.304 36.8198C105.96 39.8389 110.528 42.3154 110.507 42.3553Z" fill="#E0E0E0"/>
<path d="M108.891 45.3689C108.869 45.4088 104.267 42.9962 98.6107 39.9771C92.9547 36.958 88.3894 34.4815 88.4107 34.4416C88.4321 34.4017 93.032 36.817 98.688 39.8335C104.344 42.8499 108.912 45.329 108.891 45.3689Z" fill="#E0E0E0"/>
<path d="M107.275 48.3828C107.253 48.4227 102.651 46.0101 96.9948 42.9937C91.3388 39.9772 86.7734 37.5061 86.7948 37.4582C86.8161 37.4103 91.4161 39.8309 97.0721 42.8474C102.728 45.8638 107.296 48.3429 107.275 48.3828Z" fill="#E0E0E0"/>
<path d="M105.659 51.3965C105.637 51.4364 101.035 49.0238 95.3788 46.0074C89.7228 42.9909 85.1548 40.5118 85.1788 40.4719C85.2028 40.432 89.8001 42.8446 95.4561 45.8611C101.112 48.8775 105.68 51.3566 105.659 51.3965Z" fill="#E0E0E0"/>
<path opacity="0.2" d="M105.8 0H105.112V11.6987H105.8V0Z" fill="black"/>
<path d="M176.979 116.995C176.979 117.032 142.512 117.064 100.003 117.064C57.4932 117.064 23.0212 117.04 23.0212 116.995C23.0212 116.95 57.4826 116.926 100.003 116.926C142.523 116.926 176.979 116.955 176.979 116.995Z" fill="#263238"/>
<path d="M31.5439 100.335C31.9948 100.368 32.4345 100.49 32.8367 100.696C33.239 100.902 33.5956 101.186 33.8853 101.532C34.4612 102.229 34.869 103.048 35.0773 103.926C35.5279 105.607 35.2506 107.594 34.7706 109.267C32.9466 108.616 31.8186 106.674 31.3039 105.653C30.5039 104.041 30.0266 100.636 31.5359 100.333" fill="#00A19B"/>
<path d="M37.3972 111.308C37.1233 110.884 36.9667 110.395 36.9433 109.892C36.9198 109.388 37.0305 108.887 37.2639 108.44C37.5046 107.997 37.8314 107.607 38.2251 107.291C38.6189 106.975 39.0717 106.741 39.5572 106.602C40.0025 106.464 40.5199 106.408 40.9065 106.666C41.0808 106.797 41.2166 106.973 41.2996 107.175C41.3826 107.376 41.4099 107.597 41.3785 107.812C41.3085 108.245 41.1245 108.65 40.8452 108.988C39.9572 110.188 38.8799 111.185 37.3785 111.308" fill="#00A19B"/>
<path d="M37.5998 116.928C37.5602 116.815 37.5325 116.698 37.5171 116.58C37.4691 116.33 37.4051 116.008 37.3278 115.622C37.0884 114.566 37.0218 113.478 37.1304 112.401C37.2562 111.318 37.6695 110.289 38.3278 109.419C38.5289 109.159 38.7608 108.924 39.0184 108.719C39.0884 108.664 39.1614 108.613 39.2371 108.565C39.2612 108.545 39.2881 108.529 39.3171 108.517C38.9798 108.805 38.6716 109.125 38.3971 109.472C37.7736 110.343 37.381 111.357 37.2558 112.42C37.0851 113.659 37.2958 114.795 37.4184 115.612C37.4824 116.019 37.5358 116.348 37.5651 116.577C37.5861 116.693 37.5977 116.81 37.5998 116.928Z" fill="#263238"/>
<path d="M32.1306 102.897C32.1611 102.939 32.1861 102.984 32.2053 103.032C32.2533 103.139 32.3173 103.272 32.3919 103.439C32.5546 103.793 32.7813 104.307 33.0559 104.942C33.6053 106.216 34.3413 107.988 35.1093 109.962C35.8773 111.935 36.5306 113.736 36.976 115.048C37.2053 115.702 37.384 116.234 37.5093 116.604C37.5653 116.779 37.608 116.92 37.6426 117.029C37.6616 117.078 37.6751 117.129 37.6826 117.181C37.6556 117.136 37.6341 117.088 37.6186 117.037C37.5786 116.931 37.5279 116.793 37.4613 116.62L36.8986 115.077C36.4213 113.776 35.7546 111.978 34.9893 110.007C34.224 108.036 33.4986 106.259 32.9706 104.977C32.7039 104.346 32.4986 103.833 32.3466 103.458C32.2773 103.288 32.2213 103.152 32.1786 103.043C32.1586 102.996 32.1425 102.947 32.1306 102.897Z" fill="#263238"/>
<path d="M35.4319 113.21C34.8832 112.298 34.1249 111.53 33.2198 110.969C32.3146 110.408 31.2886 110.07 30.2266 109.983C29.6932 109.946 29.0372 110.036 28.7972 110.515C28.5572 110.994 28.8772 111.579 29.2452 111.967C30.0271 112.783 31.0336 113.35 32.1379 113.596C33.2422 113.842 34.3949 113.757 35.4506 113.351" fill="#00A19B"/>
<path d="M31.0479 111.425C31.1609 111.419 31.2743 111.424 31.3865 111.438C31.518 111.445 31.6489 111.46 31.7785 111.483C31.9305 111.512 32.1092 111.528 32.2959 111.582C32.5045 111.626 32.7102 111.683 32.9119 111.752C33.1455 111.827 33.3743 111.916 33.5972 112.018C34.1098 112.247 34.5947 112.533 35.0425 112.872C35.4851 113.218 35.886 113.614 36.2372 114.053C36.3888 114.244 36.5286 114.443 36.6559 114.651C36.7708 114.831 36.8759 115.016 36.9705 115.207C37.0506 115.363 37.1219 115.523 37.1839 115.686C37.2373 115.807 37.2828 115.931 37.3199 116.058C37.3594 116.165 37.3888 116.274 37.4079 116.386C37.3785 116.386 37.2505 115.928 36.8905 115.247C36.7925 115.064 36.6848 114.887 36.5679 114.715C36.4379 114.514 36.2973 114.319 36.1465 114.133C35.449 113.273 34.5596 112.588 33.5492 112.132C33.3172 112.031 33.0959 111.935 32.8799 111.866C32.6816 111.794 32.4795 111.733 32.2745 111.683C31.5279 111.478 31.0452 111.454 31.0479 111.425Z" fill="#263238"/>
<path d="M79.7333 62.3874L70.2933 110.746L69.0667 117.077L132 116.774C134.827 116.76 137.333 114.257 138.237 110.539L149.4 64.8851C150.091 62.0629 148.576 59.1262 146.432 59.1289L82.72 59.1954C81.3333 59.1927 80.0907 60.5015 79.7333 62.3874Z" fill="#00A19B"/>
<g opacity="0.5">
<path d="M79.7333 62.3874L70.2933 110.746L69.0667 117.077L132 116.774C134.827 116.76 137.333 114.257 138.237 110.539L149.4 64.8851C150.091 62.0629 148.576 59.1262 146.432 59.1289L82.72 59.1954C81.3333 59.1927 80.0907 60.5015 79.7333 62.3874Z" fill="black"/>
</g>
<path d="M125.971 107.464L119.304 53.8888C119.037 51.6943 117.28 50.0558 115.208 50.0637L100.595 50.109C100.051 50.1151 99.5154 50.2314 99.0188 50.4509C98.5223 50.6705 98.0758 50.9885 97.7066 51.3858L90.7732 58.746L50.1332 58.9641C47.6506 58.9774 45.7412 61.3235 46.0692 63.9569L52.2586 113.473C52.5252 115.665 54.2826 117.301 56.3492 117.298L127.189 117.157C135.077 117.319 135.832 114.997 135.832 114.997C126.776 116.995 125.971 107.477 125.971 107.464Z" fill="#00A19B"/>
<g opacity="0.5">
<path d="M95.4239 96.7494L93.0345 99.3083L74.6345 82.795L77.0239 80.2361L95.4239 96.7494Z" fill="white"/>
<path d="M92.0345 79.6694L94.6745 82.0395L78.0265 99.8748L75.3838 97.5047L92.0345 79.6694Z" fill="white"/>
</g>
<path d="M136.085 27.6055C135.999 27.5692 135.925 27.5092 135.871 27.4324C135.818 27.3556 135.788 27.2653 135.784 27.1719L135.677 24.7034C135.673 24.6267 135.688 24.5502 135.719 24.4799C135.75 24.4096 135.797 24.3475 135.856 24.2985C135.915 24.2494 135.985 24.2148 136.06 24.1974C136.135 24.18 136.213 24.1802 136.288 24.198C136.494 24.2425 136.708 24.2444 136.915 24.2037C137.122 24.163 137.319 24.0805 137.493 23.9613C137.654 23.86 137.791 23.7271 137.898 23.5706C138.005 23.4141 138.079 23.2375 138.115 23.0516C138.139 22.8633 138.125 22.6721 138.073 22.4893C138.022 22.3066 137.935 22.1359 137.816 21.9876C137.691 21.8187 137.534 21.6762 137.354 21.568C137.173 21.4598 136.973 21.3882 136.765 21.3571C136.346 21.3339 135.93 21.4525 135.587 21.6939C135.243 21.9353 134.991 22.2852 134.872 22.6871C134.832 22.8089 134.747 22.9107 134.633 22.9712C134.52 23.0318 134.388 23.0464 134.264 23.0121C134.141 22.9778 134.035 22.8973 133.969 22.7872C133.904 22.6771 133.883 22.546 133.912 22.4211C134.093 21.789 134.487 21.2384 135.028 20.862C135.568 20.4856 136.222 20.3063 136.88 20.3543C137.222 20.3998 137.552 20.5134 137.849 20.6884C138.146 20.8634 138.405 21.0963 138.611 21.3731C138.81 21.6297 138.956 21.9236 139.04 22.2375C139.124 22.5514 139.144 22.8788 139.099 23.2005C139.038 23.5217 138.912 23.8272 138.729 24.098C138.545 24.3688 138.308 24.5993 138.032 24.7752C137.632 25.0439 137.165 25.1959 136.683 25.2141L136.765 27.1187C136.768 27.2024 136.75 27.2855 136.713 27.3603C136.675 27.4351 136.619 27.4993 136.55 27.5467C136.481 27.5942 136.401 27.6235 136.317 27.6319C136.233 27.6403 136.149 27.6276 136.072 27.5948L136.085 27.6055Z" fill="#00A19B"/>
<path d="M136.816 28.6161C136.822 28.6965 136.803 28.7767 136.763 28.8466C136.723 28.9164 136.663 28.9729 136.591 29.0088C136.519 29.0447 136.437 29.0584 136.357 29.0482C136.277 29.0379 136.202 29.0042 136.141 28.9513C136.08 28.8984 136.036 28.8287 136.015 28.751C135.994 28.6733 135.997 28.5911 136.022 28.5147C136.048 28.4384 136.096 28.3714 136.16 28.3222C136.224 28.2731 136.301 28.2439 136.381 28.2384C136.435 28.2344 136.489 28.2411 136.539 28.258C136.59 28.2749 136.637 28.3016 136.678 28.3368C136.718 28.3719 136.751 28.4147 136.775 28.4626C136.799 28.5106 136.813 28.5628 136.816 28.6161Z" fill="#00A19B"/>
<path d="M127.517 24.1235C127.529 24.0708 127.537 24.0175 127.541 23.9639C127.541 23.8468 127.571 23.6979 127.592 23.4877C127.618 23.2297 127.662 22.9738 127.723 22.7216C127.757 22.5727 127.776 22.4078 127.829 22.2402C127.883 22.0726 127.936 21.8917 127.995 21.7082C128.303 20.7988 128.753 19.9434 129.328 19.1732C130.081 18.1759 131.036 17.3476 132.131 16.742C132.754 16.3915 133.417 16.1182 134.107 15.928C134.851 15.7313 135.617 15.6311 136.387 15.6301C136.792 15.6236 137.197 15.6449 137.6 15.6939C137.805 15.7152 138.008 15.7684 138.213 15.803C138.421 15.8385 138.626 15.8882 138.827 15.9519C139.667 16.1862 140.467 16.5478 141.197 17.0239C142.822 18.075 144.059 19.6249 144.723 21.4395C145.08 22.4115 145.26 23.4393 145.256 24.4746C145.267 25.5411 145.078 26.6002 144.699 27.5974L144.579 27.9007L144.563 27.9406L144.579 27.9805C145.248 29.5153 145.912 31.0235 146.539 32.4838L146.651 32.3562L142.651 30.8267L142.603 30.808L142.563 30.8453C141.504 31.868 140.209 32.6137 138.792 33.0158C137.581 33.3484 136.313 33.421 135.072 33.2289C133.831 33.0367 132.645 32.5843 131.592 31.9013C130.73 31.3372 129.969 30.6311 129.344 29.8132C128.438 28.6193 127.85 27.2152 127.637 25.7328C127.605 25.4668 127.579 25.2433 127.555 25.0412C127.531 24.839 127.555 24.6741 127.541 24.5331C127.528 24.3921 127.541 24.299 127.541 24.2219C127.555 24.2199 127.567 24.2129 127.575 24.2024C127.583 24.1919 127.588 24.1787 127.586 24.1653C127.585 24.1519 127.579 24.1394 127.57 24.1303C127.56 24.1212 127.547 24.1161 127.533 24.1161C127.52 24.1161 127.507 24.1212 127.497 24.1303C127.487 24.1394 127.481 24.1519 127.48 24.1653C127.479 24.1787 127.483 24.1919 127.492 24.2024C127.5 24.2129 127.512 24.2199 127.525 24.2219C127.525 24.299 127.525 24.4028 127.525 24.5331C127.525 24.6634 127.525 24.8443 127.525 25.0465C127.525 25.2486 127.571 25.4801 127.597 25.7434C127.685 26.3832 127.838 27.0124 128.053 27.6214C128.359 28.4255 128.769 29.1858 129.275 29.8824C129.903 30.7148 130.668 31.4345 131.539 32.0104C132.605 32.7104 133.807 33.1763 135.068 33.3772C136.328 33.578 137.616 33.5093 138.848 33.1754C140.282 32.7691 141.594 32.0163 142.667 30.9836L142.579 31.0022L146.579 32.5397L146.779 32.6168L146.691 32.412C146.056 30.9517 145.4 29.4461 144.733 27.9086V27.9858L144.856 27.6746C145.245 26.6556 145.439 25.5728 145.427 24.4826C145.435 23.4253 145.254 22.375 144.893 21.381C144.216 19.5302 142.951 17.9508 141.291 16.8829C140.542 16.3957 139.721 16.0277 138.859 15.7923C138.655 15.7279 138.446 15.679 138.235 15.646C138.027 15.6088 137.821 15.5556 137.613 15.537C137.206 15.4865 136.795 15.4634 136.384 15.4678C135.602 15.4711 134.824 15.5767 134.069 15.7817C133.371 15.9796 132.698 16.26 132.067 16.6169C130.961 17.2374 130 18.0852 129.248 19.104C128.675 19.887 128.231 20.7562 127.933 21.6789C127.877 21.8704 127.824 22.054 127.776 22.2109C127.734 22.3713 127.7 22.5338 127.675 22.6977C127.617 22.9516 127.58 23.2095 127.563 23.4691C127.547 23.6739 127.536 23.8309 127.528 23.9479C127.517 24.0057 127.513 24.0647 127.517 24.1235Z" fill="#263238"/>
</svg>
