<svg width="38" height="25" viewBox="0 0 38 25" fill="none" xmlns="http://www.w3.org/2000/svg">
<g opacity="0.3" clip-path="url(#clip0_5913_16037)">
<path d="M14.6337 16.9323L16.2369 7.53868H18.8001L17.1921 16.9323H14.6337ZM26.4465 7.74028C25.9377 7.54828 25.1457 7.34668 24.1521 7.34668C21.6225 7.34668 19.8369 8.62348 19.8225 10.4475C19.8081 11.7963 21.0945 12.5499 22.0689 13.0011C23.0625 13.4619 23.3985 13.7547 23.3937 14.1627C23.3889 14.7915 22.5969 15.0795 21.8625 15.0795C20.8353 15.0795 20.2929 14.9355 19.4529 14.5851L19.1217 14.4363L18.7617 16.5387C19.3617 16.8027 20.4657 17.0283 21.6129 17.0379C24.3057 17.0379 26.0529 15.7803 26.0721 13.8267C26.0817 12.7563 25.4001 11.9451 23.9217 11.2731C23.0289 10.8363 22.4769 10.5483 22.4817 10.1067C22.4817 9.71788 22.9473 9.30028 23.9505 9.30028C24.7857 9.28588 25.3953 9.46828 25.8657 9.66028L26.0961 9.77068L26.4465 7.74028ZM33.0369 7.53868H31.0593C30.4449 7.53868 29.9889 7.70668 29.7201 8.31628L25.9137 16.9275H28.6017C28.6017 16.9275 29.0433 15.7707 29.1393 15.5163C29.4321 15.5163 32.0481 15.5211 32.4177 15.5211C32.4945 15.8523 32.7297 16.9275 32.7297 16.9275H35.1057L33.0369 7.53868ZM29.8977 13.6059C30.1089 13.0635 30.9201 10.9803 30.9201 10.9803C30.9057 11.0043 31.1313 10.4379 31.2609 10.0827L31.4337 10.8939C31.4337 10.8939 31.9233 13.1355 32.0289 13.6059H29.8977ZM12.4593 7.53868L9.95369 13.9467L9.68489 12.6459C9.21929 11.1435 7.7649 9.51628 6.1377 8.70508L8.43209 16.9179L11.1441 16.9131L15.1761 7.53388L12.4593 7.53868Z" fill="#1D1B20"/>
<path d="M7.60984 7.53809H3.48184L3.44824 7.73489C6.65944 8.51249 8.78584 10.3941 9.66904 12.6501L8.77144 8.33009C8.61784 7.73489 8.16664 7.55729 7.60984 7.53809Z" fill="#F2AE13"/>
</g>
<defs>
<clipPath id="clip0_5913_16037">
<rect width="37.44" height="24" fill="white" transform="translate(0.55957 0.194336)"/>
</clipPath>
</defs>
</svg>
