<svg width="58" height="28" viewBox="0 0 58 28" fill="none" xmlns="http://www.w3.org/2000/svg">
<g clip-path="url(#clip0_1996_26001)">
<path d="M57.38 9.47515H48.9811C47.8589 9.47515 47.0325 9.92327 46.4697 10.3871C46.0357 9.80794 45.3411 9.47515 44.548 9.47515H36.9973L39.0981 3.84621H17.7402L19.1122 0H10.9689L10.6287 1.00208C10.4865 1.42872 10.3257 1.89767 10.1867 2.28924H10.1623L9.81659 3.27314C9.81118 3.27801 9.59147 3.84634 8.78011 3.84634H3.14234L0.5 10.7354H7.06327C7.05089 10.7731 7.03467 10.8156 7.01794 10.8531C6.55756 12.1179 5.94916 13.8016 5.34038 15.4851C4.12096 18.8468 2.90642 22.2131 2.90101 22.2263C2.77224 22.5992 2.17202 24.5398 3.19084 25.9713C3.58717 26.5341 4.37467 27.2044 5.85506 27.2044H17.9782L17.976 27.2093L24.9825 27.1984L27.0151 21.6659H30.3087C30.5109 21.6659 30.7076 21.6399 30.9072 21.5961L28.8638 27.2093L34.7241 27.201V27.2043H48.4099C50.5485 27.2043 51.3881 26.0727 51.5951 25.245C51.9384 24.3143 54.3021 17.8755 54.5614 17.1416C54.7847 16.5142 54.7414 15.8763 54.4494 15.3401C54.4411 15.3295 54.4361 15.3164 54.4246 15.3026L55.1652 15.3056L57.38 9.47515Z" fill="white"/>
<path d="M12.0253 1.47669C12.0253 1.47669 11.2531 3.76568 11.2055 3.76568C11.2055 3.76568 10.6582 5.32092 8.78009 5.32092H4.15758L2.64648 9.26057H9.1892C9.14425 9.26057 4.29478 22.7114 4.29478 22.7114C4.29478 22.7114 3.2417 25.7297 5.85464 25.7297H18.2069L19.6252 21.84H10.9777C10.9777 21.84 9.65076 21.7037 10.1093 20.3737L13.634 10.7668C13.634 10.7668 14.224 9.26044 16.0132 9.26044H35.5033L36.9729 5.32079H15.6436L17.0187 1.47656H12.0253V1.47669Z" fill="#D71921"/>
<mask id="mask0_1996_26001" style="mask-type:luminance" maskUnits="userSpaceOnUse" x="2" y="1" width="35" height="25">
<path d="M12.0253 1.47669C12.0253 1.47669 11.2531 3.76568 11.2055 3.76568C11.2055 3.76568 10.6582 5.32092 8.78009 5.32092H4.15758L2.64648 9.26057H9.1892C9.14425 9.26057 4.29478 22.7114 4.29478 22.7114C4.29478 22.7114 3.2417 25.7297 5.85464 25.7297H18.2069L19.6252 21.84H10.9777C10.9777 21.84 9.65076 21.7037 10.1093 20.3737L13.634 10.7668C13.634 10.7668 14.224 9.26044 16.0132 9.26044H35.5033L36.9729 5.32079H15.6436L17.0187 1.47656H12.0253V1.47669Z" fill="white"/>
</mask>
<g mask="url(#mask0_1996_26001)">
<path d="M36.973 1.47656H2.64648V25.7296H36.973V1.47656Z" fill="#D71921"/>
</g>
<path d="M48.9812 10.9502C47.5625 10.9502 46.8564 12.1352 46.8564 12.1352C46.8564 12.1352 45.2498 16.5737 44.8188 17.7693C44.3853 18.9541 45.7354 19.0721 45.7354 19.0721H48.4101C48.4101 19.0721 47.5148 21.4734 47.444 21.6557C47.3749 21.8327 47.2688 21.8404 47.2688 21.8404H38.2534L36.8334 25.7301H48.4102C50.0829 25.7301 50.1745 24.8376 50.1745 24.8376C50.1745 24.8376 52.8974 17.4261 53.1703 16.649C53.4442 15.8714 52.6452 15.6863 52.6452 15.6863H49.8777C49.6706 15.6863 49.6945 15.5445 49.6945 15.5445C49.6945 15.5445 50.2175 14.1298 50.2656 13.968C50.3138 13.8046 50.5177 13.8046 50.5177 13.8046L54.1493 13.8263L55.2402 10.9503H48.9812V10.9502Z" fill="#D71921"/>
<mask id="mask1_1996_26001" style="mask-type:luminance" maskUnits="userSpaceOnUse" x="36" y="10" width="20" height="16">
<path d="M48.9812 10.9502C47.5625 10.9502 46.8564 12.1352 46.8564 12.1352C46.8564 12.1352 45.2498 16.5737 44.8188 17.7693C44.3853 18.9541 45.7354 19.0721 45.7354 19.0721H48.4101C48.4101 19.0721 47.5148 21.4734 47.444 21.6557C47.3749 21.8327 47.2688 21.8404 47.2688 21.8404H38.2534L36.8334 25.7301H48.4102C50.0829 25.7301 50.1745 24.8376 50.1745 24.8376C50.1745 24.8376 52.8974 17.4261 53.1703 16.649C53.4442 15.8714 52.6452 15.6863 52.6452 15.6863H49.8777C49.6706 15.6863 49.6945 15.5445 49.6945 15.5445C49.6945 15.5445 50.2175 14.1298 50.2656 13.968C50.3138 13.8046 50.5177 13.8046 50.5177 13.8046L54.1493 13.8263L55.2402 10.9503H48.9812V10.9502Z" fill="white"/>
</mask>
<g mask="url(#mask1_1996_26001)">
<path d="M55.2401 10.9502H36.8333V25.7299H55.2401V10.9502Z" fill="#D71921"/>
</g>
<path d="M15.6495 16.7451L16.5017 14.3866C16.5826 14.1823 16.8187 14.0192 17.0462 14.0192H19.162C19.3893 14.0192 19.5156 14.1822 19.4394 14.3866L18.5848 16.7451C18.5127 16.9488 18.2681 17.1148 18.0402 17.1148H15.9265C15.7039 17.1148 15.5767 16.9488 15.6495 16.7451ZM16.0595 10.9502C15.3818 10.9502 14.6573 11.4435 14.4377 12.0491L11.886 19.0932C11.6666 19.7044 12.0335 20.1919 12.7118 20.1919H19.0317C19.7031 20.1919 20.4288 19.7044 20.648 19.0932L23.1981 12.0491C23.4232 11.4435 23.0472 10.9502 22.3783 10.9502H16.0595Z" fill="#D71921"/>
<mask id="mask2_1996_26001" style="mask-type:luminance" maskUnits="userSpaceOnUse" x="11" y="10" width="13" height="11">
<path d="M15.6495 16.7451L16.5017 14.3866C16.5826 14.1823 16.8187 14.0192 17.0462 14.0192H19.162C19.3893 14.0192 19.5156 14.1822 19.4394 14.3866L18.5848 16.7451C18.5127 16.9488 18.2681 17.1148 18.0402 17.1148H15.9265C15.7039 17.1148 15.5767 16.9488 15.6495 16.7451ZM16.0595 10.9502C15.3818 10.9502 14.6573 11.4435 14.4377 12.0491L11.886 19.0932C11.6666 19.7044 12.0335 20.1919 12.7118 20.1919H19.0317C19.7031 20.1919 20.4288 19.7044 20.648 19.0932L23.1981 12.0491C23.4232 11.4435 23.0472 10.9502 22.3783 10.9502H16.0595Z" fill="white"/>
</mask>
<g mask="url(#mask2_1996_26001)">
<path d="M23.4231 10.9502H11.6666V20.1919H23.4231V10.9502Z" fill="#D71921"/>
</g>
<path d="M38.7779 14.0193H41.0125C41.2424 14.0193 41.3659 14.1823 41.2963 14.3868L40.436 16.7452C40.3633 16.949 40.1228 17.1149 39.8919 17.1149H37.6463L38.7779 14.0193ZM36.3505 10.9502L30.9741 25.7299L34.8388 25.7244L36.8791 20.1919H41.2051C41.8753 20.1919 42.6022 19.7044 42.8181 19.0932L45.3711 12.0491C45.5905 11.4435 45.2247 10.9502 44.5479 10.9502H36.3505Z" fill="#D71921"/>
<mask id="mask3_1996_26001" style="mask-type:luminance" maskUnits="userSpaceOnUse" x="30" y="10" width="16" height="16">
<path d="M38.7779 14.0193H41.0125C41.2424 14.0193 41.3659 14.1823 41.2963 14.3868L40.436 16.7452C40.3633 16.949 40.1228 17.1149 39.8919 17.1149H37.6463L38.7779 14.0193ZM36.3505 10.9502L30.9741 25.7299L34.8388 25.7244L36.8791 20.1919H41.2051C41.8753 20.1919 42.6022 19.7044 42.8181 19.0932L45.3711 12.0491C45.5905 11.4435 45.2247 10.9502 44.5479 10.9502H36.3505Z" fill="white"/>
</mask>
<g mask="url(#mask3_1996_26001)">
<path d="M45.5907 10.9502H30.9741V25.7299H45.5907V10.9502Z" fill="#D71921"/>
</g>
<path d="M27.8864 14.0193H30.1236C30.3492 14.0193 30.4783 14.1823 30.4027 14.3868L29.5418 16.7452C29.4755 16.949 29.2263 17.1149 29.0039 17.1149H26.7556L27.8864 14.0193ZM25.4597 10.9502L20.0829 25.7299L23.9529 25.7244L25.9857 20.1919H30.3088C30.982 20.1919 31.7107 19.7044 31.9283 19.0932L34.4822 12.0491C34.6998 11.4435 34.3322 10.9502 33.6519 10.9502H25.4597Z" fill="#D71921"/>
<mask id="mask4_1996_26001" style="mask-type:luminance" maskUnits="userSpaceOnUse" x="20" y="10" width="15" height="16">
<path d="M27.8864 14.0193H30.1236C30.3492 14.0193 30.4783 14.1823 30.4027 14.3868L29.5418 16.7452C29.4755 16.949 29.2263 17.1149 29.0039 17.1149H26.7556L27.8864 14.0193ZM25.4597 10.9502L20.0829 25.7299L23.9529 25.7244L25.9857 20.1919H30.3088C30.982 20.1919 31.7107 19.7044 31.9283 19.0932L34.4822 12.0491C34.6998 11.4435 34.3322 10.9502 33.6519 10.9502H25.4597Z" fill="white"/>
</mask>
<g mask="url(#mask4_1996_26001)">
<path d="M34.7 10.9502H20.083V25.7299H34.7V10.9502Z" fill="#D71921"/>
</g>
</g>
<defs>
<clipPath id="clip0_1996_26001">
<rect width="56.88" height="27.2094" fill="white" transform="translate(0.5)"/>
</clipPath>
</defs>
</svg>
